<?xml version="1.0" encoding="UTF-8"?><svg id="Layer_1" xmlns="http://www.w3.org/2000/svg" viewBox="0 0 1024 768"><defs><style>.cls-1{stroke-linecap:round;stroke-linejoin:round;}.cls-1,.cls-2{stroke-width:2px;}.cls-1,.cls-2,.cls-3{fill:none;stroke:#bcbcbc;}.cls-2,.cls-3{stroke-miterlimit:10;}.cls-3{stroke-dasharray:0 4;}.cls-4{fill:#bcbcbc;stroke-width:0px;}</style></defs><path class="cls-2" d="m498.04,621.86c-15.79-.02-29.8-.79-43.13-2.33-12.15-1.4-22.7-3.35-31.68-5.8-10.03-2.74-17.21-5.9-21.5-9.45-2.33-1.93-3.65-3.9-4.07-5.91-.69-3.32,1.37-6.53,5.94-9.65,4.38-2.98,10.92-5.65,19.52-8,11.26-3.09,24.8-5.32,40.6-6.71,8.94-.78,18.16-1.23,27.66-1.34,14.95-.17,29.41.38,43.31,1.77,11.07,1.1,20.97,2.67,29.79,4.67,7.3,1.65,13.42,3.54,18.44,5.65,6.6,2.76,10.73,5.75,12.64,8.93.73,1.21,1.13,2.44,1.1,3.67-.06,2.34-1.43,4.64-4.13,6.88-4.11,3.41-10.85,6.47-20.28,9.16-9.98,2.84-21.95,5-35.94,6.48-9.8,1.04-19.98,1.67-30.56,1.9-2.92.06-5.86.13-7.7.1ZM220.12,338.8c-.02,4.35,3.61,7.77,8.31,7.82,4.02.04,7.77-3.67,7.76-7.68-.01-4.54-3.55-8.15-8.01-8.17-4.58-.02-8.03,3.43-8.06,8.03Zm322.07,93.73c2.3.02,4.09-1.76,4.09-4.09,0-2.11-1.86-3.99-4.04-3.93-2.24.07-3.97,1.48-4.08,3.96-.11,2.25,1.72,4.04,4.03,4.06Zm-328.14-80.49c-4.61.38-8.08,3-8.17,8.14-.07,4.07,3.75,7.69,8.04,7.72,4.31.02,7.97-3.5,8.02-7.72.06-4.46-3.47-8.1-7.9-8.14Zm271.09,92.03c-2.19,0-3.97,1.75-3.99,3.94-.02,2.18,1.81,3.99,4.02,3.98,1.83-.01,4.02-1.43,4-4.09-.01-2.1-1.83-3.81-4.03-3.82Zm-282.79-117.32c4.69.02,7.98-3.33,8.03-8.17.04-3.97-3.62-7.68-7.57-7.68-4.7,0-8.44,3.52-8.41,7.93.03,4.33,3.61,7.9,7.96,7.92Zm-5.25,15.8c.04-4.46-3.35-8.12-7.52-8.13-4.66-.01-8.32,3.48-8.36,7.99-.04,4.23,3.65,7.85,8.03,7.87,4.44.03,7.82-3.3,7.86-7.73Zm89.9-29.18c-4.48.02-7.82,3.44-7.78,7.96.04,4.42,3.55,7.9,7.95,7.88,4.43-.03,7.94-3.61,7.93-8.09-.01-4.31-3.63-7.77-8.09-7.74Zm-50.1,3.42c0,4.43,3.47,7.94,7.86,7.96,4.43.02,8.03-3.48,8.03-7.8,0-4.56-3.47-7.98-8.12-8-4.32-.02-7.78,3.48-7.78,7.84Zm52.99-26c.01,4.57,3.5,7.96,8.15,7.93,4.2-.03,7.71-3.5,7.72-7.64.02-4.63-3.46-8.06-8.19-8.06-4.3,0-7.69,3.43-7.68,7.77Zm177.19,63.6c4.25.08,8.04-3.53,8.07-7.67.03-4.51-3.47-8.15-7.85-8.19-4.3-.03-7.91,3.46-7.99,7.73-.08,4.64,3.17,8.04,7.77,8.12Zm-293.56-29.82c4.53,0,7.87-3.35,7.85-7.86-.02-4.41-3.32-7.82-7.59-7.83-4.7,0-8.25,3.37-8.25,7.85,0,4.31,3.6,7.85,8,7.84Zm48.16-14.29c4.32.04,7.76-3.36,7.92-7.58.14-3.84-3.32-8.16-8.06-8.09-4.39.06-7.81,3.28-7.86,7.59-.06,4.56,3.4,8.05,8.01,8.09Zm98.56,223.28c0,4.5,3.34,7.81,7.89,7.83,4.4.02,7.82-3.41,7.86-7.9.05-4.46-3.64-7.93-8.38-7.89-4.02.03-7.37,3.64-7.37,7.96Zm-51.35-221.94c4.45.01,7.92-3.4,7.99-7.84.06-4-3.2-7.81-6.76-7.74-6,.11-9.1,3.24-9.11,7.7-.02,4.49,3.39,7.87,7.89,7.88Zm-54.4-36.44c.02,4.26,3.67,7.88,7.89,7.81,4.26-.07,7.99-3.81,7.98-8.01,0-4.11-3.31-7.66-7.16-7.7-5.25-.05-8.73,3.1-8.71,7.9Zm-28.88,12.47c.03,4.74,3.33,8.07,7.99,8.02,4.39-.04,7.71-3.44,7.71-7.9,0-4.57-3.22-7.78-7.74-7.72-4.65.07-7.98,3.25-7.95,7.6Zm-9.24-.61c-.02-4.53-3.25-7.91-7.57-7.79-4.6.12-8.21,3.45-8.1,7.86.12,4.45,3.48,7.84,7.98,7.82,4.38-.02,7.72-3.45,7.69-7.89Zm328.64,246.58c-.02-4.52-3.38-7.92-7.82-7.93-4.48,0-8.02,3.37-8.02,7.65,0,4.31,3.9,7.99,8.46,7.97,4.16-.01,7.41-3.4,7.38-7.69Zm-78.05-250.69c4.3.29,7.93-3.17,7.99-7.72.05-4.38-3.51-7.84-7.96-7.88-4.32-.04-7.84,3.46-7.85,7.81-.01,4.34,3.44,7.78,7.82,7.79Zm-130.45-22.95c.02-4.27-3.49-7.62-7.96-7.61-4.44,0-7.85,3.25-7.89,7.52-.04,4.38,3.56,7.99,7.99,8.01,4.36.02,7.83-3.48,7.85-7.92Zm-113.42-2.24c-.03-4.4-3.18-7.66-7.38-7.62-4.68.04-8.27,3.39-8.26,7.7.01,4.43,3.5,7.88,7.94,7.86,4.29-.02,7.73-3.56,7.7-7.93Zm29.14-.18c.05-4.28-3.01-7.55-7.08-7.58-5.2-.03-8.55,2.89-8.59,7.49-.04,4.29,3.37,7.82,7.59,7.91,4.43.09,8.37-3.59,8.08-7.83Zm26.35,4.51c0,4.41,3.48,7.83,7.96,7.82,4.32,0,7.87-3.47,7.89-7.8.02-3.62-3.33-7.6-7.74-7.61-4.8-.02-8.35,3.82-8.11,7.59Zm16.56-21.55c0,4.32,3.59,7.79,8.05,7.78,4.24,0,7.82-3.59,7.78-7.77-.04-4.35-3.37-7.56-7.83-7.55-4.65.01-8,3.17-8,7.54Zm-32.83,249.75c-.01-4.33-3.49-7.73-7.9-7.7-4.47.03-7.79,3.36-7.75,7.79.03,4.3,3.54,7.74,7.92,7.75,4.34,0,7.75-3.45,7.74-7.84Zm8.62-243.04c4.3.02,7.79-3.31,7.9-7.4.13-4.83-3.5-7.79-7.07-7.78-5.82.01-8.39,2.55-8.71,7.48-.28,4.24,3.46,7.68,7.88,7.71Zm337.23,76.08c4.56.06,8.03-3.31,8.08-7.84.05-4.14-3.07-7.38-7.11-7.4-5.16-.02-8.48,2.86-8.52,7.39-.04,4.43,3.19,7.79,7.55,7.85Zm-357.59-105.44c.01,4.34,3.49,7.75,7.88,7.72,4.32-.03,7.9-3.62,7.97-7.96.06-3.58-3.59-7.25-7.2-7.23-5.5.02-8.66,2.75-8.64,7.47Zm58.55,1.61c-.03,4.32,3.45,7.8,7.79,7.82,4.4.01,7.82-3.28,7.86-7.57.04-4.32-3.31-7.64-7.72-7.67-4.56-.03-7.9,3.11-7.93,7.43Zm32.22,24.97c4.5.02,7.79-3.15,7.82-7.52.03-4.41-3.26-7.63-7.82-7.67-4.42-.04-7.77,3.06-7.82,7.23-.05,4.42,3.4,7.94,7.81,7.96Zm-51.56,129.04c.31-3.15-2.85-6.72-6.52-6.59-3.96.14-6.69,2.76-6.65,6.59.04,3.68,2.98,6.68,6.66,6.43,3.38-.23,6.71-2.4,6.5-6.43Zm-1.78-160.41c3.7-.01,6.48-2.63,6.48-6.11,0-3.55-2.86-6.39-6.43-6.37-3.6.01-6.56,2.86-6.56,6.31,0,3.35,2.99,6.18,6.51,6.17Z"/><polyline class="cls-3" points="89.05 463.24 91.56 510.41 129.82 522.37 136.08 708.75 197.11 730.04"/><polygon class="cls-4" points="770.78 352.09 766.89 353.04 766.85 352.85 770.75 352 770.78 352.09"/><polygon class="cls-4" points="763.01 354 759.12 354.95 759.03 354.55 762.94 353.7 763.01 354"/><polygon class="cls-4" points="755.23 355.89 751.34 356.82 751.22 356.28 755.12 355.4 755.23 355.89"/><polygon class="cls-4" points="747.45 357.76 743.56 358.69 743.41 358.02 747.31 357.15 747.45 357.76"/><polygon class="cls-4" points="739.67 359.62 735.78 360.53 735.6 359.78 739.5 358.89 739.67 359.62"/><polygon class="cls-4" points="731.88 361.44 727.99 362.36 727.8 361.55 731.7 360.67 731.88 361.44"/><polygon class="cls-4" points="724.1 363.27 720.2 364.18 720 363.33 723.9 362.44 724.1 363.27"/><polygon class="cls-4" points="716.31 365.1 712.41 365.99 712.21 365.13 716.1 364.22 716.31 365.1"/><polygon class="cls-4" points="708.51 366.88 704.61 367.77 704.42 366.95 708.31 366.04 708.51 366.88"/><polygon class="cls-4" points="700.71 368.66 696.8 369.53 696.64 368.8 700.53 367.87 700.71 368.66"/><polygon class="cls-4" points="692.9 370.4 688.99 371.27 688.86 370.67 692.75 369.74 692.9 370.4"/><polygon class="cls-4" points="685.09 372.14 681.19 373 681.08 372.54 684.97 371.6 685.09 372.14"/><polygon class="cls-4" points="677.28 373.87 673.38 374.76 673.29 374.39 677.19 373.47 677.28 373.87"/><polygon class="cls-4" points="669.48 375.64 665.58 376.53 665.51 376.22 669.4 375.3 669.48 375.64"/><polygon class="cls-4" points="661.68 377.42 657.79 378.34 657.71 378.01 661.61 377.13 661.68 377.42"/><polygon class="cls-4" points="653.89 379.26 650 380.18 649.91 379.78 653.81 378.9 653.89 379.26"/><polygon class="cls-4" points="646.11 381.09 642.21 382.01 642.11 381.55 646.01 380.66 646.11 381.09"/><polygon class="cls-4" points="638.32 382.93 634.43 383.85 634.3 383.32 638.2 382.43 638.32 382.93"/><polygon class="cls-4" points="630.54 384.78 626.64 385.7 626.5 385.07 630.4 384.19 630.54 384.78"/><polygon class="cls-4" points="622.75 386.63 618.86 387.55 618.69 386.82 622.59 385.95 622.75 386.63"/><polygon class="cls-4" points="614.97 388.48 611.08 389.4 610.89 388.58 614.79 387.7 614.97 388.48"/><polygon class="cls-4" points="607.19 390.33 603.29 391.24 603.08 390.34 606.98 389.45 607.19 390.33"/><polygon class="cls-4" points="599.4 392.15 596.76 392.77 596.73 391.83 598.01 392.03 597.86 392.98 596.58 392.78 594.14 392.38 596.55 391.83 599.18 391.23 599.4 392.15"/><polygon class="cls-4" points="601.96 392.64 605.92 393.26 605.76 394.26 601.81 393.62 601.96 392.64"/><polygon class="cls-4" points="609.87 393.88 613.82 394.5 613.65 395.54 609.7 394.9 609.87 393.88"/><polygon class="cls-4" points="617.77 395.13 621.72 395.76 621.56 396.79 617.6 396.17 617.77 395.13"/><polygon class="cls-4" points="625.67 396.39 629.62 397.03 629.46 398.04 625.51 397.42 625.67 396.39"/><polygon class="cls-4" points="633.57 397.66 637.52 398.29 637.36 399.29 633.41 398.66 633.57 397.66"/><polygon class="cls-4" points="641.47 398.93 645.41 399.58 645.27 400.52 641.31 399.91 641.47 398.93"/><polygon class="cls-4" points="644.16 401.1 640.2 401.67 640.07 400.84 644.02 400.21 644.16 401.1"/><polygon class="cls-4" points="636.24 402.24 632.28 402.81 632.17 402.08 636.12 401.46 636.24 402.24"/><polygon class="cls-4" points="628.32 403.38 624.36 403.95 624.27 403.33 628.22 402.71 628.32 403.38"/><polygon class="cls-4" points="620.4 404.53 616.44 405.1 616.37 404.58 620.32 403.95 620.4 404.53"/><polygon class="cls-4" points="612.49 405.67 608.52 406.23 608.47 405.84 612.41 405.2 612.49 405.67"/><polygon class="cls-4" points="604.56 406.78 600.6 407.32 600.57 407.13 604.52 406.48 604.56 406.78"/><path class="cls-2" d="m798.45,183.03c-.01-2.01-1.72-3.58-3.89-3.58-1.86,0-3.58,1.74-3.55,3.6.03,2.1,1.69,3.76,3.76,3.74,2.12-.02,3.7-1.63,3.69-3.77Z"/><path class="cls-2" d="m801.19,176.86c2.13-.2,3.73-1.44,3.74-3.82,0-1.89-1.78-3.54-3.77-3.53-2,.01-3.67,1.66-3.67,3.62,0,2.07,1.65,3.73,3.7,3.73Z"/><path class="cls-2" d="m806.75,188.51c-2.17.02-3.68,1.59-3.67,3.83,0,1.84,1.72,3.54,3.55,3.52,2.18-.03,3.89-1.68,3.85-3.72-.04-2.01-1.71-3.64-3.73-3.62Z"/><path class="cls-2" d="m809.09,181.16c0,2.07,1.59,3.74,3.53,3.73,2.16-.02,3.83-1.66,3.83-3.75,0-1.96-1.73-3.61-3.76-3.6-2.06.01-3.6,1.57-3.6,3.63Z"/><path class="cls-2" d="m767.61,195.17c2.07-.04,3.6-1.64,3.56-3.73-.04-2.05-1.69-3.64-3.73-3.6-2.05.04-3.66,1.72-3.63,3.79.03,2,1.72,3.58,3.79,3.54Z"/><path class="cls-2" d="m790.8,193.31c-.03-2.05-1.65-3.66-3.68-3.64-2.05.02-3.7,1.66-3.68,3.66.02,2.11,1.65,3.68,3.8,3.66,2-.02,3.59-1.65,3.56-3.67Z"/><path class="cls-2" d="m766.39,205.65c-.03-2.12-1.66-3.67-3.82-3.63-1.94.03-3.55,1.66-3.53,3.58.02,2.15,1.65,3.71,3.84,3.69,1.99-.02,3.54-1.63,3.51-3.64Z"/><path class="cls-2" d="m820.11,189.36c-2.1.03-3.63,1.6-3.59,3.68.03,2.04,1.58,3.61,3.56,3.59,2.18-.02,3.8-1.6,3.78-3.68-.02-2-1.71-3.62-3.75-3.59Z"/><path class="cls-2" d="m797.88,196.25c-2,0-3.58,1.6-3.63,3.55-.04,1.78,1.58,3.76,3.78,3.71,2.03-.05,3.6-1.56,3.6-3.56,0-2.11-1.62-3.71-3.75-3.7Z"/><path class="cls-2" d="m776.01,195.89c-2.06.02-3.65,1.62-3.66,3.68,0,1.85,1.53,3.6,3.17,3.55,2.78-.09,4.2-1.55,4.18-3.62-.02-2.08-1.61-3.63-3.7-3.61Z"/><path class="cls-2" d="m801.41,212.47c-.03-1.98-1.74-3.63-3.7-3.57-1.98.06-3.68,1.81-3.65,3.75.03,1.9,1.58,3.53,3.36,3.53,2.43,0,4.03-1.49,3.99-3.71Z"/><path class="cls-2" d="m814.72,206.53c-.04-2.2-1.59-3.72-3.74-3.67-2.03.04-3.55,1.64-3.53,3.7.03,2.12,1.53,3.59,3.63,3.53,2.15-.06,3.68-1.55,3.64-3.56Z"/><path class="cls-2" d="m819,206.76c.04,2.1,1.55,3.64,3.55,3.57,2.13-.08,3.79-1.64,3.71-3.69-.08-2.06-1.66-3.61-3.74-3.58-2.03.03-3.56,1.64-3.52,3.7Z"/><path class="cls-2" d="m763.5,219.96c.01,1.98,1.66,3.51,3.73,3.48,2.06-.03,3.62-1.55,3.61-3.53,0-2.03-1.69-3.68-3.75-3.67-2.02.01-3.61,1.65-3.59,3.71Z"/><path class="cls-2" d="m816.05,220.38c.04,2.04,1.51,3.53,3.46,3.49,2.17-.04,3.81-1.61,3.78-3.61-.03-2.05-1.66-3.63-3.72-3.6-1.99.03-3.56,1.69-3.52,3.72Z"/><path class="cls-2" d="m802.55,220.62c0,1.98,1.44,3.48,3.32,3.47,2.41-.01,3.94-1.38,3.94-3.52,0-1.99-1.6-3.61-3.56-3.62-2.05-.02-3.86,1.71-3.7,3.67Z"/><path class="cls-2" d="m790.32,218.68c-.03-2.04-1.66-3.61-3.73-3.58-2,.03-3.63,1.65-3.61,3.66.01,1.68,1.58,3.5,3.63,3.48,2.22-.02,3.85-1.82,3.71-3.56Z"/><path class="cls-2" d="m782.77,228.75c-.02-2-1.71-3.59-3.77-3.56-1.96.03-3.6,1.7-3.56,3.64.04,2.01,1.6,3.48,3.67,3.45,2.15-.03,3.69-1.51,3.67-3.54Z"/><path class="cls-2" d="m793.95,225.51c-1.99.01-3.59,1.58-3.62,3.47-.04,2.24,1.67,3.59,3.32,3.57,2.7-.04,3.87-1.23,3.99-3.51.1-1.97-1.64-3.54-3.69-3.53Z"/><path class="cls-2" d="m814.75,240.64c-.03-2.01-1.66-3.57-3.69-3.53-2,.04-3.64,1.72-3.65,3.73,0,1.66,1.7,3.34,3.37,3.31,2.55-.04,4-1.32,3.96-3.51Z"/><path class="cls-2" d="m776.41,238.57c-.01-2-1.64-3.6-3.65-3.58-2.04.02-3.6,1.56-3.6,3.55,0,2,1.57,3.52,3.62,3.51,2.11-.01,3.64-1.48,3.63-3.48Z"/><path class="cls-2" d="m761.35,227.18c-2.08.01-3.59,1.5-3.58,3.53.01,2.04,1.55,3.52,3.66,3.51,2.05,0,3.58-1.46,3.58-3.39,0-2.05-1.62-3.66-3.66-3.64Z"/><path class="cls-2" d="m784.52,167.13c-.13,1.46,1.36,3.1,3.05,3.02,1.83-.09,3.08-1.32,3.04-3.09-.04-1.71-1.42-3.08-3.12-2.94-1.57.13-3.1,1.15-2.98,3.02Z"/><path class="cls-2" d="m787.53,243.12c-1.72.03-2.99,1.25-2.97,2.86.02,1.64,1.36,2.94,3.01,2.92,1.67-.03,3.02-1.36,3-2.96-.02-1.55-1.42-2.85-3.05-2.82Z"/><path class="cls-2" d="m798.45,183.03c-.01-2.01-1.72-3.58-3.89-3.58-1.86,0-3.58,1.74-3.55,3.6.03,2.1,1.69,3.76,3.76,3.74,2.12-.02,3.7-1.63,3.69-3.77Z"/><path class="cls-2" d="m801.19,176.86c2.13-.2,3.73-1.44,3.74-3.82,0-1.89-1.78-3.54-3.77-3.53-2,.01-3.67,1.66-3.67,3.62,0,2.07,1.65,3.73,3.7,3.73Z"/><path class="cls-2" d="m806.75,188.51c-2.17.02-3.68,1.59-3.67,3.83,0,1.84,1.72,3.54,3.55,3.52,2.18-.03,3.89-1.68,3.85-3.72-.04-2.01-1.71-3.64-3.73-3.62Z"/><path class="cls-2" d="m809.09,181.16c0,2.07,1.59,3.74,3.53,3.73,2.16-.02,3.83-1.66,3.83-3.75,0-1.96-1.73-3.61-3.76-3.6-2.06.01-3.6,1.57-3.6,3.63Z"/><path class="cls-2" d="m767.61,195.17c2.07-.04,3.6-1.64,3.56-3.73-.04-2.05-1.69-3.64-3.73-3.6-2.05.04-3.66,1.72-3.63,3.79.03,2,1.72,3.58,3.79,3.54Z"/><path class="cls-2" d="m790.8,193.31c-.03-2.05-1.65-3.66-3.68-3.64-2.05.02-3.7,1.66-3.68,3.66.02,2.11,1.65,3.68,3.8,3.66,2-.02,3.59-1.65,3.56-3.67Z"/><path class="cls-2" d="m766.39,205.65c-.03-2.12-1.66-3.67-3.82-3.63-1.94.03-3.55,1.66-3.53,3.58.02,2.15,1.65,3.71,3.84,3.69,1.99-.02,3.54-1.63,3.51-3.64Z"/><path class="cls-2" d="m820.11,189.36c-2.1.03-3.63,1.6-3.59,3.68.03,2.04,1.58,3.61,3.56,3.59,2.18-.02,3.8-1.6,3.78-3.68-.02-2-1.71-3.62-3.75-3.59Z"/><path class="cls-2" d="m797.88,196.25c-2,0-3.58,1.6-3.63,3.55-.04,1.78,1.58,3.76,3.78,3.71,2.03-.05,3.6-1.56,3.6-3.56,0-2.11-1.62-3.71-3.75-3.7Z"/><path class="cls-2" d="m776.01,195.89c-2.06.02-3.65,1.62-3.66,3.68,0,1.85,1.53,3.6,3.17,3.55,2.78-.09,4.2-1.55,4.18-3.62-.02-2.08-1.61-3.63-3.7-3.61Z"/><path class="cls-2" d="m801.41,212.47c-.03-1.98-1.74-3.63-3.7-3.57-1.98.06-3.68,1.81-3.65,3.75.03,1.9,1.58,3.53,3.36,3.53,2.43,0,4.03-1.49,3.99-3.71Z"/><path class="cls-2" d="m814.72,206.53c-.04-2.2-1.59-3.72-3.74-3.67-2.03.04-3.55,1.64-3.53,3.7.03,2.12,1.53,3.59,3.63,3.53,2.15-.06,3.68-1.55,3.64-3.56Z"/><path class="cls-2" d="m819,206.76c.04,2.1,1.55,3.64,3.55,3.57,2.13-.08,3.79-1.64,3.71-3.69-.08-2.06-1.66-3.61-3.74-3.58-2.03.03-3.56,1.64-3.52,3.7Z"/><path class="cls-2" d="m763.5,219.96c.01,1.98,1.66,3.51,3.73,3.48,2.06-.03,3.62-1.55,3.61-3.53,0-2.03-1.69-3.68-3.75-3.67-2.02.01-3.61,1.65-3.59,3.71Z"/><path class="cls-2" d="m816.05,220.38c.04,2.04,1.51,3.53,3.46,3.49,2.17-.04,3.81-1.61,3.78-3.61-.03-2.05-1.66-3.63-3.72-3.6-1.99.03-3.56,1.69-3.52,3.72Z"/><path class="cls-2" d="m802.55,220.62c0,1.98,1.44,3.48,3.32,3.47,2.41-.01,3.94-1.38,3.94-3.52,0-1.99-1.6-3.61-3.56-3.62-2.05-.02-3.86,1.71-3.7,3.67Z"/><path class="cls-2" d="m790.32,218.68c-.03-2.04-1.66-3.61-3.73-3.58-2,.03-3.63,1.65-3.61,3.66.01,1.68,1.58,3.5,3.63,3.48,2.22-.02,3.85-1.82,3.71-3.56Z"/><path class="cls-2" d="m782.77,228.75c-.02-2-1.71-3.59-3.77-3.56-1.96.03-3.6,1.7-3.56,3.64.04,2.01,1.6,3.48,3.67,3.45,2.15-.03,3.69-1.51,3.67-3.54Z"/><path class="cls-2" d="m793.95,225.51c-1.99.01-3.59,1.58-3.62,3.47-.04,2.24,1.67,3.59,3.32,3.57,2.7-.04,3.87-1.23,3.99-3.51.1-1.97-1.64-3.54-3.69-3.53Z"/><path class="cls-2" d="m814.75,240.64c-.03-2.01-1.66-3.57-3.69-3.53-2,.04-3.64,1.72-3.65,3.73,0,1.66,1.7,3.34,3.37,3.31,2.55-.04,4-1.32,3.96-3.51Z"/><path class="cls-2" d="m776.41,238.57c-.01-2-1.64-3.6-3.65-3.58-2.04.02-3.6,1.56-3.6,3.55,0,2,1.57,3.52,3.62,3.51,2.11-.01,3.64-1.48,3.63-3.48Z"/><path class="cls-2" d="m761.35,227.18c-2.08.01-3.59,1.5-3.58,3.53.01,2.04,1.55,3.52,3.66,3.51,2.05,0,3.58-1.46,3.58-3.39,0-2.05-1.62-3.66-3.66-3.64Z"/><path class="cls-2" d="m784.52,167.13c-.13,1.46,1.36,3.1,3.05,3.02,1.83-.09,3.08-1.32,3.04-3.09-.04-1.71-1.42-3.08-3.12-2.94-1.57.13-3.1,1.15-2.98,3.02Z"/><path class="cls-2" d="m779.06,262.78c-1.72.03-2.99,1.25-2.97,2.86.02,1.64,1.36,2.94,3.01,2.92,1.67-.03,3.02-1.36,3-2.96-.02-1.55-1.42-2.85-3.05-2.82Z"/><polyline class="cls-3" points="775.63 265.95 568.43 241.76 568.43 308.53"/><path class="cls-2" d="m248.99,396.05c-16.74-.11-31.58-3.37-45.71-9.96-12.88-6-24.06-14.3-33.58-24.79-10.64-11.72-18.24-25.21-22.79-40.4-2.47-8.24-3.87-16.65-4.31-25.25-.73-14.19,1.45-27.93,6.29-41.24,4.64-12.75,11.58-24.14,20.69-34.21,11.93-13.19,26.29-22.74,43.03-28.66,9.48-3.36,19.25-5.26,29.32-5.73,15.85-.74,31.18,1.63,45.9,7.56,11.73,4.72,22.23,11.4,31.58,19.94,7.74,7.07,14.22,15.14,19.54,24.14,6.99,11.82,11.38,24.58,13.4,38.15.77,5.19,1.2,10.42,1.17,15.68-.07,10.01-1.51,19.82-4.38,29.41-4.36,14.59-11.5,27.67-21.5,39.14-10.57,12.12-23.27,21.36-38.09,27.69-10.38,4.43-21.17,7.13-32.39,8.12-3.1.27-6.22.54-8.17.41Z"/><path class="cls-1" d="m854.19,345.52c-.2.02-.42.01-.64,0-1.36-.03-2.72-.04-4.08-.02-.83,0-1.66.05-2.49.08-.59.02-1.19.02-1.78.02-1.25.02-2.51.02-3.76.05-.45.01-.88.07-1.34.1-1.03.06-2.15,0-3.11.09-1.23.12-2.53.14-3.78.22-.64.04-1.17.16-1.85.16-.97,0-1.73.16-2.62.21-1.25.06-2.35.21-3.47.33-.91.1-1.87.19-2.74.34-.78.13-1.61.25-2.46.35-.1.01-.23.01-.32.03-1.74.35-3.59.66-5.04,1.1-.56.17-1.06.35-1.59.53-.73.25-1.32.51-1.65.8-.53.46-1.04.94-.76,1.45.11.2.3.39.45.58.82,1.01,3.03,1.81,5.76,2.52.82.21,1.62.45,2.7.58.36.05.69.1,1.09.1.77-.01,1.47.07,2.09.17.75.13,1.54.24,2.3.37.69.11,1.32.24,1.83.41.76.24,1.86.31,2.86.44.97.12,1.98.2,2.98.29.87.08,1.73.19,2.62.25,1.58.11,3.12.28,4.71.35,1.54.07,3.05.18,4.58.26,2.64.14,5.3.2,7.96.27,2.89.07,5.77.12,8.66.12,1,0,2,0,2.99,0,1.75,0,3.5-.02,5.23-.08.88-.03,1.78-.05,2.67-.07,1.16-.03,2.3-.09,3.45-.15,1.85-.08,3.68-.19,5.48-.32,1.49-.11,2.97-.22,4.41-.37,1.5-.15,2.96-.31,4.4-.49,2.72-.34,5.22-.76,7.4-1.3,1.29-.32,2.47-.67,3.31-1.09.85-.42,1.5-.86,1.56-1.37.06-.5.12-1-.46-1.48-.29-.24-.65-.5-1.25-.73-.48-.18-.85-.38-1.35-.56-.19-.07-.36-.14-.57-.21-1.02-.33-2.15-.64-3.39-.91-1.04-.22-2.03-.47-3.27-.63-.21-.03-.39-.03-.58-.04-.74-.04-1.53-.04-2.1-.22-.19-.06-.51-.05-.76-.08-1.09-.13-2.1-.29-2.99-.5-.47-.11-.97-.22-1.46-.33-.22-.05-.48-.07-.76-.08-.47-.02-.96-.05-1.32-.13-.55-.12-1.18-.16-1.8-.19-.83-.04-1.62-.1-2.35-.22-.53-.08-1.11-.1-1.66-.12-1.05-.04-2.07-.11-3.05-.23-.36-.04-.75-.07-1.09-.07-1.5-.04-2.97-.12-4.45-.18-.81-.03-1.62-.08-2.42-.14-.7-.05-1.41-.08-2.1-.09-2.93-.07-5.86-.11-8.79-.16"/></svg>