<?xml version="1.0" encoding="UTF-8"?><svg xmlns="http://www.w3.org/2000/svg" viewBox="0 0 1024 768"><defs><style>.cls-1{stroke-linecap:round;stroke-linejoin:round;}.cls-1,.cls-2{stroke-width:2px;}.cls-1,.cls-2,.cls-3{fill:none;stroke:#bcbcbc;}.cls-2,.cls-3{stroke-miterlimit:10;}.cls-4{fill:#bcbcbc;}.cls-4,.cls-5{stroke-width:0px;}.cls-5{fill:#fff;}</style></defs><g id="Outlines"><path class="cls-2" d="m498.04,621.86c-15.79-.02-29.8-.79-43.13-2.33-12.15-1.4-22.7-3.35-31.68-5.8-10.03-2.74-17.21-5.9-21.5-9.45-2.33-1.93-3.65-3.9-4.07-5.91-.69-3.32,1.37-6.53,5.94-9.65,4.38-2.98,10.92-5.65,19.52-8,11.26-3.09,24.8-5.32,40.6-6.71,8.94-.78,18.16-1.23,27.66-1.34,14.95-.17,29.41.38,43.31,1.77,11.07,1.1,20.97,2.67,29.79,4.67,7.3,1.65,13.42,3.54,18.44,5.65,6.6,2.76,10.73,5.75,12.64,8.93.73,1.21,1.13,2.44,1.1,3.67-.06,2.34-1.43,4.64-4.13,6.88-4.11,3.41-10.85,6.47-20.28,9.16-9.98,2.84-21.95,5-35.94,6.48-9.8,1.04-19.98,1.67-30.56,1.9-2.92.06-5.86.13-7.7.1ZM220.12,338.8c-.02,4.35,3.61,7.77,8.31,7.82,4.02.04,7.77-3.67,7.76-7.68-.01-4.54-3.55-8.15-8.01-8.17-4.58-.02-8.03,3.43-8.06,8.03Zm322.07,93.73c2.3.02,4.09-1.76,4.09-4.09,0-2.11-1.86-3.99-4.04-3.93-2.24.07-3.97,1.48-4.08,3.96-.11,2.25,1.72,4.04,4.03,4.06Zm-328.14-80.49c-4.61.38-8.08,3-8.17,8.14-.07,4.07,3.75,7.69,8.04,7.72,4.31.02,7.97-3.5,8.02-7.72.06-4.46-3.47-8.1-7.9-8.14Zm271.09,92.03c-2.19,0-3.97,1.75-3.99,3.94-.02,2.18,1.81,3.99,4.02,3.98,1.83-.01,4.02-1.43,4-4.09-.01-2.1-1.83-3.81-4.03-3.82Zm-282.79-117.32c4.69.02,7.98-3.33,8.03-8.17.04-3.97-3.62-7.68-7.57-7.68-4.7,0-8.44,3.52-8.41,7.93.03,4.33,3.61,7.9,7.96,7.92Zm-5.25,15.8c.04-4.46-3.35-8.12-7.52-8.13-4.66-.01-8.32,3.48-8.36,7.99-.04,4.23,3.65,7.85,8.03,7.87,4.44.03,7.82-3.3,7.86-7.73Zm89.9-29.18c-4.48.02-7.82,3.44-7.78,7.96.04,4.42,3.55,7.9,7.95,7.88,4.43-.03,7.94-3.61,7.93-8.09-.01-4.31-3.63-7.77-8.09-7.74Zm-50.1,3.42c0,4.43,3.47,7.94,7.86,7.96,4.43.02,8.03-3.48,8.03-7.8,0-4.56-3.47-7.98-8.12-8-4.32-.02-7.78,3.48-7.78,7.84Zm52.99-26c.01,4.57,3.5,7.96,8.15,7.93,4.2-.03,7.71-3.5,7.72-7.64.02-4.63-3.46-8.06-8.19-8.06-4.3,0-7.69,3.43-7.68,7.77Zm177.19,63.6c4.25.08,8.04-3.53,8.07-7.67.03-4.51-3.47-8.15-7.85-8.19-4.3-.03-7.91,3.46-7.99,7.73-.08,4.64,3.17,8.04,7.77,8.12Zm-293.56-29.82c4.53,0,7.87-3.35,7.85-7.86-.02-4.41-3.32-7.82-7.59-7.83-4.7,0-8.25,3.37-8.25,7.85,0,4.31,3.6,7.85,8,7.84Zm48.16-14.29c4.32.04,7.76-3.36,7.92-7.58.14-3.84-3.32-8.16-8.06-8.09-4.39.06-7.81,3.28-7.86,7.59-.06,4.56,3.4,8.05,8.01,8.09Zm98.56,223.28c0,4.5,3.34,7.81,7.89,7.83,4.4.02,7.82-3.41,7.86-7.9.05-4.46-3.64-7.93-8.38-7.89-4.02.03-7.37,3.64-7.37,7.96Zm-51.35-221.94c4.45.01,7.92-3.4,7.99-7.84.06-4-3.2-7.81-6.76-7.74-6,.11-9.1,3.24-9.11,7.7-.02,4.49,3.39,7.87,7.89,7.88Zm-54.4-36.44c.02,4.26,3.67,7.88,7.89,7.81,4.26-.07,7.99-3.81,7.98-8.01,0-4.11-3.31-7.66-7.16-7.7-5.25-.05-8.73,3.1-8.71,7.9Zm-28.88,12.47c.03,4.74,3.33,8.07,7.99,8.02,4.39-.04,7.71-3.44,7.71-7.9,0-4.57-3.22-7.78-7.74-7.72-4.65.07-7.98,3.25-7.95,7.6Zm-9.24-.61c-.02-4.53-3.25-7.91-7.57-7.79-4.6.12-8.21,3.45-8.1,7.86.12,4.45,3.48,7.84,7.98,7.82,4.38-.02,7.72-3.45,7.69-7.89Zm328.64,246.58c-.02-4.52-3.38-7.92-7.82-7.93-4.48,0-8.02,3.37-8.02,7.65,0,4.31,3.9,7.99,8.46,7.97,4.16-.01,7.41-3.4,7.38-7.69Zm-78.05-250.69c4.3.29,7.93-3.17,7.99-7.72.05-4.38-3.51-7.84-7.96-7.88-4.32-.04-7.84,3.46-7.85,7.81-.01,4.34,3.44,7.78,7.82,7.79Zm-130.45-22.95c.02-4.27-3.49-7.62-7.96-7.61-4.44,0-7.85,3.25-7.89,7.52-.04,4.38,3.56,7.99,7.99,8.01,4.36.02,7.83-3.48,7.85-7.92Zm-113.42-2.24c-.03-4.4-3.18-7.66-7.38-7.62-4.68.04-8.27,3.39-8.26,7.7.01,4.43,3.5,7.88,7.94,7.86,4.29-.02,7.73-3.56,7.7-7.93Zm29.14-.18c.05-4.28-3.01-7.55-7.08-7.58-5.2-.03-8.55,2.89-8.59,7.49-.04,4.29,3.37,7.82,7.59,7.91,4.43.09,8.37-3.59,8.08-7.83Zm26.35,4.51c0,4.41,3.48,7.83,7.96,7.82,4.32,0,7.87-3.47,7.89-7.8.02-3.62-3.33-7.6-7.74-7.61-4.8-.02-8.35,3.82-8.11,7.59Zm16.56-21.55c0,4.32,3.59,7.79,8.05,7.78,4.24,0,7.82-3.59,7.78-7.77-.04-4.35-3.37-7.56-7.83-7.55-4.65.01-8,3.17-8,7.54Zm-32.83,249.75c-.01-4.33-3.49-7.73-7.9-7.7-4.47.03-7.79,3.36-7.75,7.79.03,4.3,3.54,7.74,7.92,7.75,4.34,0,7.75-3.45,7.74-7.84Zm8.62-243.04c4.3.02,7.79-3.31,7.9-7.4.13-4.83-3.5-7.79-7.07-7.78-5.82.01-8.39,2.55-8.71,7.48-.28,4.24,3.46,7.68,7.88,7.71Zm337.23,76.08c4.56.06,8.03-3.31,8.08-7.84.05-4.14-3.07-7.38-7.11-7.4-5.16-.02-8.48,2.86-8.52,7.39-.04,4.43,3.19,7.79,7.55,7.85Zm-357.59-105.44c.01,4.34,3.49,7.75,7.88,7.72,4.32-.03,7.9-3.62,7.97-7.96.06-3.58-3.59-7.25-7.2-7.23-5.5.02-8.66,2.75-8.64,7.47Zm58.55,1.61c-.03,4.32,3.45,7.8,7.79,7.82,4.4.01,7.82-3.28,7.86-7.57.04-4.32-3.31-7.64-7.72-7.67-4.56-.03-7.9,3.11-7.93,7.43Zm32.22,24.97c4.5.02,7.79-3.15,7.82-7.52.03-4.41-3.26-7.63-7.82-7.67-4.42-.04-7.77,3.06-7.82,7.23-.05,4.42,3.4,7.94,7.81,7.96Zm-51.56,129.04c.31-3.15-2.85-6.72-6.52-6.59-3.96.14-6.69,2.76-6.65,6.59.04,3.68,2.98,6.68,6.66,6.43,3.38-.23,6.71-2.4,6.5-6.43Zm-1.78-160.41c3.7-.01,6.48-2.63,6.48-6.11,0-3.55-2.86-6.39-6.43-6.37-3.6.01-6.56,2.86-6.56,6.31,0,3.35,2.99,6.18,6.51,6.17Z"/><polyline class="cls-3" points="89.05 463.24 91.56 510.41 129.82 522.37 136.08 708.75 197.11 730.04"/><path class="cls-4" d="m770.78,352.09c-56.71,14-117.09,26.81-174.01,40.68,0,0-.03-.94-.03-.94,14.82,2.31,35.46,5.58,50.03,7.98,0,0,2.94.49,2.94.49-15.89,2.26-37.29,5.44-53.05,7.57,14.1-2.63,35.4-5.67,49.96-8.07,0,0,0,.92,0,.92-14.53-2.19-35.33-5.6-50.04-7.94,0,0-2.46-.4-2.46-.4l2.43-.55,43.58-9.84c43.21-9.64,87.51-21.07,130.65-29.9h0Z"/><path class="cls-2" d="m798.45,183.03c-.01-2.01-1.72-3.58-3.89-3.58-1.86,0-3.58,1.74-3.55,3.6.03,2.1,1.69,3.76,3.76,3.74,2.12-.02,3.7-1.63,3.69-3.77Z"/><path class="cls-2" d="m801.19,176.86c2.13-.2,3.73-1.44,3.74-3.82,0-1.89-1.78-3.54-3.77-3.53-2,.01-3.67,1.66-3.67,3.62,0,2.07,1.65,3.73,3.7,3.73Z"/><path class="cls-2" d="m806.75,188.51c-2.17.02-3.68,1.59-3.67,3.83,0,1.84,1.72,3.54,3.55,3.52,2.18-.03,3.89-1.68,3.85-3.72-.04-2.01-1.71-3.64-3.73-3.62Z"/><path class="cls-2" d="m809.09,181.16c0,2.07,1.59,3.74,3.53,3.73,2.16-.02,3.83-1.66,3.83-3.75,0-1.96-1.73-3.61-3.76-3.6-2.06.01-3.6,1.57-3.6,3.63Z"/><path class="cls-2" d="m767.61,195.17c2.07-.04,3.6-1.64,3.56-3.73-.04-2.05-1.69-3.64-3.73-3.6-2.05.04-3.66,1.72-3.63,3.79.03,2,1.72,3.58,3.79,3.54Z"/><path class="cls-2" d="m790.8,193.31c-.03-2.05-1.65-3.66-3.68-3.64-2.05.02-3.7,1.66-3.68,3.66.02,2.11,1.65,3.68,3.8,3.66,2-.02,3.59-1.65,3.56-3.67Z"/><path class="cls-2" d="m766.39,205.65c-.03-2.12-1.66-3.67-3.82-3.63-1.94.03-3.55,1.66-3.53,3.58.02,2.15,1.65,3.71,3.84,3.69,1.99-.02,3.54-1.63,3.51-3.64Z"/><path class="cls-2" d="m820.11,189.36c-2.1.03-3.63,1.6-3.59,3.68.03,2.04,1.58,3.61,3.56,3.59,2.18-.02,3.8-1.6,3.78-3.68-.02-2-1.71-3.62-3.75-3.59Z"/><path class="cls-2" d="m797.88,196.25c-2,0-3.58,1.6-3.63,3.55-.04,1.78,1.58,3.76,3.78,3.71,2.03-.05,3.6-1.56,3.6-3.56,0-2.11-1.62-3.71-3.75-3.7Z"/><path class="cls-2" d="m776.01,195.89c-2.06.02-3.65,1.62-3.66,3.68,0,1.85,1.53,3.6,3.17,3.55,2.78-.09,4.2-1.55,4.18-3.62-.02-2.08-1.61-3.63-3.7-3.61Z"/><path class="cls-2" d="m801.41,212.47c-.03-1.98-1.74-3.63-3.7-3.57-1.98.06-3.68,1.81-3.65,3.75.03,1.9,1.58,3.53,3.36,3.53,2.43,0,4.03-1.49,3.99-3.71Z"/><path class="cls-2" d="m814.72,206.53c-.04-2.2-1.59-3.72-3.74-3.67-2.03.04-3.55,1.64-3.53,3.7.03,2.12,1.53,3.59,3.63,3.53,2.15-.06,3.68-1.55,3.64-3.56Z"/><path class="cls-2" d="m819,206.76c.04,2.1,1.55,3.64,3.55,3.57,2.13-.08,3.79-1.64,3.71-3.69-.08-2.06-1.66-3.61-3.74-3.58-2.03.03-3.56,1.64-3.52,3.7Z"/><path class="cls-2" d="m763.5,219.96c.01,1.98,1.66,3.51,3.73,3.48,2.06-.03,3.62-1.55,3.61-3.53,0-2.03-1.69-3.68-3.75-3.67-2.02.01-3.61,1.65-3.59,3.71Z"/><path class="cls-2" d="m816.05,220.38c.04,2.04,1.51,3.53,3.46,3.49,2.17-.04,3.81-1.61,3.78-3.61-.03-2.05-1.66-3.63-3.72-3.6-1.99.03-3.56,1.69-3.52,3.72Z"/><path class="cls-2" d="m802.55,220.62c0,1.98,1.44,3.48,3.32,3.47,2.41-.01,3.94-1.38,3.94-3.52,0-1.99-1.6-3.61-3.56-3.62-2.05-.02-3.86,1.71-3.7,3.67Z"/><path class="cls-2" d="m790.32,218.68c-.03-2.04-1.66-3.61-3.73-3.58-2,.03-3.63,1.65-3.61,3.66.01,1.68,1.58,3.5,3.63,3.48,2.22-.02,3.85-1.82,3.71-3.56Z"/><path class="cls-2" d="m782.77,228.75c-.02-2-1.71-3.59-3.77-3.56-1.96.03-3.6,1.7-3.56,3.64.04,2.01,1.6,3.48,3.67,3.45,2.15-.03,3.69-1.51,3.67-3.54Z"/><path class="cls-2" d="m793.95,225.51c-1.99.01-3.59,1.58-3.62,3.47-.04,2.24,1.67,3.59,3.32,3.57,2.7-.04,3.87-1.23,3.99-3.51.1-1.97-1.64-3.54-3.69-3.53Z"/><path class="cls-2" d="m814.75,240.64c-.03-2.01-1.66-3.57-3.69-3.53-2,.04-3.64,1.72-3.65,3.73,0,1.66,1.7,3.34,3.37,3.31,2.55-.04,4-1.32,3.96-3.51Z"/><path class="cls-2" d="m776.41,238.57c-.01-2-1.64-3.6-3.65-3.58-2.04.02-3.6,1.56-3.6,3.55,0,2,1.57,3.52,3.62,3.51,2.11-.01,3.64-1.48,3.63-3.48Z"/><path class="cls-2" d="m761.35,227.18c-2.08.01-3.59,1.5-3.58,3.53.01,2.04,1.55,3.52,3.66,3.51,2.05,0,3.58-1.46,3.58-3.39,0-2.05-1.62-3.66-3.66-3.64Z"/><path class="cls-2" d="m784.52,167.13c-.13,1.46,1.36,3.1,3.05,3.02,1.83-.09,3.08-1.32,3.04-3.09-.04-1.71-1.42-3.08-3.12-2.94-1.57.13-3.1,1.15-2.98,3.02Z"/><path class="cls-2" d="m787.53,243.12c-1.72.03-2.99,1.25-2.97,2.86.02,1.64,1.36,2.94,3.01,2.92,1.67-.03,3.02-1.36,3-2.96-.02-1.55-1.42-2.85-3.05-2.82Z"/><path class="cls-2" d="m798.45,183.03c-.01-2.01-1.72-3.58-3.89-3.58-1.86,0-3.58,1.74-3.55,3.6.03,2.1,1.69,3.76,3.76,3.74,2.12-.02,3.7-1.63,3.69-3.77Z"/><path class="cls-2" d="m801.19,176.86c2.13-.2,3.73-1.44,3.74-3.82,0-1.89-1.78-3.54-3.77-3.53-2,.01-3.67,1.66-3.67,3.62,0,2.07,1.65,3.73,3.7,3.73Z"/><path class="cls-2" d="m806.75,188.51c-2.17.02-3.68,1.59-3.67,3.83,0,1.84,1.72,3.54,3.55,3.52,2.18-.03,3.89-1.68,3.85-3.72-.04-2.01-1.71-3.64-3.73-3.62Z"/><path class="cls-2" d="m809.09,181.16c0,2.07,1.59,3.74,3.53,3.73,2.16-.02,3.83-1.66,3.83-3.75,0-1.96-1.73-3.61-3.76-3.6-2.06.01-3.6,1.57-3.6,3.63Z"/><path class="cls-2" d="m767.61,195.17c2.07-.04,3.6-1.64,3.56-3.73-.04-2.05-1.69-3.64-3.73-3.6-2.05.04-3.66,1.72-3.63,3.79.03,2,1.72,3.58,3.79,3.54Z"/><path class="cls-2" d="m790.8,193.31c-.03-2.05-1.65-3.66-3.68-3.64-2.05.02-3.7,1.66-3.68,3.66.02,2.11,1.65,3.68,3.8,3.66,2-.02,3.59-1.65,3.56-3.67Z"/><path class="cls-2" d="m766.39,205.65c-.03-2.12-1.66-3.67-3.82-3.63-1.94.03-3.55,1.66-3.53,3.58.02,2.15,1.65,3.71,3.84,3.69,1.99-.02,3.54-1.63,3.51-3.64Z"/><path class="cls-2" d="m820.11,189.36c-2.1.03-3.63,1.6-3.59,3.68.03,2.04,1.58,3.61,3.56,3.59,2.18-.02,3.8-1.6,3.78-3.68-.02-2-1.71-3.62-3.75-3.59Z"/><path class="cls-2" d="m797.88,196.25c-2,0-3.58,1.6-3.63,3.55-.04,1.78,1.58,3.76,3.78,3.71,2.03-.05,3.6-1.56,3.6-3.56,0-2.11-1.62-3.71-3.75-3.7Z"/><path class="cls-2" d="m776.01,195.89c-2.06.02-3.65,1.62-3.66,3.68,0,1.85,1.53,3.6,3.17,3.55,2.78-.09,4.2-1.55,4.18-3.62-.02-2.08-1.61-3.63-3.7-3.61Z"/><path class="cls-2" d="m801.41,212.47c-.03-1.98-1.74-3.63-3.7-3.57-1.98.06-3.68,1.81-3.65,3.75.03,1.9,1.58,3.53,3.36,3.53,2.43,0,4.03-1.49,3.99-3.71Z"/><path class="cls-2" d="m814.72,206.53c-.04-2.2-1.59-3.72-3.74-3.67-2.03.04-3.55,1.64-3.53,3.7.03,2.12,1.53,3.59,3.63,3.53,2.15-.06,3.68-1.55,3.64-3.56Z"/><path class="cls-2" d="m819,206.76c.04,2.1,1.55,3.64,3.55,3.57,2.13-.08,3.79-1.64,3.71-3.69-.08-2.06-1.66-3.61-3.74-3.58-2.03.03-3.56,1.64-3.52,3.7Z"/><path class="cls-2" d="m763.5,219.96c.01,1.98,1.66,3.51,3.73,3.48,2.06-.03,3.62-1.55,3.61-3.53,0-2.03-1.69-3.68-3.75-3.67-2.02.01-3.61,1.65-3.59,3.71Z"/><path class="cls-2" d="m816.05,220.38c.04,2.04,1.51,3.53,3.46,3.49,2.17-.04,3.81-1.61,3.78-3.61-.03-2.05-1.66-3.63-3.72-3.6-1.99.03-3.56,1.69-3.52,3.72Z"/><path class="cls-2" d="m802.55,220.62c0,1.98,1.44,3.48,3.32,3.47,2.41-.01,3.94-1.38,3.94-3.52,0-1.99-1.6-3.61-3.56-3.62-2.05-.02-3.86,1.71-3.7,3.67Z"/><path class="cls-2" d="m790.32,218.68c-.03-2.04-1.66-3.61-3.73-3.58-2,.03-3.63,1.65-3.61,3.66.01,1.68,1.58,3.5,3.63,3.48,2.22-.02,3.85-1.82,3.71-3.56Z"/><path class="cls-2" d="m782.77,228.75c-.02-2-1.71-3.59-3.77-3.56-1.96.03-3.6,1.7-3.56,3.64.04,2.01,1.6,3.48,3.67,3.45,2.15-.03,3.69-1.51,3.67-3.54Z"/><path class="cls-2" d="m793.95,225.51c-1.99.01-3.59,1.58-3.62,3.47-.04,2.24,1.67,3.59,3.32,3.57,2.7-.04,3.87-1.23,3.99-3.51.1-1.97-1.64-3.54-3.69-3.53Z"/><path class="cls-2" d="m814.75,240.64c-.03-2.01-1.66-3.57-3.69-3.53-2,.04-3.64,1.72-3.65,3.73,0,1.66,1.7,3.34,3.37,3.31,2.55-.04,4-1.32,3.96-3.51Z"/><path class="cls-2" d="m776.41,238.57c-.01-2-1.64-3.6-3.65-3.58-2.04.02-3.6,1.56-3.6,3.55,0,2,1.57,3.52,3.62,3.51,2.11-.01,3.64-1.48,3.63-3.48Z"/><path class="cls-2" d="m761.35,227.18c-2.08.01-3.59,1.5-3.58,3.53.01,2.04,1.55,3.52,3.66,3.51,2.05,0,3.58-1.46,3.58-3.39,0-2.05-1.62-3.66-3.66-3.64Z"/><path class="cls-2" d="m784.52,167.13c-.13,1.46,1.36,3.1,3.05,3.02,1.83-.09,3.08-1.32,3.04-3.09-.04-1.71-1.42-3.08-3.12-2.94-1.57.13-3.1,1.15-2.98,3.02Z"/><path class="cls-2" d="m779.06,262.78c-1.72.03-2.99,1.25-2.97,2.86.02,1.64,1.36,2.94,3.01,2.92,1.67-.03,3.02-1.36,3-2.96-.02-1.55-1.42-2.85-3.05-2.82Z"/><polyline class="cls-3" points="775.63 265.95 568.43 241.76 568.43 308.53"/><path class="cls-2" d="m248.99,396.05c-16.74-.11-31.58-3.37-45.71-9.96-12.88-6-24.06-14.3-33.58-24.79-10.64-11.72-18.24-25.21-22.79-40.4-2.47-8.24-3.87-16.65-4.31-25.25-.73-14.19,1.45-27.93,6.29-41.24,4.64-12.75,11.58-24.14,20.69-34.21,11.93-13.19,26.29-22.74,43.03-28.66,9.48-3.36,19.25-5.26,29.32-5.73,15.85-.74,31.18,1.63,45.9,7.56,11.73,4.72,22.23,11.4,31.58,19.94,7.74,7.07,14.22,15.14,19.54,24.14,6.99,11.82,11.38,24.58,13.4,38.15.77,5.19,1.2,10.42,1.17,15.68-.07,10.01-1.51,19.82-4.38,29.41-4.36,14.59-11.5,27.67-21.5,39.14-10.57,12.12-23.27,21.36-38.09,27.69-10.38,4.43-21.17,7.13-32.39,8.12-3.1.27-6.22.54-8.17.41Z"/><path class="cls-1" d="m854.19,345.52c-.2.02-.42.01-.64,0-1.36-.03-2.72-.04-4.08-.02-.83,0-1.66.05-2.49.08-.59.02-1.19.02-1.78.02-1.25.02-2.51.02-3.76.05-.45.01-.88.07-1.34.1-1.03.06-2.15,0-3.11.09-1.23.12-2.53.14-3.78.22-.64.04-1.17.16-1.85.16-.97,0-1.73.16-2.62.21-1.25.06-2.35.21-3.47.33-.91.1-1.87.19-2.74.34-.78.13-1.61.25-2.46.35-.1.01-.23.01-.32.03-1.74.35-3.59.66-5.04,1.1-.56.17-1.06.35-1.59.53-.73.25-1.32.51-1.65.8-.53.46-1.04.94-.76,1.45.11.2.3.39.45.58.82,1.01,3.03,1.81,5.76,2.52.82.21,1.62.45,2.7.58.36.05.69.1,1.09.1.77-.01,1.47.07,2.09.17.75.13,1.54.24,2.3.37.69.11,1.32.24,1.83.41.76.24,1.86.31,2.86.44.97.12,1.98.2,2.98.29.87.08,1.73.19,2.62.25,1.58.11,3.12.28,4.71.35,1.54.07,3.05.18,4.58.26,2.64.14,5.3.2,7.96.27,2.89.07,5.77.12,8.66.12,1,0,2,0,2.99,0,1.75,0,3.5-.02,5.23-.08.88-.03,1.78-.05,2.67-.07,1.16-.03,2.3-.09,3.45-.15,1.85-.08,3.68-.19,5.48-.32,1.49-.11,2.97-.22,4.41-.37,1.5-.15,2.96-.31,4.4-.49,2.72-.34,5.22-.76,7.4-1.3,1.29-.32,2.47-.67,3.31-1.09.85-.42,1.5-.86,1.56-1.37.06-.5.12-1-.46-1.48-.29-.24-.65-.5-1.25-.73-.48-.18-.85-.38-1.35-.56-.19-.07-.36-.14-.57-.21-1.02-.33-2.15-.64-3.39-.91-1.04-.22-2.03-.47-3.27-.63-.21-.03-.39-.03-.58-.04-.74-.04-1.53-.04-2.1-.22-.19-.06-.51-.05-.76-.08-1.09-.13-2.1-.29-2.99-.5-.47-.11-.97-.22-1.46-.33-.22-.05-.48-.07-.76-.08-.47-.02-.96-.05-1.32-.13-.55-.12-1.18-.16-1.8-.19-.83-.04-1.62-.1-2.35-.22-.53-.08-1.11-.1-1.66-.12-1.05-.04-2.07-.11-3.05-.23-.36-.04-.75-.07-1.09-.07-1.5-.04-2.97-.12-4.45-.18-.81-.03-1.62-.08-2.42-.14-.7-.05-1.41-.08-2.1-.09-2.93-.07-5.86-.11-8.79-.16"/></g><g id="Fills"><rect class="cls-4" x="88.92" y="496.26" width="3.7" height="3.7" transform="translate(-336.71 226.78) rotate(-47.27)"/><rect class="cls-4" x="545.43" y="616.29" width="4.24" height="4.24" transform="translate(-276.91 568.31) rotate(-45)"/><rect class="cls-4" x="550.15" y="615.49" width="4.24" height="4.24" transform="translate(-274.96 571.41) rotate(-45)"/><rect class="cls-4" x="540.91" y="616.75" width="4.24" height="4.24" transform="translate(-278.56 565.25) rotate(-45)"/><rect class="cls-4" x="605.75" y="244.45" width="3.7" height="3.7" transform="translate(-19.54 437.44) rotate(-39.02)"/><rect class="cls-4" x="611.87" y="245.35" width="3.7" height="3.7" transform="translate(-18.74 441.49) rotate(-39.02)"/><rect class="cls-4" x="88.02" y="469.26" width="2.83" height="2.83" transform="translate(-327.76 235.12) rotate(-49.79)"/><rect class="cls-4" x="128.61" y="527.63" width="2.83" height="2.83" transform="translate(-346.81 265.57) rotate(-47.27)"/><rect class="cls-4" x="251.1" y="393.54" width="4.33" height="4.33" transform="translate(-209.26 313.23) rotate(-47.27)"/><rect class="cls-4" x="247.64" y="183.51" width="4.33" height="4.33" transform="translate(-56.09 243.18) rotate(-47.27)"/><rect class="cls-4" x="246.08" y="393.69" width="4.33" height="4.33" transform="translate(-210.98 309.59) rotate(-47.27)"/><rect class="cls-4" x="134.15" y="693.63" width="2.83" height="2.83" transform="translate(-466.97 322.99) rotate(-47.27)"/><rect class="cls-4" x="133.68" y="683.42" width="2.83" height="2.83" transform="translate(-459.62 319.37) rotate(-47.27)"/><rect class="cls-4" x="129.63" y="572.5" width="4" height="4" rx="2" ry="2"/><rect class="cls-4" x="129.63" y="576.5" width="4" height="4" rx="2" ry="2"/><rect class="cls-4" x="282.27" y="387.24" width="4.5" height="4.5" rx="2.25" ry="2.25"/><rect class="cls-4" x="317.49" y="365.41" width="5" height="5" rx="2.25" ry="2.25"/><rect class="cls-4" x="321.23" y="361.89" width="5" height="5" rx="2.25" ry="2.25"/><rect class="cls-4" x="325.14" y="357.33" width="5" height="5" rx="2.25" ry="2.25"/><rect class="cls-4" x="198.8" y="193.79" width="5" height="5" rx="2.5" ry="2.5"/><rect class="cls-4" x="239" y="183.18" width="5" height="5" rx="2.5" ry="2.5"/><rect class="cls-4" x="194.06" y="196.29" width="5" height="5" rx="2.5" ry="2.5"/><rect class="cls-4" x="163.03" y="354.4" width="5" height="5" rx="2.25" ry="2.25"/><rect class="cls-4" x="167.46" y="359.39" width="5" height="5" rx="2.25" ry="2.25"/><rect class="cls-4" x="351.27" y="296.48" width="4.5" height="4.5" rx="2.25" ry="2.25"/><rect class="cls-4" x="351.27" y="288.63" width="4.5" height="4.5" rx="2.25" ry="2.25"/><rect class="cls-4" x="438.55" y="574.63" width="4" height="4" rx="2" ry="2"/><rect class="cls-4" x="593.55" y="591.68" width="4" height="4" rx="2" ry="2"/><rect class="cls-4" x="594.66" y="595.26" width="4" height="4" rx="2" ry="2"/><rect class="cls-4" x="593.55" y="599.26" width="4" height="4" rx="2" ry="2"/><rect class="cls-4" x="395.53" y="595.26" width="4" height="4" rx="2" ry="2"/><rect class="cls-4" x="396.38" y="591.91" width="4" height="4" rx="2" ry="2"/><rect class="cls-4" x="398.95" y="588.8" width="4" height="4" rx="2" ry="2"/><rect class="cls-4" x="566.43" y="260.17" width="4" height="4" rx="2" ry="2"/><rect class="cls-4" x="566.43" y="275.65" width="4" height="4" rx="2" ry="2"/><rect class="cls-4" x="566.43" y="279.61" width="4" height="4" rx="2" ry="2"/><rect class="cls-4" x="748.53" y="260.85" width="4" height="4" rx="2" ry="2"/><rect class="cls-4" x="762.01" y="261.67" width="5" height="5" rx="2.5" ry="2.5" transform="translate(1488.99 623.89) rotate(-172.66)"/><rect class="cls-4" x="464.74" y="618.11" width="5" height="5" rx="2.5" ry="2.5" transform="translate(1216.3 826.48) rotate(142.34)"/><rect class="cls-4" x="469.97" y="618.72" width="5" height="5" rx="2.5" ry="2.5" transform="translate(1226.05 824.39) rotate(142.34)"/><rect class="cls-4" x="475.74" y="618.72" width="5" height="5" rx="2.5" ry="2.5" transform="translate(1236.38 820.86) rotate(142.34)"/><rect class="cls-4" x="131.09" y="620.61" width="4" height="4" rx="2" ry="2"/><rect class="cls-4" x="131.63" y="638.25" width="4" height="4" rx="2" ry="2"/><rect class="cls-4" x="131.63" y="642.25" width="4" height="4" rx="2" ry="2"/><rect class="cls-4" x="131.63" y="646.25" width="4" height="4" rx="2" ry="2"/><rect class="cls-4" x="174.96" y="721.15" width="4" height="4" rx="2" ry="2"/><rect class="cls-4" x="181.23" y="723.15" width="4" height="4" rx="2" ry="2"/><circle class="cls-4" cx="186.1" cy="205.37" r="3"/><circle class="cls-4" cx="181.59" cy="208.37" r="3"/><circle class="cls-4" cx="494.54" cy="621.86" r="3.5"/><circle class="cls-4" cx="130.35" cy="544.77" r="3.5"/><circle class="cls-4" cx="502.24" cy="621.77" r="3.5"/><circle class="cls-4" cx="515.5" cy="621.22" r="3.5"/><circle class="cls-4" cx="132.01" cy="597.26" r="3"/><circle class="cls-4" cx="675.03" cy="253.82" r="3"/><circle class="cls-4" cx="683.71" cy="255.26" r="3"/><circle class="cls-4" cx="745.53" cy="262.17" r="3"/><circle class="cls-4" cx="340.05" cy="340.83" r="4.94"/><circle class="cls-4" cx="344.99" cy="330.77" r="4.94"/><circle class="cls-4" cx="90.84" cy="490.33" r="4.94"/><circle class="cls-4" cx="340.05" cy="340.83" r="4.94"/><circle class="cls-4" cx="344.99" cy="330.77" r="4.94"/><circle class="cls-5" cx="90.84" cy="490.33" r="4.94"/><circle class="cls-4" cx="856.39" cy="358.05" r="4.94"/><circle class="cls-4" cx="864.61" cy="357.97" r="4.94"/><rect class="cls-4" x="817.56" y="344.27" width="5" height="5" rx="2.5" ry="2.5" transform="translate(1589.08 795.52) rotate(-172.66)"/><rect class="cls-4" x="822.68" y="343.55" width="5" height="5" rx="2.5" ry="2.5" transform="translate(1599.37 794.74) rotate(-172.66)"/><rect class="cls-4" x="885.89" y="344.75" width="5" height="5" rx="2.5" ry="2.5" transform="translate(1725.12 805.19) rotate(-172.66)"/><rect class="cls-4" x="881.33" y="344.11" width="5" height="5" rx="2.5" ry="2.5" transform="translate(1716.11 803.33) rotate(-172.66)"/><rect class="cls-4" x="896.79" y="347.42" width="5" height="5" rx="2.5" ry="2.5" transform="translate(1746.48 811.92) rotate(-172.66)"/><rect class="cls-4" x="899.73" y="350.31" width="5" height="5" rx="2.5" ry="2.5" transform="translate(1751.96 818.04) rotate(-172.66)"/><rect class="cls-4" x="896.21" y="351.89" width="5" height="5" rx="2.5" ry="2.5" transform="translate(1744.76 820.74) rotate(-172.66)"/><rect class="cls-4" x="616.13" y="385.33" width="4" height="4" rx="2" ry="2" transform="translate(230.8 1005.46) rotate(-90)"/><rect class="cls-4" x="607.59" y="403.82" width="4" height="4" rx="2" ry="2" transform="translate(203.77 1015.41) rotate(-90)"/><rect class="cls-4" x="619.85" y="384.36" width="4" height="4" rx="2" ry="2" transform="translate(235.49 1008.21) rotate(-90)"/><rect class="cls-4" x="633.3" y="381.33" width="4" height="4" rx="2" ry="2" transform="translate(251.97 1018.63) rotate(-90)"/><rect class="cls-4" x="647.84" y="377.93" width="4" height="4" rx="2" ry="2" transform="translate(269.9 1029.77) rotate(-90)"/><rect class="cls-4" x="653.99" y="376.58" width="4" height="4" rx="2" ry="2" transform="translate(277.41 1034.57) rotate(-90)"/><rect class="cls-4" x="738.53" y="356.78" width="4" height="4" rx="2" ry="2" transform="translate(381.76 1099.31) rotate(-90)"/><rect class="cls-4" x="767.66" y="350.04" width="4" height="4" rx="2" ry="2" transform="translate(417.61 1121.7) rotate(-90)"/><rect class="cls-4" x="763.41" y="351.41" width="4" height="4" rx="2" ry="2" transform="translate(412 1118.83) rotate(-90)"/><rect class="cls-4" x="756.93" y="352.85" width="4" height="4" rx="2" ry="2" transform="translate(404.08 1113.79) rotate(-90)"/><circle class="cls-4" cx="665.59" cy="376.4" r=".85"/><rect class="cls-4" x="690.54" y="364" width="8.6" height="8.6" rx="4.3" ry="4.3" transform="translate(265.74 1027.34) rotate(-84.86)"/><rect class="cls-4" x="698.38" y="362.5" width="8.6" height="8.6" rx="4.3" ry="4.3" transform="translate(274.38 1033.78) rotate(-84.86)"/><rect class="cls-4" x="705.94" y="361.07" width="8.6" height="8.6" rx="4.3" ry="4.3" transform="translate(282.68 1040.01) rotate(-84.86)"/></g></svg>