<?xml version="1.0" encoding="UTF-8"?><svg xmlns="http://www.w3.org/2000/svg" viewBox="0 0 1024 768"><defs><style>.cls-1{stroke-width:1.5px;}.cls-1,.cls-2,.cls-3,.cls-4,.cls-5,.cls-6{stroke-miterlimit:10;}.cls-1,.cls-2,.cls-3,.cls-5,.cls-6{fill:none;stroke:#bcbcbc;}.cls-2{stroke-width:.74px;}.cls-3{stroke-width:.75px;}.cls-4{stroke:#fff;}.cls-4,.cls-7{fill:#bcbcbc;}.cls-5{stroke-width:2px;}.cls-7{stroke-width:0px;}</style></defs><g id="Background"><path class="cls-7" d="m712.44,326.8c-25.43.41-50.34-15.12-60.21-38.75-18.13-41.84,13.55-89.38,58.95-89.58,30.37-.86,58.27,21.15,64.15,51.03,8.63,39.76-22.53,77.21-62.89,77.3h0Zm0-.15c44.98-.44,75.31-47.45,57.66-88.66-9.56-23.25-33.79-39.07-58.92-38.69-34.5-.85-64.13,29.7-62.85,64.04.34,34.75,29.19,63.67,64.11,63.32h0Z"/><line class="cls-1" x1="431.59" y1="408.52" x2="431.59" y2="678.87"/><line class="cls-1" x1="981.07" y1="495.4" x2="710.72" y2="522.32"/><path class="cls-7" d="m350.95,138.12c-68-3.79-144.23-9.13-212.1-14.87,68.01,3.78,144.23,9.13,212.1,14.87h0Z"/><line class="cls-1" x1="673.27" y1="540.9" x2="847.36" y2="523.56"/><path class="cls-1" d="m712.36,318.24c-8.82-.06-16.64-1.77-24.09-5.25-6.79-3.16-12.68-7.54-17.7-13.06-5.61-6.18-9.61-13.29-12.01-21.29-1.3-4.34-2.04-8.78-2.27-13.31-.38-7.48.76-14.72,3.32-21.74,2.45-6.72,6.1-12.72,10.9-18.03,6.29-6.95,13.85-11.98,22.68-15.11,4.99-1.77,10.15-2.77,15.45-3.02,8.35-.39,16.43.86,24.19,3.98,6.18,2.49,11.72,6.01,16.64,10.51,4.08,3.73,7.49,7.98,10.3,12.72,3.69,6.23,6,12.96,7.06,20.11.41,2.74.63,5.49.61,8.26-.04,5.28-.8,10.45-2.31,15.5-2.3,7.69-6.06,14.59-11.33,20.63-5.57,6.39-12.26,11.26-20.08,14.6-5.47,2.34-11.16,3.76-17.07,4.28-1.63.14-3.28.28-4.3.22Z"/><path class="cls-7" d="m712.28,310.44c-18.94.35-37.23-11.45-44.64-28.92-16.91-39.73,22.18-79.47,62.27-63.6,11.8,4.67,21.51,14.25,26.35,25.96,13.23,31.25-10.12,66.47-43.98,66.56h0Zm0,0c33.71-.26,56.58-35.27,43.03-66.15-4.92-11.32-14.41-20.58-25.91-25.07-39.13-15.19-77.25,23.14-61.32,62.13,7.07,17.54,25.36,29.34,44.2,29.1h0Z"/><path class="cls-1" d="m712.19,301.18c-6.11-.04-11.52-1.23-16.68-3.63-4.7-2.19-8.78-5.22-12.25-9.04-3.88-4.28-6.65-9.2-8.31-14.74-.9-3.01-1.41-6.07-1.57-9.21-.27-5.18.53-10.19,2.3-15.05,1.69-4.65,4.22-8.81,7.55-12.48,4.35-4.81,9.59-8.29,15.7-10.46,3.46-1.22,7.02-1.92,10.69-2.09,5.78-.27,11.37.59,16.75,2.76,4.28,1.72,8.11,4.16,11.52,7.28,2.82,2.58,5.19,5.52,7.13,8.81,2.55,4.31,4.15,8.97,4.89,13.92.28,1.89.44,3.8.43,5.72-.03,3.65-.55,7.23-1.6,10.73-1.59,5.32-4.19,10.1-7.84,14.28-3.86,4.42-8.49,7.79-13.9,10.1-3.79,1.62-7.72,2.6-11.82,2.96-1.13.1-2.27.2-2.98.15Z"/><path class="cls-1" d="m351.46,650.57c-1.31,6.15-3.64,11.36-7.14,16.06-3.19,4.28-7.09,7.76-11.67,10.47-5.12,3.02-10.66,4.79-16.6,5.31-3.22.28-6.42.16-9.62-.33-5.28-.81-10.17-2.66-14.7-5.45-4.34-2.68-8-6.09-11.01-10.21-3.95-5.39-6.37-11.4-7.27-18.01-.51-3.74-.47-7.48.12-11.22.93-5.89,2.97-11.35,6.27-16.32,2.63-3.96,5.88-7.31,9.74-10.1,3.19-2.31,6.65-4.08,10.37-5.35,4.88-1.67,9.91-2.32,15.06-2.03,1.97.11,3.93.35,5.86.76,3.68.79,7.18,2.06,10.49,3.85,5.04,2.71,9.31,6.33,12.77,10.89,3.66,4.81,6.09,10.19,7.29,16.12.84,4.16,1.01,8.33.53,12.53-.14,1.16-.28,2.33-.47,3.04Z"/><path class="cls-1" d="m346.32,649.56c-1.14,5.33-3.16,9.86-6.19,13.93-2.76,3.71-6.15,6.73-10.12,9.08-4.44,2.62-9.25,4.16-14.4,4.61-2.79.24-5.57.14-8.34-.29-4.58-.7-8.82-2.3-12.75-4.73-3.76-2.32-6.94-5.29-9.55-8.86-3.42-4.68-5.52-9.89-6.31-15.62-.45-3.25-.41-6.49.1-9.73.81-5.1,2.58-9.84,5.44-14.15,2.28-3.43,5.1-6.34,8.45-8.76,2.77-2,5.77-3.54,8.99-4.64,4.23-1.45,8.59-2.01,13.06-1.76,1.71.1,3.41.3,5.08.66,3.19.68,6.22,1.79,9.1,3.34,4.37,2.35,8.07,5.49,11.07,9.44,3.17,4.17,5.28,8.83,6.32,13.98.73,3.61.88,7.23.46,10.87-.12,1.01-.24,2.02-.41,2.63Z"/><path class="cls-1" d="m341.58,648.63c-.98,4.58-2.71,8.47-5.32,11.97-2.38,3.19-5.28,5.79-8.7,7.8-3.82,2.25-7.95,3.57-12.37,3.96-2.4.21-4.78.12-7.17-.25-3.93-.6-7.58-1.98-10.95-4.06-3.23-1.99-5.96-4.54-8.21-7.61-2.94-4.02-4.74-8.5-5.42-13.42-.38-2.79-.35-5.58.09-8.36.7-4.39,2.21-8.46,4.67-12.16,1.96-2.95,4.38-5.45,7.26-7.53,2.38-1.72,4.96-3.04,7.73-3.99,3.64-1.25,7.38-1.73,11.22-1.51,1.47.08,2.93.26,4.36.57,2.74.59,5.35,1.54,7.82,2.87,3.75,2.02,6.94,4.72,9.51,8.11,2.72,3.59,4.54,7.59,5.43,12.01.63,3.1.76,6.21.39,9.34-.1.86-.21,1.73-.35,2.26Z"/><path class="cls-1" d="m335.97,647.52c-.79,3.69-2.19,6.82-4.29,9.64-1.91,2.57-4.26,4.66-7.01,6.28-3.07,1.81-6.4,2.88-9.96,3.19-1.93.17-3.85.09-5.77-.2-3.17-.49-6.1-1.6-8.82-3.27-2.6-1.61-4.8-3.66-6.61-6.13-2.37-3.24-3.82-6.84-4.37-10.81-.31-2.25-.28-4.49.07-6.74.56-3.53,1.78-6.81,3.76-9.79,1.58-2.38,3.53-4.39,5.85-6.06,1.92-1.39,3.99-2.45,6.22-3.21,2.93-1.01,5.95-1.39,9.04-1.22,1.18.07,2.36.21,3.52.46,2.21.47,4.31,1.24,6.3,2.31,3.02,1.63,5.59,3.8,7.66,6.53,2.19,2.89,3.66,6.11,4.38,9.68.51,2.5.61,5,.32,7.52-.08.7-.17,1.4-.28,1.82Z"/><path class="cls-2" d="m854.96,307.02c-.75,15.52-11.95,27.51-27.47,26.76l.73-56.23c15.52.75,27.49,13.95,26.74,29.47Z"/><path class="cls-1" d="m311.69,660.42c-8.39-.15-15.05-6-14.9-14.39l30.37-.53c-.15,8.39-7.08,15.07-15.47,14.92Z"/><path class="cls-5" d="m346.74,603.93c-2.43,11.37-6.73,21-13.19,29.68-5.89,7.91-13.1,14.35-21.57,19.35-9.46,5.58-19.71,8.86-30.67,9.82-5.95.52-11.87.29-17.77-.62-9.75-1.5-18.79-4.91-27.16-10.08-8.02-4.95-14.79-11.26-20.36-18.88-7.29-9.97-11.77-21.07-13.44-33.29-.95-6.92-.87-13.83.22-20.74,1.73-10.88,5.49-20.97,11.59-30.15,4.86-7.31,10.87-13.51,18-18.67,5.9-4.27,12.29-7.54,19.16-9.9,9.02-3.09,18.31-4.28,27.83-3.75,3.64.2,7.26.65,10.83,1.41,6.8,1.45,13.26,3.82,19.39,7.11,9.31,5.01,17.2,11.71,23.59,20.12,6.76,8.89,11.26,18.82,13.48,29.79,1.55,7.68,1.88,15.4.97,23.17-.25,2.14-.51,4.3-.87,5.61Z"/><path class="cls-5" d="m874.48,314.28c-2.43,11.37-6.73,21-13.19,29.68-5.89,7.91-13.1,14.35-21.57,19.35-9.46,5.58-19.71,8.86-30.67,9.82-5.95.52-11.87.29-17.77-.62-9.75-1.5-18.79-4.91-27.16-10.08-8.02-4.95-14.79-11.26-20.36-18.88-7.29-9.97-11.77-21.07-13.44-33.29-.95-6.92-.87-13.83.22-20.74,1.73-10.88,5.49-20.97,11.59-30.15,4.86-7.31,10.87-13.51,18-18.67,5.9-4.27,12.29-7.54,19.16-9.9,9.02-3.09,18.31-4.28,27.83-3.75,3.64.2,7.26.65,10.83,1.41,6.8,1.45,13.26,3.82,19.39,7.11,9.31,5.01,17.2,11.71,23.59,20.12,6.76,8.89,11.26,18.82,13.48,29.79,1.55,7.68,1.88,15.4.97,23.17-.25,2.14-.51,4.3-.87,5.61Z"/><polygon class="cls-3" points="431.84 392.71 405.17 438.89 458.5 438.89 431.84 392.71"/><polygon class="cls-6" points="581.57 375.65 554.91 329.47 608.24 329.47 581.57 375.65"/><polygon class="cls-6" points="581.57 359.05 554.91 312.87 608.24 312.87 581.57 359.05"/><polygon class="cls-6" points="581.57 341.88 554.91 295.7 608.24 295.7 581.57 341.88"/><polygon class="cls-3" points="431.59 427.29 404.93 473.47 458.25 473.47 431.59 427.29"/></g><g id="Lines"><polygon class="cls-3" points="431.59 441.82 404.93 488 458.25 488 431.59 441.82"/><polygon class="cls-1" points="898.93 365.44 809.3 351.75 812.98 237.82 905.61 229.9 898.93 365.44"/><polygon class="cls-7" points="179.5 183.7 178.5 485.57 177.5 183.7 179.5 183.7 179.5 183.7"/><line class="cls-5" x1="312.78" y1="410.83" x2="398.88" y2="505.32"/><polyline class="cls-1" points="396.01 453.83 355.83 415.65 709.04 399.49"/></g><g id="Fills"><circle class="cls-7" cx="721.18" cy="326.74" r="3.54"/><circle class="cls-7" cx="711.83" cy="326.74" r="5.45"/><circle class="cls-7" cx="319.14" cy="417.81" r="3"/><circle class="cls-7" cx="322.99" cy="422.03" r="3"/><circle class="cls-7" cx="331.89" cy="431.83" r="3.46"/><ellipse class="cls-7" cx="341.85" cy="442.76" rx="3.46" ry="2.13" transform="translate(-205.91 329.38) rotate(-40.63)"/><ellipse class="cls-7" cx="344.94" cy="446.15" rx="3.46" ry="2.13" transform="translate(-207.37 332.21) rotate(-40.63)"/><ellipse class="cls-7" cx="348.12" cy="449.41" rx="3.46" ry="2.13" transform="translate(-208.73 335.06) rotate(-40.63)"/><ellipse class="cls-7" cx="386.73" cy="492.27" rx="3.46" ry="2.13" transform="translate(-227.33 370.54) rotate(-40.63)"/><ellipse class="cls-7" cx="378.75" cy="482.97" rx="3.46" ry="2.13" transform="translate(-223.2 363.1) rotate(-40.63)"/><rect class="cls-7" x="715.47" y="196.71" width="4.33" height="4.33" transform="translate(84.6 591.06) rotate(-47.27)"/><rect class="cls-7" x="772.38" y="272.36" width="5" height="5" rx="2.5" ry="2.5"/><rect class="cls-7" x="706.83" y="196.37" width="5" height="5" rx="2.5" ry="2.5"/><rect class="cls-7" x="743.72" y="313.79" width="5" height="5" rx="2.5" ry="2.5"/><rect class="cls-7" x="429.34" y="621.04" width="4.5" height="4.5" rx="2.25" ry="2.25"/><rect class="cls-7" x="753.12" y="515.73" width="4.5" height="4.5" rx="2.25" ry="2.25" transform="translate(-47.61 77.41) rotate(-5.69)"/><rect class="cls-7" x="429.34" y="577.55" width="4.5" height="4.5" rx="2.25" ry="2.25"/><rect class="cls-7" x="429.34" y="551.12" width="4.5" height="4.5" rx="2.25" ry="2.25"/><rect class="cls-7" x="176.25" y="470.96" width="4.5" height="4.5" rx="2.25" ry="2.25"/><rect class="cls-7" x="307.6" y="601.36" width="4.5" height="4.5" rx="2.25" ry="2.25" transform="translate(-343.98 784.87) rotate(-78.32)"/><rect class="cls-7" x="310.75" y="601" width="4.5" height="4.5" rx="2.25" ry="2.25" transform="translate(-341.12 787.66) rotate(-78.32)"/><rect class="cls-7" x="314.6" y="601.8" width="4.5" height="4.5" rx="2.25" ry="2.25" transform="translate(-338.83 792.06) rotate(-78.32)"/><rect class="cls-7" x="176.25" y="466.46" width="4.5" height="4.5" rx="2.25" ry="2.25"/><rect class="cls-7" x="176.25" y="461.96" width="4.5" height="4.5" rx="2.25" ry="2.25"/><rect class="cls-7" x="299.54" y="644.14" width="4.5" height="4.5" rx="2.25" ry="2.25" transform="translate(-392.3 811.09) rotate(-78.32)"/><rect class="cls-7" x="199.12" y="125.38" width="4.5" height="4.5" rx="2.25" ry="2.25"/><rect class="cls-7" x="221.41" y="126.94" width="4.5" height="4.5" rx="2.25" ry="2.25"/><rect class="cls-7" x="279.36" y="131.12" width="4.5" height="4.5" rx="2.25" ry="2.25"/><rect class="cls-7" x="329.64" y="134.53" width="4.5" height="4.5" rx="2.25" ry="2.25"/><rect class="cls-7" x="283.4" y="131.23" width="4.5" height="4.5" rx="2.25" ry="2.25"/><rect class="cls-7" x="809.88" y="251.26" width="4.5" height="4.5" rx="2.25" ry="2.25"/><rect class="cls-7" x="809.88" y="255.22" width="4.5" height="4.5" rx="2.25" ry="2.25"/><rect class="cls-7" x="809.88" y="264.94" width="4.5" height="4.5" rx="2.25" ry="2.25"/><rect class="cls-7" x="809.88" y="270.34" width="4.5" height="4.5" rx="2.25" ry="2.25"/><rect class="cls-7" x="809.88" y="280.09" width="3" height="3" rx="1.5" ry="1.5"/><rect class="cls-7" x="809.88" y="280.45" width="3" height="3" rx="1.5" ry="1.5"/><rect class="cls-7" x="809.88" y="285.13" width="3" height="3" rx="1.5" ry="1.5"/><rect class="cls-7" x="809.88" y="294.13" width="3" height="3" rx="1.5" ry="1.5"/><rect class="cls-7" x="323.34" y="134.12" width="4.5" height="4.5" rx="2.25" ry="2.25"/><rect class="cls-7" x="287.47" y="131.53" width="4.5" height="4.5" rx="2.25" ry="2.25"/><rect class="cls-7" x="308.19" y="644.57" width="3" height="3" rx="1.5" ry="1.5" transform="translate(-385.69 818.58) rotate(-78.32)"/><rect class="cls-7" x="311.11" y="644.56" width="3" height="3" rx="1.5" ry="1.5" transform="translate(-383.35 821.42) rotate(-78.32)"/><rect class="cls-7" x="322.52" y="644.09" width="3" height="3" rx="1.5" ry="1.5" transform="translate(-373.8 832.23) rotate(-78.32)"/><rect class="cls-7" x="176.25" y="417.08" width="4.5" height="4.5" rx="2.25" ry="2.25"/><rect class="cls-7" x="176.25" y="409.82" width="4.5" height="4.5" rx="2.25" ry="2.25"/><rect class="cls-7" x="765.89" y="514.46" width="4.5" height="4.5" rx="2.25" ry="2.25" transform="translate(-47.42 78.67) rotate(-5.69)"/><rect class="cls-7" x="176.25" y="335.26" width="4.5" height="4.5" rx="2.25" ry="2.25" transform="translate(75.57 -30.16) rotate(12.23)"/><rect class="cls-7" x="779.76" y="512.97" width="4.5" height="4.5" rx="2.25" ry="2.25" transform="translate(1383.01 -202.96) rotate(96.55)"/><rect class="cls-7" x="824.8" y="508.48" width="4.5" height="4.5" rx="2.25" ry="2.25" transform="translate(1428.73 -252.71) rotate(96.55)"/><rect class="cls-7" x="833.54" y="507.61" width="4.5" height="4.5" rx="2.25" ry="2.25" transform="translate(1437.61 -262.36) rotate(96.55)"/><rect class="cls-7" x="844.78" y="506.5" width="4.5" height="4.5" rx="2.25" ry="2.25" transform="translate(1449.01 -274.77) rotate(96.55)"/><rect class="cls-7" x="865.34" y="504.45" width="4.5" height="4.5" rx="2.25" ry="2.25" transform="translate(1469.88 -297.48) rotate(96.55)"/><rect class="cls-7" x="868.12" y="504.17" width="4.5" height="4.5" rx="2.25" ry="2.25" transform="translate(1472.7 -300.55) rotate(96.55)"/><rect class="cls-7" x="872.24" y="503.76" width="4.5" height="4.5" rx="2.25" ry="2.25" transform="translate(1476.88 -305.1) rotate(96.55)"/><rect class="cls-7" x="176.25" y="282.45" width="4.5" height="4.5" rx="2.25" ry="2.25" transform="translate(64.37 -31.36) rotate(12.23)"/><rect class="cls-7" x="176.25" y="200.76" width="4.5" height="4.5" rx="2.25" ry="2.25" transform="translate(47.07 -33.21) rotate(12.23)"/><rect class="cls-7" x="176.25" y="196.98" width="4.5" height="4.5" rx="2.25" ry="2.25" transform="translate(46.26 -33.3) rotate(12.23)"/><rect class="cls-7" x="677.31" y="555.88" width="4.5" height="4.5" rx="2.25" ry="2.25" transform="translate(-104.62 160.18) rotate(-12.49)"/><rect class="cls-7" x="686.04" y="536.79" width="4.5" height="4.5" rx="2.25" ry="2.25" transform="translate(-50.03 70.86) rotate(-5.69)"/><rect class="cls-7" x="690.52" y="536.34" width="4.5" height="4.5" rx="2.25" ry="2.25" transform="translate(-49.96 71.3) rotate(-5.69)"/><rect class="cls-7" x="694.99" y="535.9" width="4.5" height="4.5" rx="2.25" ry="2.25" transform="translate(-49.9 71.75) rotate(-5.69)"/><rect class="cls-7" x="731.95" y="532.22" width="4.5" height="4.5" rx="2.25" ry="2.25" transform="translate(-49.35 75.39) rotate(-5.69)"/><rect class="cls-7" x="828" y="352.56" width="4.5" height="4.5" rx="2.25" ry="2.25"/><rect class="cls-7" x="862.5" y="357.76" width="4.5" height="4.5" rx="2.25" ry="2.25"/><rect class="cls-7" x="779.42" y="528.04" width="4.5" height="4.5" rx="2.25" ry="2.25" transform="translate(-48.7 80.07) rotate(-5.69)"/><rect class="cls-7" x="784.32" y="527.55" width="4.5" height="4.5" rx="2.25" ry="2.25" transform="translate(-48.63 80.56) rotate(-5.69)"/><rect class="cls-7" x="788.8" y="527.1" width="4.5" height="4.5" rx="2.25" ry="2.25" transform="translate(-48.56 81) rotate(-5.69)"/><rect class="cls-7" x="805.87" y="525.4" width="4.5" height="4.5" rx="2.25" ry="2.25" transform="translate(-48.31 82.68) rotate(-5.69)"/><rect class="cls-7" x="822.99" y="523.7" width="4.5" height="4.5" rx="2.25" ry="2.25" transform="translate(-48.06 84.37) rotate(-5.69)"/><rect class="cls-7" x="388.49" y="494.13" width="4.5" height="4.5" rx="2.25" ry="2.25" transform="translate(-84.89 80.63) rotate(-10.63)"/><circle class="cls-7" cx="431.25" cy="633.58" r="4.94"/><circle class="cls-7" cx="840.25" cy="281.52" r="2.91"/><circle class="cls-7" cx="844.07" cy="284.43" r="2.91"/><circle class="cls-7" cx="847.8" cy="288.03" r="2.91"/><circle class="cls-7" cx="900.66" cy="321.29" r="2.91"/><circle class="cls-7" cx="903.57" cy="269.44" r="2.91"/><polygon class="cls-7" points="942.13 499.27 938.38 503.85 937.55 495.53 942.13 499.27"/><polygon class="cls-7" points="948.14 498.68 944.39 503.25 943.56 494.93 948.14 498.68"/><polygon class="cls-7" points="968.89 496.61 965.14 501.18 964.32 492.86 968.89 496.61"/><circle class="cls-7" cx="904.86" cy="248.35" r="2.91"/><circle class="cls-7" cx="904.86" cy="241.46" r="1.79"/><circle class="cls-7" cx="900.66" cy="325.3" r="2.91"/><circle class="cls-7" cx="900.1" cy="335.3" r="2.91"/><circle class="cls-7" cx="899.57" cy="349.32" r="2.91"/><circle class="cls-7" cx="431.59" cy="469.81" r="2.5"/><circle class="cls-7" cx="435.77" cy="488" r="2.5"/><circle class="cls-7" cx="439.19" cy="488" r="2.5"/><circle class="cls-7" cx="442.61" cy="488" r="2.5"/><circle class="cls-7" cx="446.28" cy="488" r="2.5"/><circle class="cls-7" cx="420.57" cy="412.35" r="2.5"/><circle class="cls-7" cx="423.07" cy="408.31" r="2.5"/><circle class="cls-7" cx="428.06" cy="398.79" r="2.5"/><circle class="cls-7" cx="431.59" cy="488" r="2.5"/><circle class="cls-7" cx="431.59" cy="460.57" r="2.5"/><circle class="cls-7" cx="431.59" cy="447.29" r="2.5"/><circle class="cls-7" cx="463.69" cy="410.81" r="2.5"/><circle class="cls-7" cx="492.14" cy="409.85" r="2.5"/><circle class="cls-7" cx="565.03" cy="312.87" r="2.5"/><circle class="cls-7" cx="581.57" cy="312.87" r="2.5"/><circle class="cls-7" cx="582.39" cy="295.7" r="2.5"/><circle class="cls-7" cx="586.56" cy="295.7" r="2.5"/><circle class="cls-7" cx="599.09" cy="295.7" r=".85"/><circle class="cls-7" cx="601.13" cy="295.7" r=".85"/><circle class="cls-7" cx="603.3" cy="295.7" r=".85"/><circle class="cls-7" cx="605.43" cy="295.7" r=".85"/><circle class="cls-7" cx="606.66" cy="298.2" r=".85"/><circle class="cls-7" cx="606.19" cy="299.05" r=".85"/><circle class="cls-7" cx="605.62" cy="300.17" r=".85"/><circle class="cls-7" cx="586.56" cy="312.87" r="2.5"/><circle class="cls-7" cx="591.56" cy="312.87" r="2.5"/><circle class="cls-7" cx="594.91" cy="353.32" r="1.68"/><circle class="cls-7" cx="584.07" cy="371.01" r="1.68"/><circle class="cls-7" cx="598.27" cy="347.2" r="1.68"/><circle class="cls-7" cx="603.3" cy="338.31" r="1.68"/><circle class="cls-7" cx="606.66" cy="332.32" r="1.68"/><circle class="cls-7" cx="601.62" cy="341.09" r="1.68"/><circle class="cls-7" cx="610.27" cy="403.78" r="2.5"/><circle class="cls-7" cx="614.59" cy="403.78" r="2.5"/><circle class="cls-7" cx="618.59" cy="403.78" r="2.5"/><circle class="cls-7" cx="623.3" cy="403.78" r="2.5"/><circle class="cls-7" cx="431.59" cy="439.71" r="2.5"/><circle class="cls-7" cx="431.59" cy="424.78" r="2.5"/><circle class="cls-7" cx="407.07" cy="413.3" r="2.5"/><circle class="cls-7" cx="453.5" cy="410.81" r="3.45"/><rect class="cls-7" x="711.9" y="213.56" width="4" height="4" rx="2" ry="2" transform="translate(62.56 -147.58) rotate(12.34)"/><rect class="cls-7" x="686.61" y="210.08" width="4" height="4" rx="2" ry="2" transform="translate(61.23 -142.26) rotate(12.34)"/><rect class="cls-7" x="729.52" y="227.71" width="4" height="4" rx="2" ry="2" transform="translate(65.99 -151.02) rotate(12.34)"/><rect class="cls-7" x="732.95" y="229.71" width="4" height="4" rx="2" ry="2" transform="translate(66.5 -151.71) rotate(12.34)"/><rect class="cls-7" x="736.08" y="232.33" width="4" height="4" rx="2" ry="2" transform="translate(67.13 -152.32) rotate(12.34)"/><rect class="cls-7" x="739.72" y="236.55" width="4" height="4" rx="2" ry="2" transform="translate(68.11 -153) rotate(12.34)"/><rect class="cls-7" x="755.6" y="305.69" width="4" height="4" rx="2" ry="2" transform="translate(83.26 -154.79) rotate(12.34)"/><rect class="cls-7" x="768.38" y="286.03" width="4" height="4" rx="2" ry="2" transform="translate(79.35 -157.98) rotate(12.34)"/><rect class="cls-7" x="761.32" y="299.19" width="4" height="4" rx="2" ry="2" transform="translate(82 -156.17) rotate(12.34)"/><rect class="cls-7" x="758.23" y="302.71" width="4" height="4" rx="2" ry="2" transform="translate(82.68 -155.43) rotate(12.34)"/><circle class="cls-7" cx="748.72" cy="252.26" r=".85"/><circle class="cls-7" cx="716.38" cy="300.78" r=".85"/><circle class="cls-7" cx="726.58" cy="298.11" r=".85"/><circle class="cls-7" cx="740.05" cy="288.89" r=".85"/><circle class="cls-7" cx="749.21" cy="253.87" r=".85"/><circle class="cls-7" cx="352.57" cy="645.28" r="2.19"/><circle class="cls-7" cx="351.4" cy="650.94" r="3.37"/><rect class="cls-7" x="288.12" y="636.8" width="2.68" height="2.68" transform="translate(-61.02 1244.91) rotate(-125.59)"/><rect class="cls-7" x="289.58" y="631.95" width="3.09" height="3.09" rx="1.55" ry="1.55" transform="translate(-388.18 790.37) rotate(-78.32)"/><rect class="cls-7" x="304.98" y="618.17" width="3.09" height="3.09" rx="1.55" ry="1.55" transform="translate(-362.41 794.45) rotate(-78.32)"/><rect class="cls-7" x="309.38" y="617.74" width="3.09" height="3.09" rx="1.55" ry="1.55" transform="translate(-358.48 798.42) rotate(-78.32)"/><rect class="cls-7" x="319.6" y="619.3" width="3.09" height="3.09" rx="1.55" ry="1.55" transform="translate(-351.86 809.67) rotate(-78.32)"/><rect class="cls-7" x="330.01" y="626.95" width="3.09" height="3.09" rx="1.55" ry="1.55" transform="translate(-269.83 249.98) rotate(-30)"/><rect class="cls-7" x="334.17" y="636.18" width="3.09" height="3.09" rx="1.55" ry="1.55" transform="translate(-273.88 253.3) rotate(-30)"/><rect class="cls-7" x="347.83" y="627.27" width="3.09" height="3.09" rx="1.55" ry="1.55" transform="translate(-337.14 843.67) rotate(-78.32)"/><rect class="cls-7" x="283.11" y="634.54" width="2.47" height="2.47" rx="1.24" ry="1.24" transform="translate(-412.11 636.72) rotate(-65.98)"/><rect class="cls-7" x="277.84" y="649.41" width="2.47" height="2.47" rx="1.24" ry="1.24" transform="translate(-428.83 640.74) rotate(-65.98)"/><rect class="cls-7" x="293.88" y="625.64" width="2.47" height="2.47" rx="1.24" ry="1.24" transform="translate(-397.6 641.29) rotate(-65.98)"/><rect class="cls-7" x="295.52" y="623.82" width="2.47" height="2.47" rx="1.24" ry="1.24" transform="translate(-394.96 641.7) rotate(-65.98)"/><rect class="cls-7" x="297.5" y="622.24" width="2.47" height="2.47" rx="1.24" ry="1.24" transform="translate(-392.35 642.58) rotate(-65.98)"/><rect class="cls-7" x="300.51" y="620.57" width="2.47" height="2.47" rx="1.24" ry="1.24" transform="translate(-389.04 644.34) rotate(-65.98)"/><rect class="cls-7" x="344.35" y="619.61" width="2.47" height="2.47" rx="1.24" ry="1.24" transform="translate(-362.16 683.81) rotate(-65.98)"/><rect class="cls-7" x="334.05" y="609.41" width="2.47" height="2.47" rx="1.24" ry="1.24" transform="translate(-358.96 668.36) rotate(-65.98)"/><rect class="cls-7" x="341.13" y="615.33" width="2.47" height="2.47" rx="1.24" ry="1.24" transform="translate(-360.17 678.34) rotate(-65.98)"/><rect class="cls-7" x="342.88" y="617.64" width="2.47" height="2.47" rx="1.24" ry="1.24" transform="translate(-361.24 681.3) rotate(-65.98)"/><circle class="cls-7" cx="310.92" cy="619.28" r=".53"/><circle class="cls-7" cx="336.25" cy="644.94" r=".53"/><circle class="cls-7" cx="335.91" cy="638.43" r=".53"/><circle class="cls-7" cx="332.01" cy="629.12" r=".53"/><circle class="cls-7" cx="311.96" cy="619.19" r=".53"/><rect class="cls-7" x="826.5" y="299.03" width="3" height="3" rx="1.5" ry="1.5" transform="translate(83.35 -170) rotate(12.34)"/><rect class="cls-7" x="826.5" y="293.83" width="3" height="3" rx="1.5" ry="1.5" transform="translate(82.24 -170.12) rotate(12.34)"/><rect class="cls-7" x="826.5" y="287.34" width="3" height="3" rx="1.5" ry="1.5" transform="translate(80.85 -170.27) rotate(12.34)"/><line class="cls-4" x1="581.57" y1="341.88" x2="581.57" y2="315.37"/><polygon class="cls-7" points="809.79 343.62 808.24 341.72 811.35 341.72 809.79 343.62"/><polygon class="cls-7" points="809.84 342.45 808.29 340.54 811.39 340.54 809.84 342.45"/><polygon class="cls-7" points="809.79 341.14 808.24 339.24 811.35 339.24 809.79 341.14"/><polygon class="cls-7" points="809.84 339.79 808.29 337.89 811.39 337.89 809.84 339.79"/><polygon class="cls-7" points="809.88 335.96 808.33 334.06 811.44 334.06 809.88 335.96"/><polygon class="cls-7" points="810.04 329.48 808.03 327.01 812.05 327.01 810.04 329.48"/><polygon class="cls-7" points="810.26 324.56 808.24 322.09 812.27 322.09 810.26 324.56"/><polygon class="cls-7" points="810.26 317.8 808.24 315.33 812.27 315.33 810.26 317.8"/></g></svg>