<?xml version="1.0" encoding="UTF-8"?><svg id="Layer_1" xmlns="http://www.w3.org/2000/svg" viewBox="0 0 1024 768"><defs><style>.cls-1{stroke-dasharray:0 4;stroke-width:1.5px;}.cls-1,.cls-2{fill:none;stroke:#bcbcbc;stroke-miterlimit:10;}.cls-2{stroke-width:2px;}.cls-3{fill:#bcbcbc;stroke-width:0px;}</style></defs><polyline class="cls-1" points="103.52 409.85 209.47 582.08 245.86 497.55 336.26 497.55"/><path class="cls-2" d="m836.28,378.15c.01,57.11-46.03,103.1-103.07,103.24-57.55.14-103.31-46.61-103.65-102.76-.33-55.11,43.56-103.45,102.14-103.9,58.57-.45,104.57,45.46,104.58,103.42Zm-57.33-3.01c-.05-5.06-.28-12.72-1.16-20.36-.21-1.82-.92-2.94-2.36-3.97-12.57-9.03-25.87-16.76-39.97-23.16-1.71-.78-3.12-.89-4.83-.1-14.2,6.59-27.83,14.14-40.45,23.45-1.29.95-1.92,2.01-2.08,3.52-1.65,15.7-1.63,31.39,0,47.09.15,1.4.73,2.45,1.94,3.33,12.94,9.33,26.64,17.34,41.21,23.87,1.11.5,2.08.57,3.25.05,14.63-6.59,28.48-14.54,41.49-23.94.96-.69,1.6-1.42,1.74-2.76.85-8.12,1.27-16.25,1.22-27.03Z"/><polygon class="cls-3" points="732.92 274.73 732.89 270.73 732.94 270.73 732.92 274.73"/><polygon class="cls-3" points="732.87 266.73 732.85 262.73 732.99 262.73 732.97 266.73 732.87 266.73"/><polygon class="cls-3" points="732.82 258.73 732.8 254.73 733.04 254.73 733.01 258.73 732.82 258.73"/><polygon class="cls-3" points="732.78 250.73 732.75 246.73 733.09 246.73 733.06 250.73 732.78 250.73"/><polygon class="cls-3" points="732.73 242.73 732.71 238.73 733.14 238.73 733.11 242.73 732.73 242.73"/><polygon class="cls-3" points="732.68 234.73 732.66 230.73 733.19 230.73 733.16 234.73 732.68 234.73"/><polygon class="cls-3" points="732.64 226.73 732.61 222.73 733.23 222.73 733.21 226.73 732.64 226.73"/><polygon class="cls-3" points="732.59 218.73 732.57 214.73 733.28 214.73 733.26 218.73 732.59 218.73"/><polygon class="cls-3" points="732.55 210.73 732.53 206.73 733.32 206.73 733.3 210.73 732.55 210.73"/><polygon class="cls-3" points="732.52 202.73 732.51 198.73 733.35 198.73 733.33 202.73 732.52 202.73"/><polygon class="cls-3" points="732.49 194.73 732.48 190.73 733.37 190.73 733.36 194.73 732.49 194.73"/><polygon class="cls-3" points="732.47 186.73 732.45 182.73 733.4 182.73 733.39 186.73 732.47 186.73"/><polygon class="cls-3" points="732.44 178.73 732.43 174.73 733.43 174.73 733.42 178.73 732.44 178.73"/><polygon class="cls-3" points="732.42 170.73 732.4 166.73 733.46 166.73 733.44 170.73 732.42 170.73"/><polygon class="cls-3" points="732.39 162.73 732.38 158.73 733.49 158.73 733.47 162.73 732.39 162.73"/><polygon class="cls-3" points="732.36 154.73 732.35 150.73 733.51 150.73 733.5 154.73 732.36 154.73"/><polygon class="cls-3" points="732.34 146.73 732.32 142.73 733.54 142.73 733.53 146.73 732.34 146.73"/><polygon class="cls-3" points="732.31 138.73 732.3 134.73 733.57 134.73 733.56 138.73 732.31 138.73"/><polygon class="cls-3" points="732.3 130.73 732.29 126.73 733.58 126.73 733.57 130.73 732.3 130.73"/><polygon class="cls-3" points="732.29 122.73 732.28 118.73 733.59 118.73 733.58 122.73 732.29 122.73"/><polygon class="cls-3" points="732.28 114.73 732.28 110.73 733.6 110.73 733.59 114.73 732.28 114.73"/><polygon class="cls-3" points="732.27 106.73 732.27 102.73 733.61 102.73 733.6 106.73 732.27 106.73"/><polygon class="cls-3" points="732.27 98.73 732.26 94.73 733.62 94.73 733.61 98.73 732.27 98.73"/><polygon class="cls-3" points="732.26 90.73 732.25 86.73 733.63 86.73 733.62 90.73 732.26 90.73"/><polygon class="cls-3" points="732.25 82.73 732.25 80.35 732.25 79.66 732.94 79.66 734.57 79.66 734.57 81.05 732.94 81.05 733.64 80.36 733.63 82.73 732.25 82.73"/><polygon class="cls-3" points="738.57 79.65 742.57 79.65 742.57 81.06 738.57 81.06 738.57 79.65"/><polygon class="cls-3" points="746.57 79.65 750.57 79.64 750.57 81.07 746.57 81.06 746.57 79.65"/><polygon class="cls-3" points="754.57 79.64 758.57 79.63 758.57 81.08 754.57 81.07 754.57 79.64"/><polygon class="cls-3" points="762.57 79.63 766.57 79.62 766.57 81.09 762.57 81.08 762.57 79.63"/><polygon class="cls-3" points="770.57 79.62 771.32 79.62 772.06 79.62 772.06 80.35 772.06 83.6 770.58 83.6 770.58 80.35 771.32 81.09 770.57 81.09 770.57 79.62"/><polygon class="cls-3" points="772.07 87.6 772.07 91.6 770.57 91.6 770.58 87.6 772.07 87.6"/><polygon class="cls-3" points="772.07 95.6 772.06 99.6 770.58 99.6 770.58 95.6 772.07 95.6"/><polygon class="cls-3" points="772.06 103.6 772.05 107.6 770.59 107.6 770.58 103.6 772.06 103.6"/><polygon class="cls-3" points="772.05 111.6 772.05 115.6 770.6 115.6 770.59 111.6 772.05 111.6"/><polygon class="cls-3" points="772.04 119.6 772.04 123.6 770.61 123.6 770.6 119.6 772.04 119.6"/><polygon class="cls-3" points="772.03 127.6 772.03 131.6 770.62 131.6 770.61 127.6 772.03 127.6"/><polygon class="cls-3" points="772.02 135.6 772.02 139.6 770.62 139.6 770.62 135.6 772.02 135.6"/><polygon class="cls-3" points="772.01 143.6 772.01 147.6 770.63 147.6 770.63 143.6 772.01 143.6"/><polygon class="cls-3" points="772 151.6 772 155.6 770.64 155.6 770.64 151.6 772 151.6"/><polygon class="cls-3" points="772 159.6 771.99 163.6 770.65 163.6 770.65 159.6 772 159.6"/><polygon class="cls-3" points="771.99 167.6 771.98 171.6 770.66 171.6 770.66 167.6 771.99 167.6"/><polygon class="cls-3" points="771.98 175.6 771.97 179.05 771.32 178.39 771.87 178.39 771.87 179.7 771.32 179.7 770.67 179.7 770.67 179.05 770.66 175.6 771.98 175.6"/><polygon class="cls-3" points="775.87 178.4 779.87 178.4 779.87 179.69 775.87 179.69 775.87 178.4"/><polygon class="cls-3" points="783.87 178.41 787.87 178.41 787.87 179.68 783.87 179.69 783.87 178.41"/><polygon class="cls-3" points="788.71 176.51 788.73 172.51 789.95 172.51 789.96 176.51 788.71 176.51"/><polygon class="cls-3" points="788.74 168.51 788.75 164.51 789.92 164.51 789.93 168.51 788.74 168.51"/><polygon class="cls-3" points="788.77 160.51 788.78 156.51 789.89 156.51 789.91 160.51 788.77 160.51"/><polygon class="cls-3" points="788.79 152.51 788.81 148.51 789.87 148.51 789.88 152.51 788.79 152.51"/><polygon class="cls-3" points="788.82 144.51 788.83 140.51 789.84 140.51 789.85 144.51 788.82 144.51"/><polygon class="cls-3" points="788.85 136.51 788.86 132.51 789.81 132.51 789.82 136.51 788.85 136.51"/><polygon class="cls-3" points="788.88 128.51 788.89 124.51 789.78 124.51 789.8 128.51 788.88 128.51"/><polygon class="cls-3" points="788.9 120.51 788.92 116.51 789.76 116.51 789.77 120.51 788.9 120.51"/><polygon class="cls-3" points="788.93 112.51 788.94 108.51 789.73 108.51 789.74 112.51 788.93 112.51"/><polygon class="cls-3" points="788.96 104.51 788.98 100.51 789.7 100.51 789.72 104.51 788.96 104.51"/><polygon class="cls-3" points="789 96.51 789.03 92.51 789.65 92.51 789.67 96.51 789 96.51"/><polygon class="cls-3" points="789.05 88.51 789.07 84.51 789.6 84.51 789.62 88.51 789.05 88.51"/><polygon class="cls-3" points="789.1 80.51 789.12 76.51 789.55 76.51 789.58 80.51 789.1 80.51"/><polygon class="cls-3" points="789.15 72.51 789.17 68.51 789.5 68.51 789.53 72.51 789.15 72.51"/><polygon class="cls-3" points="789.19 64.51 789.22 60.51 789.45 60.51 789.48 64.51 789.19 64.51"/><polygon class="cls-3" points="789.24 56.51 789.27 52.51 789.41 52.51 789.43 56.51 789.24 56.51"/><polygon class="cls-3" points="789.29 48.51 789.31 44.51 789.36 44.51 789.38 48.51 789.29 48.51"/><polygon class="cls-3" points="495.43 589.76 495.44 593.76 495.41 593.76 495.43 589.76"/><polygon class="cls-3" points="495.46 597.76 495.48 601.76 495.38 601.76 495.4 597.76 495.46 597.76"/><polygon class="cls-3" points="495.49 605.76 495.51 609.76 495.35 609.76 495.37 605.76 495.49 605.76"/><polygon class="cls-3" points="495.52 613.76 495.54 617.76 495.32 617.76 495.34 613.76 495.52 613.76"/><polygon class="cls-3" points="495.55 621.76 495.57 625.76 495.29 625.76 495.31 621.76 495.55 621.76"/><polygon class="cls-3" points="495.58 629.76 495.6 633.76 495.26 633.76 495.27 629.76 495.58 629.76"/><polygon class="cls-3" points="495.61 637.76 495.63 641.76 495.23 641.76 495.24 637.76 495.61 637.76"/><polygon class="cls-3" points="495.64 645.76 495.66 649.76 495.2 649.76 495.21 645.76 495.64 645.76"/><polygon class="cls-3" points="495.68 653.76 495.69 657.76 495.17 657.76 495.18 653.76 495.68 653.76"/><polygon class="cls-3" points="495.71 661.76 495.72 665.76 495.14 665.76 495.15 661.76 495.71 661.76"/><polygon class="cls-3" points="495.74 669.76 495.75 673.76 495.11 673.76 495.12 669.76 495.74 669.76"/><polygon class="cls-3" points="495.77 677.76 495.78 681.76 495.07 681.76 495.09 677.76 495.77 677.76"/><polygon class="cls-3" points="495.8 685.76 495.81 689.76 495.05 689.76 495.06 685.76 495.8 685.76"/><polygon class="cls-3" points="495.81 693.76 495.82 697.76 495.04 697.76 495.05 693.76 495.81 693.76"/><polygon class="cls-3" points="495.82 701.76 495.83 705.76 495.03 705.76 495.03 701.76 495.82 701.76"/><polygon class="cls-3" points="495.83 709.76 495.84 713.76 495.02 713.76 495.02 709.76 495.83 709.76"/><polygon class="cls-3" points="495.84 717.76 495.85 721.76 495.01 721.76 495.01 717.76 495.84 717.76"/><polygon class="cls-3" points="495.86 725.76 495.86 725.82 495.43 725.39 499.37 725.39 499.37 726.25 495.43 726.25 495 726.25 495 725.82 495 725.76 495.86 725.76"/><polygon class="cls-3" points="503.37 725.38 507.37 725.38 507.37 726.26 503.37 726.26 503.37 725.38"/><polygon class="cls-3" points="511.37 725.37 515.37 725.37 515.37 726.27 511.37 726.27 511.37 725.37"/><polygon class="cls-3" points="519.37 725.36 523.37 725.36 523.37 726.28 519.37 726.28 519.37 725.36"/><polygon class="cls-3" points="527.37 725.35 531.37 725.35 531.37 726.29 527.37 726.29 527.37 725.35"/><polygon class="cls-3" points="535.37 725.34 539.37 725.33 539.37 726.3 535.37 726.3 535.37 725.34"/><polygon class="cls-3" points="543.37 725.33 546.15 725.33 545.66 725.81 545.67 724.6 546.66 724.61 546.64 725.83 546.64 726.31 546.15 726.31 543.37 726.31 543.37 725.33"/><polygon class="cls-3" points="545.71 720.6 545.75 716.6 546.76 716.61 546.71 720.61 545.71 720.6"/><polygon class="cls-3" points="545.79 712.6 545.84 708.6 546.87 708.61 546.82 712.61 545.79 712.6"/><polygon class="cls-3" points="545.88 704.6 545.92 700.6 546.97 700.61 546.92 704.61 545.88 704.6"/><polygon class="cls-3" points="545.96 696.6 546 692.6 547.08 692.61 547.03 696.61 545.96 696.6"/><polygon class="cls-3" points="546.05 688.6 546.09 684.6 547.18 684.61 547.13 688.61 546.05 688.6"/><polygon class="cls-3" points="546.13 680.6 546.17 676.6 547.29 676.61 547.24 680.61 546.13 680.6"/><polygon class="cls-3" points="546.21 672.6 546.25 668.6 547.39 668.61 547.34 672.61 546.21 672.6"/><polygon class="cls-3" points="546.3 664.6 546.34 660.6 547.5 660.61 547.45 664.61 546.3 664.6"/><polygon class="cls-3" points="546.38 656.6 546.42 652.6 547.6 652.62 547.55 656.62 546.38 656.6"/><polygon class="cls-3" points="546.46 648.6 546.51 644.6 547.71 644.62 547.66 648.62 546.46 648.6"/><polygon class="cls-3" points="546.55 640.6 546.59 636.6 547.81 636.62 547.76 640.62 546.55 640.6"/><polygon class="cls-3" points="546.63 632.6 546.67 628.6 547.92 628.62 547.87 632.62 546.63 632.6"/><polygon class="cls-3" points="546.71 624.6 546.76 620.6 548.02 620.62 547.97 624.62 546.71 624.6"/><polygon class="cls-3" points="546.8 616.6 546.84 612.6 548.13 612.62 548.08 616.62 546.8 616.6"/><polygon class="cls-3" points="546.88 608.6 546.92 604.6 548.23 604.62 548.18 608.62 546.88 608.6"/><polygon class="cls-3" points="546.97 600.6 547.01 596.6 548.34 596.62 548.29 600.62 546.97 600.6"/><polygon class="cls-3" points="547.05 592.6 547.09 588.6 548.44 588.62 548.39 592.62 547.05 592.6"/><polygon class="cls-3" points="547.13 584.61 547.18 580.61 548.55 580.62 548.5 584.62 547.13 584.61"/><polygon class="cls-3" points="547.22 576.61 547.26 572.61 548.65 572.62 548.6 576.62 547.22 576.61"/><polygon class="cls-3" points="547.3 568.61 547.34 564.61 548.76 564.62 548.71 568.62 547.3 568.61"/><polygon class="cls-3" points="547.38 560.61 547.43 556.61 548.86 556.62 548.81 560.62 547.38 560.61"/><polygon class="cls-3" points="547.47 552.61 547.51 548.61 548.97 548.62 548.92 552.62 547.47 552.61"/><polygon class="cls-3" points="547.55 544.61 547.59 540.61 549.07 540.62 549.02 544.62 547.55 544.61"/><polygon class="cls-3" points="547.64 536.61 547.68 532.61 549.18 532.63 549.13 536.63 547.64 536.61"/><polygon class="cls-3" points="547.73 528.61 547.78 524.61 549.26 524.63 549.22 528.63 547.73 528.61"/><polygon class="cls-3" points="547.84 520.61 547.89 516.61 549.35 516.63 549.3 520.63 547.84 520.61"/><polygon class="cls-3" points="547.94 512.61 547.99 508.61 549.43 508.63 549.39 512.63 547.94 512.61"/><polygon class="cls-3" points="548.05 504.61 548.1 500.61 549.51 500.63 549.47 504.63 548.05 504.61"/><polygon class="cls-3" points="548.15 496.61 548.2 492.61 549.6 492.63 549.55 496.63 548.15 496.61"/><polygon class="cls-3" points="548.26 488.61 548.31 484.61 549.68 484.63 549.64 488.63 548.26 488.61"/><polygon class="cls-3" points="548.36 480.61 548.41 476.61 549.76 476.63 549.72 480.63 548.36 480.61"/><polygon class="cls-3" points="548.47 472.61 548.52 468.61 549.85 468.63 549.81 472.63 548.47 472.61"/><polygon class="cls-3" points="548.57 464.61 548.62 460.61 549.93 460.63 549.89 464.63 548.57 464.61"/><polygon class="cls-3" points="548.68 456.61 548.73 452.61 550.01 452.63 549.97 456.63 548.68 456.61"/><polygon class="cls-3" points="548.78 448.62 548.83 444.62 550.1 444.63 550.06 448.63 548.78 448.62"/><polygon class="cls-3" points="548.89 440.62 548.94 436.62 550.18 436.63 550.14 440.63 548.89 440.62"/><polygon class="cls-3" points="548.99 432.62 549.04 428.62 550.27 428.63 550.22 432.63 548.99 432.62"/><polygon class="cls-3" points="549.1 424.62 549.15 420.62 550.35 420.63 550.31 424.63 549.1 424.62"/><polygon class="cls-3" points="549.2 416.62 549.25 412.62 550.43 412.63 550.39 416.63 549.2 416.62"/><polygon class="cls-3" points="549.31 408.62 549.36 404.62 550.52 404.63 550.47 408.63 549.31 408.62"/><polygon class="cls-3" points="549.41 400.62 549.46 396.62 550.6 396.63 550.56 400.63 549.41 400.62"/><polygon class="cls-3" points="549.52 392.62 549.57 388.62 550.68 388.63 550.64 392.63 549.52 392.62"/><polygon class="cls-3" points="549.62 384.62 549.67 380.62 550.77 380.63 550.73 384.63 549.62 384.62"/><polygon class="cls-3" points="549.73 376.62 549.78 372.62 550.85 372.63 550.81 376.63 549.73 376.62"/><polygon class="cls-3" points="549.83 368.62 549.88 364.62 550.93 364.63 550.89 368.63 549.83 368.62"/><polygon class="cls-3" points="549.94 360.62 549.99 356.62 551.02 356.64 550.98 360.63 549.94 360.62"/><polygon class="cls-3" points="550.04 352.62 550.09 348.62 551.1 348.64 551.06 352.64 550.04 352.62"/><polygon class="cls-3" points="550.15 344.62 550.2 340.62 551.19 340.64 551.14 344.64 550.15 344.62"/><polygon class="cls-3" points="550.25 336.62 550.3 332.62 551.27 332.64 551.23 336.64 550.25 336.62"/><polygon class="cls-3" points="550.36 328.63 550.41 324.63 551.35 324.64 551.31 328.64 550.36 328.63"/><polygon class="cls-3" points="550.46 320.63 550.52 316.63 551.44 316.64 551.4 320.64 550.46 320.63"/><polygon class="cls-3" points="550.57 312.63 550.62 308.63 551.52 308.64 551.48 312.64 550.57 312.63"/><polygon class="cls-3" points="550.67 304.63 550.73 300.63 551.6 300.64 551.56 304.64 550.67 304.63"/><polygon class="cls-3" points="550.78 296.63 550.83 292.63 551.69 292.64 551.65 296.64 550.78 296.63"/><polygon class="cls-3" points="550.88 288.63 550.94 284.63 551.77 284.64 551.73 288.64 550.88 288.63"/><polygon class="cls-3" points="550.99 280.63 551.04 276.63 551.86 276.64 551.81 280.64 550.99 280.63"/><polygon class="cls-3" points="551.09 272.63 551.15 268.63 551.94 268.64 551.9 272.64 551.09 272.63"/><polygon class="cls-3" points="551.2 264.63 551.25 260.63 552.02 260.64 551.98 264.64 551.2 264.63"/><polygon class="cls-3" points="551.3 256.63 551.36 252.63 552.11 252.64 552.06 256.64 551.3 256.63"/><polygon class="cls-3" points="551.42 248.63 551.48 244.63 552.17 244.64 552.14 248.64 551.42 248.63"/><polygon class="cls-3" points="551.54 240.63 551.61 236.63 552.23 236.64 552.2 240.64 551.54 240.63"/><polygon class="cls-3" points="551.67 232.63 551.73 228.63 552.3 228.64 552.27 232.64 551.67 232.63"/><polygon class="cls-3" points="551.79 224.63 551.86 220.64 552.36 220.64 552.33 224.64 551.79 224.63"/><polygon class="cls-3" points="551.92 216.64 551.98 212.64 552.42 212.64 552.39 216.64 551.92 216.64"/><polygon class="cls-3" points="552.04 208.64 552.11 204.64 552.49 204.64 552.46 208.64 552.04 208.64"/><polygon class="cls-3" points="553.36 201.5 557.36 201.51 557.36 201.83 553.36 201.85 553.36 201.5"/><polygon class="cls-3" points="561.36 201.53 565.36 201.54 565.36 201.8 561.36 201.81 561.36 201.53"/><polygon class="cls-3" points="569.36 201.56 573.36 201.57 573.36 201.77 569.36 201.78 569.36 201.56"/><polygon class="cls-3" points="577.36 201.59 581.36 201.6 581.36 201.74 577.36 201.75 577.36 201.59"/><polygon class="cls-3" points="585.36 201.62 589.36 201.64 589.36 201.71 585.36 201.72 585.36 201.62"/><polygon class="cls-3" points="593.36 201.65 597.36 201.67 597.36 201.67 593.36 201.69 593.36 201.65"/><path class="cls-2" d="m387.74,384.17c-16.82.09-30.44-13.41-30.56-30.22-.12-16.95,13.58-30.5,30.12-30.68,16.23-.18,30.54,12.68,30.75,29.94.22,17.25-13.24,30.87-30.32,30.96Zm.8-16.89c1.49-.02,3.75-.1,6-.37.53-.06.86-.28,1.17-.7,2.64-3.71,4.9-7.65,6.76-11.81.23-.51.26-.92.02-1.42-1.96-4.17-4.21-8.18-6.97-11.88-.28-.38-.59-.56-1.04-.61-4.63-.46-9.25-.44-13.87.07-.41.04-.72.22-.98.58-2.73,3.83-5.07,7.87-6.97,12.17-.14.33-.17.61,0,.96,1.96,4.3,4.32,8.37,7.11,12.19.21.28.42.47.81.51,2.39.24,4.79.35,7.96.32Zm161.9,115.37c1.49-.02,3.75-.1,6-.37.53-.06.86-.28,1.17-.7,2.64-3.71,4.9-7.65,6.76-11.81.23-.51.26-.92.02-1.42-1.96-4.17-4.21-8.18-6.97-11.88-.28-.38-.59-.56-1.04-.61-4.63-.46-9.25-.44-13.87.07-.41.04-.72.22-.98.58-2.73,3.83-5.07,7.87-6.97,12.17-.14.33-.17.61,0,.96,1.96,4.3,4.32,8.37,7.11,12.19.21.28.42.47.81.51,2.39.24,4.79.35,7.96.32Zm90.21-136.84c1.49-.02,3.75-.1,6-.37.53-.06.86-.28,1.17-.7,2.64-3.71,4.9-7.65,6.76-11.81.23-.51.26-.92.02-1.42-1.96-4.17-4.21-8.18-6.97-11.88-.28-.38-.59-.56-1.04-.61-4.63-.46-9.25-.44-13.87.07-.41.04-.72.22-.98.58-2.73,3.83-5.07,7.87-6.97,12.17-.14.33-.17.61,0,.96,1.96,4.3,4.32,8.37,7.11,12.19.21.28.42.47.81.51,2.39.24,4.79.35,7.96.32Z"/><polygon class="cls-3" points="730.74 521.13 734.73 521.43 734.72 521.48 730.74 521.13"/><polygon class="cls-3" points="738.72 521.62 742.72 521.71 742.72 521.89 738.72 521.74 738.72 521.62"/><polygon class="cls-3" points="746.72 521.7 750.71 521.6 750.72 521.89 746.72 521.94 746.72 521.7"/><polygon class="cls-3" points="754.71 521.39 758.69 521.08 758.72 521.49 754.73 521.74 754.71 521.39"/><polygon class="cls-3" points="762.66 520.67 766.63 520.16 766.7 520.69 762.71 521.14 762.66 520.67"/><polygon class="cls-3" points="770.57 519.55 774.5 518.84 774.62 519.48 770.67 520.14 770.57 519.55"/><polygon class="cls-3" points="778.41 518.03 782.3 517.12 782.47 517.86 778.56 518.73 778.41 518.03"/><polygon class="cls-3" points="786.16 516.12 789.99 515.02 790.23 515.82 786.36 516.89 786.16 516.12"/><polygon class="cls-3" points="793.8 513.82 797.57 512.53 797.87 513.37 794.06 514.64 793.8 513.82"/><polygon class="cls-3" points="801.3 511.13 805 509.63 805.37 510.52 801.64 512 801.3 511.13"/><polygon class="cls-3" points="808.66 508.04 812.26 506.34 812.71 507.27 809.06 508.95 808.66 508.04"/><polygon class="cls-3" points="815.83 504.55 819.34 502.67 819.86 503.63 816.31 505.5 815.83 504.55"/><polygon class="cls-3" points="822.79 500.68 826.19 498.6 826.81 499.59 823.36 501.66 822.79 500.68"/><polygon class="cls-3" points="829.53 496.43 832.8 494.16 833.51 495.17 830.19 497.43 829.53 496.43"/><polygon class="cls-3" points="836.01 491.8 839.15 489.36 839.95 490.35 836.77 492.81 836.01 491.8"/><polygon class="cls-3" points="842.22 486.82 845.22 484.2 846.08 485.16 843.05 487.8 842.22 486.82"/><polygon class="cls-3" points="848.13 481.49 850.96 478.69 851.9 479.61 849.03 482.43 848.13 481.49"/><polygon class="cls-3" points="853.7 475.8 856.35 472.83 857.36 473.71 854.67 476.7 853.7 475.8"/><polygon class="cls-3" points="858.9 469.78 861.35 466.65 862.44 467.48 859.95 470.63 858.9 469.78"/><polygon class="cls-3" points="863.71 463.45 865.96 460.17 867.11 460.93 864.83 464.24 863.71 463.45"/><polygon class="cls-3" points="868.1 456.81 870.13 453.39 871.35 454.09 869.29 457.55 868.1 456.81"/><path class="cls-3" d="m872.04,449.91c.6-1.18,1.22-2.35,1.8-3.54l1.29.63c-.59,1.21-1.22,2.39-1.83,3.58l-1.25-.66Z"/><polygon class="cls-3" points="875.52 442.76 877.07 439.1 878.42 439.65 876.83 443.35 875.52 442.76"/><polygon class="cls-3" points="878.51 435.4 879.82 431.64 881.22 432.11 879.88 435.9 878.51 435.4"/><polygon class="cls-3" points="881.01 427.85 882.08 424.02 883.52 424.4 882.43 428.27 881.01 427.85"/><polygon class="cls-3" points="883.03 420.16 883.86 416.27 885.31 416.56 884.48 420.5 883.03 420.16"/><polygon class="cls-3" points="884.57 412.36 885.16 408.43 886.61 408.62 886.02 412.6 884.57 412.36"/><polygon class="cls-3" points="885.63 404.48 885.98 400.52 887.41 400.62 887.07 404.63 885.63 404.48"/><polygon class="cls-3" points="886.2 396.55 886.32 392.57 887.73 392.59 887.63 396.61 886.2 396.55"/><polygon class="cls-3" points="886.31 388.59 886.19 384.62 887.58 384.55 887.71 388.57 886.31 388.59"/><polygon class="cls-3" points="885.96 380.64 885.61 376.68 886.97 376.54 887.33 380.54 885.96 380.64"/><polygon class="cls-3" points="885.15 372.73 884.58 368.79 885.91 368.57 886.5 372.55 885.15 372.73"/><polygon class="cls-3" points="883.9 364.86 883.12 360.96 884.41 360.68 885.22 364.62 883.9 364.86"/><polygon class="cls-3" points="882.22 357.08 881.23 353.23 882.48 352.88 883.5 356.77 882.22 357.08"/><polygon class="cls-3" points="880.13 349.4 878.92 345.6 880.14 345.2 881.36 349.02 880.13 349.4"/><polygon class="cls-3" points="877.62 341.84 876.22 338.11 877.38 337.65 878.82 341.41 877.62 341.84"/><polygon class="cls-3" points="874.74 334.41 873.15 330.76 874.22 330.27 875.85 333.94 874.74 334.41"/><polygon class="cls-3" points="871.47 327.15 869.69 323.58 870.68 323.07 872.5 326.65 871.47 327.15"/><polygon class="cls-3" points="867.82 320.06 865.87 316.59 866.77 316.06 868.77 319.54 867.82 320.06"/><polygon class="cls-3" points="863.82 313.17 861.68 309.8 862.5 309.26 864.68 312.63 863.82 313.17"/><polygon class="cls-3" points="859.46 306.49 857.16 303.24 857.89 302.7 860.24 305.95 859.46 306.49"/><polygon class="cls-3" points="854.77 300.04 852.3 296.91 852.95 296.38 855.46 299.5 854.77 300.04"/><polygon class="cls-3" points="849.75 293.85 847.12 290.85 847.7 290.33 850.36 293.32 849.75 293.85"/><polygon class="cls-3" points="844.43 287.91 841.66 285.04 842.14 284.56 844.96 287.41 844.43 287.91"/><polygon class="cls-3" points="838.82 282.24 835.91 279.51 836.28 279.1 839.24 281.79 838.82 282.24"/><polygon class="cls-3" points="832.93 276.85 829.88 274.27 830.16 273.93 833.25 276.48 832.93 276.85"/><polygon class="cls-3" points="826.77 271.77 823.6 269.34 823.79 269.09 827 271.47 826.77 271.77"/><polygon class="cls-3" points="820.36 267 817.07 264.73 817.18 264.57 820.51 266.79 820.36 267"/><polygon class="cls-3" points="813.72 262.55 810.32 260.45 810.36 260.38 813.8 262.43 813.72 262.55"/><polygon class="cls-3" points="806.87 258.43 805.63 257.73 806.88 258.41 806.87 258.43"/><polygon class="cls-3" points="715.93 564.02 719.93 564.21 719.93 564.26 715.93 564.02"/><polygon class="cls-3" points="723.93 564.34 727.93 564.39 727.92 564.52 723.92 564.42 723.93 564.34"/><polygon class="cls-3" points="731.93 564.38 735.92 564.3 735.93 564.52 731.93 564.56 731.93 564.38"/><polygon class="cls-3" points="739.92 564.15 743.91 563.93 743.93 564.24 739.93 564.41 739.92 564.15"/><polygon class="cls-3" points="747.9 563.64 751.88 563.29 751.92 563.68 747.93 563.99 747.9 563.64"/><polygon class="cls-3" points="755.85 562.86 759.82 562.37 759.88 562.85 755.9 563.3 755.85 562.86"/><polygon class="cls-3" points="763.78 561.81 767.72 561.17 767.81 561.74 763.85 562.33 763.78 561.81"/><polygon class="cls-3" points="771.66 560.47 775.58 559.7 775.7 560.35 771.77 561.08 771.66 560.47"/><polygon class="cls-3" points="779.48 558.86 783.37 557.96 783.54 558.69 779.63 559.55 779.48 558.86"/><polygon class="cls-3" points="787.24 556.99 791.1 555.95 791.31 556.72 787.44 557.74 787.24 556.99"/><polygon class="cls-3" points="794.94 554.85 798.75 553.67 799.01 554.48 795.17 555.64 794.94 554.85"/><polygon class="cls-3" points="802.55 552.43 806.32 551.12 806.62 551.96 802.83 553.26 802.55 552.43"/><polygon class="cls-3" points="810.06 549.73 813.78 548.28 814.13 549.16 810.39 550.6 810.06 549.73"/><polygon class="cls-3" points="817.47 546.76 821.13 545.17 821.54 546.09 817.85 547.66 817.47 546.76"/><polygon class="cls-3" points="824.76 543.52 828.36 541.79 828.82 542.73 825.19 544.44 824.76 543.52"/><polygon class="cls-3" points="831.93 540 835.45 538.13 835.97 539.1 832.41 540.95 831.93 540"/><polygon class="cls-3" points="838.94 536.2 842.4 534.2 842.98 535.19 839.49 537.18 838.94 536.2"/><polygon class="cls-3" points="845.81 532.13 849.17 530 849.82 531 846.42 533.13 845.81 532.13"/><polygon class="cls-3" points="852.5 527.79 855.78 525.52 856.49 526.54 853.18 528.81 852.5 527.79"/><polygon class="cls-3" points="859.01 523.19 862.19 520.79 862.97 521.8 859.76 524.21 859.01 523.19"/><polygon class="cls-3" points="865.32 518.32 868.4 515.79 869.23 516.78 866.13 519.32 865.32 518.32"/><polygon class="cls-3" points="871.43 513.19 874.39 510.53 875.28 511.5 872.28 514.17 871.43 513.19"/><polygon class="cls-3" points="877.3 507.8 880.14 505.01 881.08 505.95 878.21 508.75 877.3 507.8"/><polygon class="cls-3" points="882.92 502.16 885.63 499.24 886.63 500.14 883.89 503.08 882.92 502.16"/><polygon class="cls-3" points="888.28 496.26 890.85 493.22 891.9 494.08 889.3 497.14 888.28 496.26"/><polygon class="cls-3" points="893.35 490.12 895.78 486.96 896.88 487.78 894.42 490.96 893.35 490.12"/><polygon class="cls-3" points="898.12 483.74 900.39 480.46 901.54 481.24 899.25 484.54 898.12 483.74"/><polygon class="cls-3" points="902.58 477.13 904.68 473.75 905.88 474.47 903.76 477.88 902.58 477.13"/><polygon class="cls-3" points="906.7 470.31 908.62 466.83 909.87 467.5 907.92 471.01 906.7 470.31"/><path class="cls-3" d="m910.46,463.29c.6-1.19,1.17-2.38,1.74-3.58l1.3.61c-.58,1.21-1.16,2.41-1.77,3.61l-1.28-.64Z"/><polygon class="cls-3" points="913.85 456.09 915.4 452.43 916.75 452.98 915.17 456.67 913.85 456.09"/><polygon class="cls-3" points="916.86 448.72 918.23 444.98 919.62 445.47 918.23 449.24 916.86 448.72"/><polygon class="cls-3" points="919.49 441.21 920.66 437.41 922.09 437.83 920.9 441.66 919.49 441.21"/><polygon class="cls-3" points="921.73 433.57 922.71 429.72 924.16 430.06 923.18 433.96 921.73 433.57"/><polygon class="cls-3" points="923.59 425.84 924.38 421.93 925.83 422.21 925.05 426.15 923.59 425.84"/><polygon class="cls-3" points="925.07 418.01 925.66 414.08 927.1 414.28 926.52 418.25 925.07 418.01"/><polygon class="cls-3" points="926.15 410.13 926.55 406.17 927.99 406.29 927.59 410.29 926.15 410.13"/><polygon class="cls-3" points="926.85 402.2 927.05 398.22 928.48 398.28 928.28 402.29 926.85 402.2"/><polygon class="cls-3" points="927.16 394.24 927.17 390.26 928.59 390.25 928.58 394.26 927.16 394.24"/><polygon class="cls-3" points="927.09 386.28 926.92 382.3 928.32 382.22 928.5 386.23 927.09 386.28"/><polygon class="cls-3" points="926.66 378.33 926.3 374.36 927.67 374.22 928.04 378.22 926.66 378.33"/><polygon class="cls-3" points="925.85 370.41 925.32 366.46 926.67 366.26 927.22 370.23 925.85 370.41"/><polygon class="cls-3" points="924.69 362.53 923.98 358.61 925.3 358.35 926.03 362.3 924.69 362.53"/><polygon class="cls-3" points="923.18 354.7 922.3 350.82 923.59 350.51 924.49 354.42 923.18 354.7"/><polygon class="cls-3" points="921.33 346.95 920.28 343.11 921.54 342.75 922.61 346.62 921.33 346.95"/><polygon class="cls-3" points="919.14 339.29 917.93 335.5 919.16 335.09 920.39 338.91 919.14 339.29"/><polygon class="cls-3" points="916.63 331.73 915.26 327.99 916.45 327.53 917.85 331.3 916.63 331.73"/><polygon class="cls-3" points="913.8 324.28 912.27 320.6 913.43 320.1 914.98 323.8 913.8 324.28"/><polygon class="cls-3" points="910.67 316.95 909 313.33 910.09 312.81 911.8 316.44 910.67 316.95"/><polygon class="cls-3" points="907.25 309.75 905.43 306.2 906.45 305.66 908.31 309.21 907.25 309.75"/><polygon class="cls-3" points="903.53 302.69 901.57 299.22 902.53 298.66 904.53 302.14 903.53 302.69"/><polygon class="cls-3" points="899.54 295.79 897.43 292.4 898.33 291.83 900.46 295.22 899.54 295.79"/><polygon class="cls-3" points="895.27 289.05 893.03 285.75 893.86 285.17 896.13 288.48 895.27 289.05"/><polygon class="cls-3" points="890.73 282.49 888.36 279.28 889.13 278.7 891.53 281.91 890.73 282.49"/><polygon class="cls-3" points="885.94 276.11 883.45 272.99 884.15 272.41 886.67 275.53 885.94 276.11"/><polygon class="cls-3" points="880.9 269.92 878.29 266.9 878.94 266.33 881.57 269.34 880.9 269.92"/><polygon class="cls-3" points="875.63 263.93 872.9 261.01 873.49 260.45 876.24 263.36 875.63 263.93"/><polygon class="cls-3" points="870.12 258.14 867.29 255.33 867.82 254.78 870.68 257.59 870.12 258.14"/><polygon class="cls-3" points="864.41 252.57 861.48 249.85 861.93 249.35 864.9 252.03 864.41 252.57"/><polygon class="cls-3" points="858.5 247.2 855.47 244.6 855.85 244.15 858.92 246.72 858.5 247.2"/><polygon class="cls-3" points="852.39 242.06 849.27 239.58 849.58 239.18 852.74 241.63 852.39 242.06"/><polygon class="cls-3" points="846.1 237.15 842.88 234.78 843.13 234.44 846.37 236.78 846.1 237.15"/><polygon class="cls-3" points="839.63 232.47 836.33 230.22 836.51 229.94 839.84 232.16 839.63 232.47"/><polygon class="cls-3" points="832.98 228.03 829.6 225.89 829.73 225.69 833.14 227.79 832.98 228.03"/><polygon class="cls-3" points="826.18 223.82 822.73 221.81 822.8 221.68 826.28 223.65 826.18 223.82"/><polygon class="cls-3" points="819.24 219.86 815.71 217.97 815.74 217.92 819.29 219.77 819.24 219.86"/><polygon class="cls-3" points="812.15 216.15 810.58 215.37 812.16 216.13 812.15 216.15"/><polygon class="cls-3" points="671.32 210.75 669.65 207.12 669.68 207.11 671.32 210.75"/><polygon class="cls-3" points="667.87 203.54 665.98 200.01 666.06 199.97 667.92 203.51 667.87 203.54"/><polygon class="cls-3" points="664 196.54 661.92 193.13 662.03 193.06 664.09 196.49 664 196.54"/><polygon class="cls-3" points="659.74 189.78 657.48 186.48 657.63 186.37 659.88 189.69 659.74 189.78"/><polygon class="cls-3" points="655.14 183.24 652.71 180.06 652.9 179.92 655.31 183.12 655.14 183.24"/><polygon class="cls-3" points="650.21 176.95 647.64 173.89 647.86 173.7 650.42 176.78 650.21 176.95"/><polygon class="cls-3" points="644.99 170.89 642.28 167.96 642.54 167.72 645.23 170.68 644.99 170.89"/><polygon class="cls-3" points="639.5 165.09 636.66 162.28 636.94 161.99 639.77 164.82 639.5 165.09"/><polygon class="cls-3" points="633.76 159.53 630.8 156.85 631.1 156.51 634.05 159.22 633.76 159.53"/><polygon class="cls-3" points="627.78 154.23 624.71 151.68 625.04 151.28 628.1 153.86 627.78 154.23"/><polygon class="cls-3" points="621.59 149.19 618.41 146.77 618.75 146.32 621.92 148.77 621.59 149.19"/><polygon class="cls-3" points="615.18 144.42 611.91 142.13 612.26 141.62 615.53 143.94 615.18 144.42"/><polygon class="cls-3" points="608.59 139.91 605.23 137.76 605.58 137.2 608.94 139.37 608.59 139.91"/><polygon class="cls-3" points="601.82 135.68 598.37 133.67 598.73 133.05 602.18 135.09 601.82 135.68"/><polygon class="cls-3" points="594.88 131.73 591.35 129.86 591.7 129.18 595.24 131.08 594.88 131.73"/><polygon class="cls-3" points="587.79 128.06 584.19 126.34 584.53 125.62 588.13 127.36 587.79 128.06"/><polygon class="cls-3" points="580.56 124.68 576.89 123.1 577.21 122.34 580.89 123.94 580.56 124.68"/><polygon class="cls-3" points="573.19 121.6 569.47 120.17 569.77 119.37 573.5 120.82 573.19 121.6"/><polygon class="cls-3" points="565.71 118.81 561.93 117.53 562.21 116.69 566 117.99 565.71 118.81"/><polygon class="cls-3" points="558.13 116.33 554.3 115.21 554.55 114.33 558.39 115.47 558.13 116.33"/><polygon class="cls-3" points="550.45 114.16 546.58 113.2 546.8 112.28 550.69 113.26 550.45 114.16"/><polygon class="cls-3" points="542.69 112.3 538.78 111.49 538.97 110.53 542.9 111.37 542.69 112.3"/><polygon class="cls-3" points="534.86 110.76 530.92 110.1 531.08 109.11 535.03 109.78 534.86 110.76"/><polygon class="cls-3" points="526.98 109.53 523.02 109.03 523.14 108 527.12 108.52 526.98 109.53"/><polygon class="cls-3" points="519.05 108.61 515.08 108.27 515.16 107.21 519.15 107.56 519.05 108.61"/><polygon class="cls-3" points="511.1 108.01 507.11 107.82 507.15 106.72 511.16 106.93 511.1 108.01"/><polygon class="cls-3" points="503.12 107.71 499.13 107.68 499.13 106.56 503.14 106.6 503.12 107.71"/><polygon class="cls-3" points="495.15 107.73 491.16 107.85 491.11 106.69 495.12 106.59 495.15 107.73"/><path class="cls-3" d="m487.17,108.05c-1.33.09-2.66.17-3.98.27l-.09-1.18c1.34-.1,2.67-.18,4-.26l.07,1.17Z"/><polygon class="cls-3" points="479.23 108.71 475.29 109.21 475.11 108.01 479.1 107.51 479.23 108.71"/><polygon class="cls-3" points="471.35 109.84 467.44 110.58 467.19 109.35 471.14 108.62 471.35 109.84"/><polygon class="cls-3" points="463.55 111.43 459.69 112.39 459.36 111.16 463.27 110.2 463.55 111.43"/><polygon class="cls-3" points="455.85 113.45 452.04 114.62 451.65 113.4 455.49 112.23 455.85 113.45"/><polygon class="cls-3" points="448.27 115.9 444.53 117.27 444.07 116.06 447.84 114.68 448.27 115.9"/><polygon class="cls-3" points="440.83 118.74 437.17 120.31 436.64 119.12 440.34 117.54 440.83 118.74"/><polygon class="cls-3" points="433.55 121.97 429.97 123.72 429.38 122.55 432.99 120.79 433.55 121.97"/><polygon class="cls-3" points="426.43 125.55 422.94 127.47 422.29 126.32 425.81 124.39 426.43 125.55"/><polygon class="cls-3" points="419.5 129.48 416.1 131.56 415.39 130.44 418.82 128.34 419.5 129.48"/><polygon class="cls-3" points="412.76 133.73 409.46 135.96 408.7 134.86 412.02 132.61 412.76 133.73"/><polygon class="cls-3" points="406.22 138.28 403.02 140.66 402.21 139.59 405.42 137.19 406.22 138.28"/><polygon class="cls-3" points="399.89 143.12 396.8 145.64 395.93 144.6 399.04 142.06 399.89 143.12"/><polygon class="cls-3" points="393.78 148.24 390.81 150.89 389.88 149.88 392.88 147.21 393.78 148.24"/><polygon class="cls-3" points="387.89 153.61 385.04 156.39 384.07 155.41 386.95 152.62 387.89 153.61"/><polygon class="cls-3" points="382.25 159.23 379.51 162.13 378.49 161.19 381.25 158.27 382.25 159.23"/><polygon class="cls-3" points="376.84 165.09 374.23 168.1 373.17 167.2 375.8 164.17 376.84 165.09"/><polygon class="cls-3" points="371.69 171.17 369.21 174.29 368.1 173.43 370.6 170.29 371.69 171.17"/><polygon class="cls-3" points="366.8 177.46 364.46 180.69 363.3 179.86 365.67 176.62 366.8 177.46"/><polygon class="cls-3" points="362.18 183.96 359.97 187.28 358.78 186.5 361 183.16 362.18 183.96"/><polygon class="cls-3" points="357.84 190.64 355.78 194.05 354.54 193.32 356.62 189.89 357.84 190.64"/><polygon class="cls-3" points="353.79 197.5 351.88 201 350.6 200.32 352.53 196.8 353.79 197.5"/><polygon class="cls-3" points="350.04 204.54 348.29 208.11 346.97 207.48 348.75 203.88 350.04 204.54"/><polygon class="cls-3" points="346.61 211.73 345.01 215.37 343.66 214.8 345.27 211.12 346.61 211.73"/><polygon class="cls-3" points="343.5 219.06 342.07 222.78 340.68 222.26 342.13 218.51 343.5 219.06"/><polygon class="cls-3" points="340.73 226.53 339.47 230.31 338.05 229.85 339.32 226.04 340.73 226.53"/><polygon class="cls-3" points="338.3 234.11 337.23 237.95 335.78 237.56 336.87 233.69 338.3 234.11"/><polygon class="cls-3" points="336.24 241.81 335.34 245.69 333.89 245.37 334.79 241.45 336.24 241.81"/><polygon class="cls-3" points="334.54 249.59 333.84 253.5 332.38 253.26 333.08 249.31 334.54 249.59"/><polygon class="cls-3" points="333.23 257.44 332.73 261.39 331.27 261.22 331.77 257.23 333.23 257.44"/><polygon class="cls-3" points="332.32 265.35 332.02 269.32 330.56 269.23 330.86 265.22 332.32 265.35"/><path class="cls-2" d="m611.21,207.7c.66-.01,1.67-.04,2.67-.16.24-.03.38-.12.52-.31,1.18-1.65,2.18-3.4,3.01-5.25.1-.22.12-.41,0-.63-.87-1.86-1.87-3.64-3.1-5.29-.13-.17-.26-.25-.46-.27-2.06-.21-4.12-.19-6.17.03-.18.02-.32.1-.43.26-1.21,1.7-2.26,3.5-3.1,5.42-.06.15-.07.27,0,.43.87,1.91,1.92,3.72,3.16,5.42.09.13.19.21.36.23,1.06.11,2.13.16,3.54.14Z"/><polygon class="cls-3" points="643.57 217.08 641.86 213.46 641.89 213.44 643.57 217.08"/><polygon class="cls-3" points="640.01 209.92 638.01 206.46 638.1 206.4 640.07 209.89 640.01 209.92"/><polygon class="cls-3" points="635.89 203.07 633.65 199.76 633.78 199.66 636 203 635.89 203.07"/><polygon class="cls-3" points="631.29 196.53 628.84 193.37 629.02 193.23 631.45 196.41 631.29 196.53"/><polygon class="cls-3" points="626.29 190.3 623.65 187.3 623.87 187.1 626.49 190.12 626.29 190.3"/><polygon class="cls-3" points="620.92 184.38 618.12 181.53 618.38 181.27 621.17 184.15 620.92 184.38"/><polygon class="cls-3" points="615.24 178.76 612.29 176.07 612.58 175.74 615.52 178.47 615.24 178.76"/><polygon class="cls-3" points="609.28 173.45 606.2 170.91 606.51 170.51 609.58 173.09 609.28 173.45"/><polygon class="cls-3" points="603.06 168.44 599.86 166.05 600.2 165.59 603.38 168.01 603.06 168.44"/><polygon class="cls-3" points="596.6 163.73 593.3 161.5 593.65 160.97 596.95 163.24 596.6 163.73"/><polygon class="cls-3" points="589.94 159.33 586.54 157.25 586.9 156.65 590.3 158.77 589.94 159.33"/><polygon class="cls-3" points="583.08 155.25 579.59 153.32 579.95 152.65 583.45 154.61 583.08 155.25"/><polygon class="cls-3" points="576.05 151.47 572.47 149.7 572.82 148.98 576.41 150.77 576.05 151.47"/><polygon class="cls-3" points="568.86 148.02 565.2 146.42 565.53 145.65 569.19 147.27 568.86 148.02"/><polygon class="cls-3" points="561.51 144.9 557.78 143.48 558.09 142.66 561.83 144.11 561.51 144.9"/><polygon class="cls-3" points="554.02 142.15 550.23 140.91 550.51 140.04 554.31 141.3 554.02 142.15"/><polygon class="cls-3" points="546.41 139.76 542.56 138.71 542.8 137.79 546.67 138.87 546.41 139.76"/><polygon class="cls-3" points="538.69 137.77 534.79 136.92 534.99 135.95 538.91 136.82 538.69 137.77"/><polygon class="cls-3" points="530.88 136.18 526.94 135.55 527.09 134.54 531.05 135.19 530.88 136.18"/><polygon class="cls-3" points="522.99 135.04 519.02 134.64 519.12 133.58 523.11 134 522.99 135.04"/><polygon class="cls-3" points="515.05 134.36 511.07 134.2 511.1 133.1 515.11 133.27 515.05 134.36"/><polygon class="cls-3" points="507.09 134.16 503.11 134.26 503.06 133.12 507.08 133.04 507.09 134.16"/><polygon class="cls-3" points="499.13 134.49 495.17 134.86 495.05 133.69 499.05 133.33 499.13 134.49"/><polygon class="cls-3" points="491.23 135.36 487.3 135.99 487.09 134.8 491.06 134.18 491.23 135.36"/><polygon class="cls-3" points="483.39 136.75 479.51 137.63 479.21 136.42 483.14 135.54 483.39 136.75"/><polygon class="cls-3" points="475.65 138.63 471.83 139.74 471.46 138.52 475.32 137.41 475.65 138.63"/><polygon class="cls-3" points="468.04 140.96 464.28 142.29 463.84 141.08 467.63 139.75 468.04 140.96"/><polygon class="cls-3" points="460.57 143.72 456.89 145.25 456.38 144.06 460.09 142.52 460.57 143.72"/><polygon class="cls-3" points="453.26 146.88 449.67 148.6 449.09 147.43 452.71 145.69 453.26 146.88"/><polygon class="cls-3" points="446.13 150.42 442.64 152.34 441.99 151.18 445.51 149.26 446.13 150.42"/><polygon class="cls-3" points="439.19 154.34 435.8 156.43 435.09 155.3 438.51 153.19 439.19 154.34"/><polygon class="cls-3" points="432.46 158.6 429.18 160.86 428.4 159.75 431.72 157.48 432.46 158.6"/><polygon class="cls-3" points="425.96 163.2 422.8 165.62 421.96 164.55 425.15 162.11 425.96 163.2"/><polygon class="cls-3" points="419.7 168.12 416.66 170.7 415.76 169.66 418.83 167.07 419.7 168.12"/><polygon class="cls-3" points="413.7 173.36 410.8 176.09 409.84 175.09 412.76 172.34 413.7 173.36"/><polygon class="cls-3" points="407.98 178.89 405.23 181.77 404.2 180.82 406.98 177.92 407.98 178.89"/><polygon class="cls-3" points="402.55 184.72 399.96 187.75 398.88 186.84 401.5 183.79 402.55 184.72"/><polygon class="cls-3" points="397.46 190.84 395.04 194 393.89 193.15 396.34 189.96 397.46 190.84"/><polygon class="cls-3" points="392.71 197.23 390.47 200.52 389.27 199.73 391.54 196.4 392.71 197.23"/><polygon class="cls-3" points="388.34 203.87 386.3 207.29 385.04 206.57 387.11 203.12 388.34 203.87"/><polygon class="cls-3" points="384.37 210.77 382.55 214.31 381.24 213.65 383.09 210.08 384.37 210.77"/><polygon class="cls-3" points="380.84 217.9 379.25 221.54 377.88 220.97 379.5 217.28 380.84 217.9"/><polygon class="cls-3" points="377.77 225.23 376.43 228.97 375.02 228.49 376.39 224.7 377.77 225.23"/><polygon class="cls-3" points="375.2 232.75 374.12 236.57 372.67 236.19 373.77 232.32 375.2 232.75"/><polygon class="cls-3" points="373.15 240.43 372.33 244.32 370.87 244.04 371.7 240.1 373.15 240.43"/><polygon class="cls-3" points="371.65 248.23 371.11 252.17 369.65 251.99 370.19 248 371.65 248.23"/><polygon class="cls-3" points="370.72 256.12 370.47 260.08 369.01 260.02 369.25 256 370.72 256.12"/><polygon class="cls-3" points="733.32 209.26 731.67 205.61 731.69 205.61 733.32 209.26"/><polygon class="cls-3" points="729.94 202.01 728.13 198.44 728.19 198.41 729.98 201.99 729.94 202.01"/><polygon class="cls-3" points="726.24 194.92 724.28 191.43 724.38 191.38 726.32 194.88 726.24 194.92"/><polygon class="cls-3" points="722.25 187.99 720.15 184.59 720.29 184.5 722.37 187.92 722.25 187.99"/><polygon class="cls-3" points="717.99 181.23 715.76 177.91 715.93 177.79 718.14 181.13 717.99 181.23"/><polygon class="cls-3" points="713.47 174.63 711.12 171.39 711.32 171.25 713.65 174.5 713.47 174.63"/><polygon class="cls-3" points="708.72 168.2 706.26 165.05 706.48 164.87 708.93 168.04 708.72 168.2"/><polygon class="cls-3" points="703.74 161.95 701.17 158.89 701.42 158.67 703.98 161.75 703.74 161.95"/><polygon class="cls-3" points="698.55 155.87 695.88 152.89 696.16 152.64 698.82 155.63 698.55 155.87"/><polygon class="cls-3" points="693.16 149.96 690.39 147.08 690.7 146.79 693.45 149.69 693.16 149.96"/><polygon class="cls-3" points="687.58 144.24 684.73 141.45 685.05 141.11 687.9 143.93 687.58 144.24"/><polygon class="cls-3" points="681.82 138.7 678.88 136 679.23 135.62 682.16 138.34 681.82 138.7"/><polygon class="cls-3" points="675.9 133.34 672.87 130.73 673.23 130.31 676.25 132.94 675.9 133.34"/><polygon class="cls-3" points="669.81 128.17 666.7 125.66 667.08 125.19 670.17 127.73 669.81 128.17"/><polygon class="cls-3" points="663.56 123.19 660.38 120.77 660.77 120.26 663.94 122.7 663.56 123.19"/><polygon class="cls-3" points="657.17 118.4 653.92 116.08 654.31 115.51 657.56 117.86 657.17 118.4"/><polygon class="cls-3" points="650.63 113.8 647.31 111.58 647.72 110.97 651.03 113.22 650.63 113.8"/><polygon class="cls-3" points="643.96 109.4 640.59 107.27 640.99 106.63 644.37 108.77 643.96 109.4"/><polygon class="cls-3" points="637.18 105.19 633.74 103.16 634.12 102.49 637.57 104.54 637.18 105.19"/><polygon class="cls-3" points="630.27 101.19 626.77 99.26 627.14 98.56 630.65 100.5 630.27 101.19"/><polygon class="cls-3" points="623.24 97.38 619.69 95.56 620.05 94.84 623.61 96.68 623.24 97.38"/><polygon class="cls-3" points="616.11 93.79 612.5 92.07 612.85 91.33 616.46 93.06 616.11 93.79"/><polygon class="cls-3" points="608.87 90.41 605.22 88.8 605.55 88.03 609.21 89.65 608.87 90.41"/><polygon class="cls-3" points="601.54 87.24 597.84 85.74 598.15 84.95 601.86 86.46 601.54 87.24"/><polygon class="cls-3" points="594.12 84.29 590.37 82.9 590.67 82.08 594.42 83.49 594.12 84.29"/><polygon class="cls-3" points="586.61 81.56 582.83 80.28 583.11 79.44 586.9 80.74 586.61 81.56"/><polygon class="cls-3" points="579.03 79.05 575.21 77.88 575.47 77.02 579.3 78.2 579.03 79.05"/><polygon class="cls-3" points="571.38 76.77 567.53 75.71 567.77 74.83 571.63 75.9 571.38 76.77"/><polygon class="cls-3" points="563.66 74.71 559.79 73.76 560 72.86 563.89 73.81 563.66 74.71"/><polygon class="cls-3" points="555.89 72.87 551.99 72.04 552.18 71.12 556.09 71.96 555.89 72.87"/><polygon class="cls-3" points="548.07 71.27 544.14 70.55 544.31 69.6 548.25 70.33 548.07 71.27"/><polygon class="cls-3" points="540.2 69.89 536.26 69.29 536.4 68.32 540.36 68.93 540.2 69.89"/><polygon class="cls-3" points="532.3 68.74 528.34 68.25 528.45 67.27 532.43 67.77 532.3 68.74"/><polygon class="cls-3" points="524.37 67.82 520.4 67.44 520.48 66.44 524.47 66.83 524.37 67.82"/><polygon class="cls-3" points="516.42 67.13 512.43 66.87 512.49 65.85 516.49 66.12 516.42 67.13"/><polygon class="cls-3" points="508.44 66.66 504.45 66.51 504.49 65.48 508.49 65.63 508.44 66.66"/><polygon class="cls-3" points="500.46 66.42 496.47 66.39 496.47 65.34 500.48 65.38 500.46 66.42"/><polygon class="cls-3" points="492.48 66.41 488.49 66.48 488.46 65.42 492.47 65.35 492.48 66.41"/><polygon class="cls-3" points="484.5 66.61 480.51 66.8 480.45 65.72 484.46 65.54 484.5 66.61"/><polygon class="cls-3" points="476.52 67.04 472.54 67.34 472.45 66.24 476.45 65.95 476.52 67.04"/><polygon class="cls-3" points="468.57 67.69 464.59 68.1 464.47 66.99 468.46 66.59 468.57 67.69"/><polygon class="cls-3" points="460.63 68.57 456.67 69.1 456.52 67.98 460.49 67.46 460.63 68.57"/><polygon class="cls-3" points="452.73 69.69 448.79 70.34 448.6 69.22 452.55 68.57 452.73 69.69"/><polygon class="cls-3" points="444.86 71.06 440.95 71.84 440.72 70.71 444.65 69.94 444.86 71.06"/><polygon class="cls-3" points="437.05 72.69 433.17 73.61 432.89 72.47 436.8 71.56 437.05 72.69"/><polygon class="cls-3" points="429.3 74.59 425.45 75.64 425.13 74.5 429 73.45 429.3 74.59"/><polygon class="cls-3" points="421.62 76.76 417.82 77.95 417.45 76.8 421.28 75.62 421.62 76.76"/><polygon class="cls-3" points="414.03 79.2 410.27 80.53 409.86 79.39 413.64 78.06 414.03 79.2"/><polygon class="cls-3" points="406.53 81.93 402.83 83.4 402.36 82.26 406.1 80.79 406.53 81.93"/><polygon class="cls-3" points="399.15 84.94 395.5 86.55 394.99 85.42 398.66 83.81 399.15 84.94"/><polygon class="cls-3" points="391.89 88.24 388.31 89.99 387.74 88.87 391.35 87.11 391.89 88.24"/><polygon class="cls-3" points="384.76 91.82 381.25 93.72 380.64 92.61 384.17 90.7 384.76 91.82"/><polygon class="cls-3" points="377.79 95.69 374.36 97.72 373.69 96.63 377.15 94.58 377.79 95.69"/><polygon class="cls-3" points="370.97 99.83 367.63 102 366.91 100.92 370.28 98.74 370.97 99.83"/><polygon class="cls-3" points="364.34 104.25 361.09 106.56 360.32 105.49 363.59 103.17 364.34 104.25"/><polygon class="cls-3" points="357.88 108.93 354.73 111.37 353.91 110.32 357.09 107.88 357.88 108.93"/><polygon class="cls-3" points="351.62 113.87 348.57 116.43 347.7 115.41 350.78 112.84 351.62 113.87"/><polygon class="cls-3" points="345.57 119.05 342.62 121.74 341.7 120.74 344.67 118.05 345.57 119.05"/><polygon class="cls-3" points="339.72 124.48 336.88 127.27 335.91 126.3 338.78 123.49 339.72 124.48"/><polygon class="cls-3" points="334.09 130.12 331.36 133.02 330.34 132.08 333.1 129.17 334.09 130.12"/><polygon class="cls-3" points="328.68 135.98 326.06 138.98 325 138.07 327.64 135.05 328.68 135.98"/><polygon class="cls-3" points="323.49 142.03 320.98 145.13 319.87 144.25 322.41 141.13 323.49 142.03"/><polygon class="cls-3" points="318.52 148.27 316.13 151.46 314.98 150.6 317.4 147.4 318.52 148.27"/><polygon class="cls-3" points="313.78 154.68 311.49 157.95 310.31 157.13 312.61 153.85 313.78 154.68"/><polygon class="cls-3" points="309.26 161.25 307.09 164.59 305.86 163.81 308.05 160.45 309.26 161.25"/><polygon class="cls-3" points="304.96 167.97 302.9 171.38 301.63 170.63 303.72 167.2 304.96 167.97"/><polygon class="cls-3" points="300.89 174.83 298.93 178.3 297.63 177.58 299.6 174.09 300.89 174.83"/><polygon class="cls-3" points="297.02 181.81 295.17 185.34 293.84 184.65 295.71 181.1 297.02 181.81"/><polygon class="cls-3" points="293.37 188.9 291.61 192.48 290.27 191.84 292.03 188.23 293.37 188.9"/><polygon class="cls-3" points="289.91 196.09 288.26 199.72 286.92 199.12 288.57 195.47 289.91 196.09"/><polygon class="cls-3" points="286.66 203.38 285.12 207.05 283.77 206.5 285.32 202.8 286.66 203.38"/><polygon class="cls-3" points="283.62 210.75 282.17 214.47 280.82 213.96 282.27 210.22 283.62 210.75"/><polygon class="cls-3" points="280.77 218.21 279.42 221.96 278.08 221.49 279.42 217.72 280.77 218.21"/><polygon class="cls-3" points="278.12 225.74 276.87 229.53 275.52 229.09 276.77 225.28 278.12 225.74"/><polygon class="cls-3" points="275.66 233.33 274.5 237.15 273.16 236.76 274.32 232.92 275.66 233.33"/><polygon class="cls-3" points="273.39 240.99 272.33 244.83 271 244.48 272.06 240.61 273.39 240.99"/><polygon class="cls-3" points="271.32 248.7 270.35 252.57 269.02 252.25 269.98 248.36 271.32 248.7"/><polygon class="cls-3" points="269.43 256.45 268.56 260.35 267.24 260.06 268.11 256.15 269.43 256.45"/><polygon class="cls-3" points="267.74 264.26 266.97 268.17 265.65 267.92 266.42 263.99 267.74 264.26"/><polygon class="cls-3" points="266.25 272.1 265.58 276.03 264.27 275.82 264.94 271.87 266.25 272.1"/><polygon class="cls-3" points="264.97 279.98 264.42 283.93 263.12 283.76 263.67 279.79 264.97 279.98"/><polygon class="cls-3" points="263.93 287.89 263.54 291.85 262.25 291.74 262.64 287.74 263.93 287.89"/><circle class="cls-2" cx="289.52" cy="497.76" r="29.36"/><path class="cls-2" d="m632.72,725.82c.66-.01,1.67-.04,2.67-.16.24-.03.38-.12.52-.31,1.17-1.65,2.18-3.4,3.01-5.25.1-.22.12-.41,0-.63-.87-1.86-1.87-3.64-3.1-5.28-.13-.17-.26-.25-.46-.27-2.06-.21-4.11-.19-6.17.03-.18.02-.32.1-.43.26-1.21,1.7-2.25,3.5-3.1,5.41-.06.15-.07.27,0,.43.87,1.91,1.92,3.72,3.16,5.42.09.13.19.21.36.23,1.06.11,2.13.16,3.54.14Z"/><path class="cls-2" d="m632.72,748.54c.66-.01,1.67-.04,2.67-.16.24-.03.38-.12.52-.31,1.17-1.65,2.18-3.4,3.01-5.25.1-.22.12-.41,0-.63-.87-1.86-1.87-3.64-3.1-5.28-.13-.17-.26-.25-.46-.27-2.06-.21-4.11-.19-6.17.03-.18.02-.32.1-.43.26-1.21,1.7-2.25,3.5-3.1,5.41-.06.15-.07.27,0,.43.87,1.91,1.92,3.72,3.16,5.42.09.13.19.21.36.23,1.06.11,2.13.16,3.54.14Z"/><path class="cls-2" d="m632.72,671.11c.66-.01,1.67-.04,2.67-.16.24-.03.38-.12.52-.31,1.17-1.65,2.18-3.4,3.01-5.25.1-.22.12-.41,0-.63-.87-1.86-1.87-3.64-3.1-5.28-.13-.17-.26-.25-.46-.27-2.06-.21-4.11-.19-6.17.03-.18.02-.32.1-.43.26-1.21,1.7-2.25,3.5-3.1,5.41-.06.15-.07.27,0,.43.87,1.91,1.92,3.72,3.16,5.42.09.13.19.21.36.23,1.06.11,2.13.16,3.54.14Z"/><path class="cls-2" d="m632.72,648.38c.66-.01,1.67-.04,2.67-.16.24-.03.38-.12.52-.31,1.17-1.65,2.18-3.4,3.01-5.25.1-.22.12-.41,0-.63-.87-1.86-1.87-3.64-3.1-5.28-.13-.17-.26-.25-.46-.27-2.06-.21-4.11-.19-6.17.03-.18.02-.32.1-.43.26-1.21,1.7-2.25,3.5-3.1,5.41-.06.15-.07.27,0,.43.87,1.91,1.92,3.72,3.16,5.42.09.13.19.21.36.23,1.06.11,2.13.16,3.54.14Z"/><path class="cls-2" d="m632.72,570.95c.66-.01,1.67-.04,2.67-.16.24-.03.38-.12.52-.31,1.17-1.65,2.18-3.4,3.01-5.25.1-.22.12-.41,0-.63-.87-1.86-1.87-3.64-3.1-5.28-.13-.17-.26-.25-.46-.27-2.06-.21-4.11-.19-6.17.03-.18.02-.32.1-.43.26-1.21,1.7-2.25,3.5-3.1,5.41-.06.15-.07.27,0,.43.87,1.91,1.92,3.72,3.16,5.42.09.13.19.21.36.23,1.06.11,2.13.16,3.54.14Z"/><path class="cls-2" d="m761.44,315.01c.6.27,1.52.67,2.48.99.23.08.4.05.6-.06,1.77-.99,3.42-2.14,4.97-3.46.19-.16.28-.32.28-.57,0-2.05-.13-4.09-.54-6.1-.04-.21-.13-.34-.3-.44-1.77-1.07-3.63-1.94-5.59-2.61-.17-.06-.33-.05-.5.05-1.83,1.02-3.54,2.2-5.12,3.56-.12.1-.18.22-.19.38-.03,2.1.14,4.19.54,6.25.03.15.08.27.23.36.92.55,1.86,1.05,3.14,1.65Z"/><path class="cls-2" d="m633.02,703.09c1.17-.02,2.95-.08,4.71-.29.42-.05.68-.22.92-.55,2.08-2.92,3.85-6.01,5.32-9.28.18-.4.2-.72.02-1.12-1.54-3.28-3.31-6.43-5.48-9.34-.22-.3-.47-.44-.82-.48-3.64-.36-7.27-.34-10.91.05-.32.04-.57.17-.77.45-2.15,3.01-3.99,6.19-5.48,9.57-.11.26-.13.48,0,.75,1.54,3.38,3.4,6.58,5.59,9.58.16.22.33.37.64.4,1.88.19,3.76.28,6.26.25Z"/><path class="cls-2" d="m632.72,80.83c.66-.01,1.67-.04,2.67-.16.24-.03.38-.12.52-.31,1.17-1.65,2.18-3.4,3.01-5.25.1-.22.12-.41,0-.63-.87-1.86-1.87-3.64-3.1-5.28-.13-.17-.26-.25-.46-.27-2.06-.21-4.11-.19-6.17.03-.18.02-.32.1-.43.26-1.21,1.7-2.25,3.5-3.1,5.41-.06.15-.07.27,0,.43.87,1.91,1.92,3.72,3.16,5.42.09.13.19.21.36.23,1.06.11,2.13.16,3.54.14Z"/><path class="cls-2" d="m632.72,103.56c.66-.01,1.67-.04,2.67-.16.24-.03.38-.12.52-.31,1.17-1.65,2.18-3.4,3.01-5.25.1-.22.12-.41,0-.63-.87-1.86-1.87-3.64-3.1-5.28-.13-.17-.26-.25-.46-.27-2.06-.21-4.11-.19-6.17.03-.18.02-.32.1-.43.26-1.21,1.7-2.25,3.5-3.1,5.41-.06.15-.07.27,0,.43.87,1.91,1.92,3.72,3.16,5.42.09.13.19.21.36.23,1.06.11,2.13.16,3.54.14Z"/><path class="cls-2" d="m632.72,26.12c.66-.01,1.67-.04,2.67-.16.24-.03.38-.12.52-.31,1.17-1.65,2.18-3.4,3.01-5.25.1-.22.12-.41,0-.63-.87-1.86-1.87-3.64-3.1-5.28-.13-.17-.26-.25-.46-.27-2.06-.21-4.11-.19-6.17.03-.18.02-.32.1-.43.26-1.21,1.7-2.25,3.5-3.1,5.41-.06.15-.07.27,0,.43.87,1.91,1.92,3.72,3.16,5.42.09.13.19.21.36.23,1.06.11,2.13.16,3.54.14Z"/><path class="cls-2" d="m633.02,58.11c1.17-.02,2.95-.08,4.71-.29.42-.05.68-.22.92-.55,2.08-2.92,3.85-6.01,5.32-9.28.18-.4.2-.72.02-1.12-1.54-3.28-3.31-6.43-5.48-9.34-.22-.3-.47-.44-.82-.48-3.64-.36-7.27-.34-10.91.05-.32.04-.57.17-.77.45-2.15,3.01-3.99,6.19-5.48,9.57-.11.26-.13.48,0,.75,1.54,3.38,3.4,6.58,5.59,9.58.16.22.33.37.64.4,1.88.19,3.76.28,6.26.25Z"/><polygon class="cls-3" points="199.86 201.52 200.1 197.52 200.21 197.53 199.86 201.52"/><polygon class="cls-3" points="200.17 193.52 200.09 189.53 200.42 189.52 200.4 193.53 200.17 193.52"/><polygon class="cls-3" points="199.86 185.54 199.47 181.57 199.96 181.52 200.27 185.52 199.86 185.54"/><polygon class="cls-3" points="198.91 177.62 198.19 173.7 198.85 173.57 199.49 177.53 198.91 177.62"/><polygon class="cls-3" points="197.32 169.81 196.29 165.96 197.07 165.74 198.05 169.63 197.32 169.81"/><polygon class="cls-3" points="195.11 162.15 193.77 158.41 194.63 158.08 195.93 161.89 195.11 162.15"/><polygon class="cls-3" points="192.27 154.72 190.61 151.1 191.54 150.66 193.16 154.34 192.27 154.72"/><polygon class="cls-3" points="188.8 147.56 186.83 144.11 187.81 143.53 189.75 147.06 188.8 147.56"/><polygon class="cls-3" points="184.71 140.75 182.44 137.48 183.45 136.76 185.71 140.1 184.71 140.75"/><polygon class="cls-3" points="180.03 134.33 177.48 131.29 178.46 130.43 181.03 133.54 180.03 134.33"/><polygon class="cls-3" points="174.79 128.37 171.96 125.59 172.87 124.62 175.74 127.46 174.79 128.37"/><polygon class="cls-3" points="169 122.95 165.91 120.47 166.74 119.39 169.87 121.92 169 122.95"/><polygon class="cls-3" points="162.69 118.15 159.36 116 160.09 114.81 163.47 117.01 162.69 118.15"/><path class="cls-3" d="m155.93,114.04c-1.17-.6-2.34-1.22-3.54-1.78l.61-1.3c1.22.58,2.4,1.21,3.6,1.83l-.67,1.25Z"/><polygon class="cls-3" points="148.76 110.67 145.06 109.27 145.54 107.88 149.31 109.32 148.76 110.67"/><polygon class="cls-3" points="141.28 108.07 137.45 107.07 137.79 105.61 141.7 106.64 141.28 108.07"/><polygon class="cls-3" points="133.57 106.24 129.66 105.61 129.85 104.17 133.84 104.79 133.57 106.24"/><polygon class="cls-3" points="125.72 105.18 121.77 104.93 121.82 103.51 125.84 103.74 125.72 105.18"/><polygon class="cls-3" points="117.8 104.88 113.84 105.01 113.76 103.62 117.78 103.47 117.8 104.88"/><polygon class="cls-3" points="109.88 105.32 105.94 105.81 105.74 104.47 109.74 103.96 109.88 105.32"/><polygon class="cls-3" points="102.03 106.47 98.15 107.31 97.84 106.03 101.77 105.16 102.03 106.47"/><polygon class="cls-3" points="94.31 108.31 90.51 109.48 90.1 108.27 93.95 107.07 94.31 108.31"/><polygon class="cls-3" points="86.77 110.81 83.08 112.28 82.6 111.18 86.32 109.64 86.77 110.81"/><polygon class="cls-3" points="79.45 113.91 75.89 115.69 75.37 114.72 78.95 112.87 79.45 113.91"/><polygon class="cls-3" points="72.41 117.61 69.01 119.68 68.47 118.85 71.88 116.71 72.41 117.61"/><polygon class="cls-3" points="65.7 121.89 62.48 124.23 61.94 123.53 65.16 121.12 65.7 121.89"/><polygon class="cls-3" points="59.36 126.7 56.34 129.3 55.82 128.73 58.83 126.07 59.36 126.7"/><polygon class="cls-3" points="53.43 132.01 50.62 134.84 50.18 134.42 52.94 131.52 53.43 132.01"/><polygon class="cls-3" points="47.93 137.78 45.36 140.83 45.02 140.56 47.53 137.44 47.93 137.78"/><polygon class="cls-3" points="42.91 143.98 40.59 147.23 40.37 147.09 42.63 143.78 42.91 143.98"/><polygon class="cls-3" points="38.39 150.57 36.31 153.99 36.29 153.97 38.26 150.49 38.39 150.57"/><polygon class="cls-3" points="287.59 579.58 291.58 579.81 291.57 579.92 287.59 579.58"/><polygon class="cls-3" points="295.58 579.88 299.57 579.81 299.58 580.13 295.57 580.12 295.58 579.88"/><polygon class="cls-3" points="303.56 579.57 307.53 579.18 307.58 579.67 303.59 579.98 303.56 579.57"/><polygon class="cls-3" points="311.48 578.62 315.4 577.9 315.53 578.57 311.57 579.2 311.48 578.62"/><polygon class="cls-3" points="319.29 577.03 323.14 576 323.36 576.79 319.47 577.76 319.29 577.03"/><polygon class="cls-3" points="326.95 574.82 330.7 573.48 331.02 574.34 327.22 575.64 326.95 574.82"/><polygon class="cls-3" points="334.38 571.98 338 570.32 338.44 571.25 334.76 572.88 334.38 571.98"/><polygon class="cls-3" points="341.54 568.51 344.99 566.54 345.57 567.52 342.05 569.46 341.54 568.51"/><polygon class="cls-3" points="348.36 564.43 351.62 562.16 352.34 563.16 349 565.42 348.36 564.43"/><polygon class="cls-3" points="354.77 559.75 357.82 557.2 358.67 558.17 355.57 560.74 354.77 559.75"/><polygon class="cls-3" points="360.73 554.51 363.51 551.68 364.48 552.59 361.64 555.45 360.73 554.51"/><polygon class="cls-3" points="366.15 548.71 368.63 545.62 369.71 546.45 367.18 549.58 366.15 548.71"/><polygon class="cls-3" points="370.95 542.41 373.1 539.07 374.29 539.8 372.09 543.19 370.95 542.41"/><path class="cls-3" d="m375.07,535.64c.6-1.17,1.22-2.34,1.78-3.54l1.3.61c-.58,1.22-1.21,2.4-1.83,3.6l-1.25-.67Z"/><polygon class="cls-3" points="378.44 528.48 379.83 524.77 381.22 525.25 379.78 529.02 378.44 528.48"/><polygon class="cls-3" points="381.03 520.99 382.04 517.16 383.49 517.51 382.46 521.41 381.03 520.99"/><polygon class="cls-3" points="382.86 513.29 383.49 509.37 384.93 509.57 384.31 513.55 382.86 513.29"/><polygon class="cls-3" points="383.92 505.43 384.17 501.48 385.59 501.53 385.36 505.56 383.92 505.43"/><polygon class="cls-3" points="384.22 497.51 384.09 493.55 385.48 493.47 385.63 497.5 384.22 497.51"/><polygon class="cls-3" points="383.78 489.59 383.29 485.65 384.63 485.45 385.15 489.45 383.78 489.59"/><polygon class="cls-3" points="382.63 481.74 381.79 477.86 383.07 477.55 383.94 481.48 382.63 481.74"/><polygon class="cls-3" points="380.79 474.02 379.62 470.22 380.83 469.82 382.04 473.66 380.79 474.02"/><polygon class="cls-3" points="378.29 466.48 376.82 462.79 377.92 462.31 379.46 466.03 378.29 466.48"/><polygon class="cls-3" points="375.19 459.16 373.41 455.6 374.38 455.09 376.23 458.66 375.19 459.16"/><polygon class="cls-3" points="371.49 452.12 369.42 448.72 370.25 448.19 372.39 451.59 371.49 452.12"/><polygon class="cls-3" points="367.21 445.41 364.87 442.19 365.57 441.65 367.98 444.87 367.21 445.41"/><polygon class="cls-3" points="362.4 439.07 359.8 436.06 360.37 435.54 363.03 438.54 362.4 439.07"/><polygon class="cls-3" points="357.09 433.14 354.26 430.34 354.68 429.89 357.58 432.65 357.09 433.14"/><polygon class="cls-3" points="351.32 427.64 348.27 425.07 348.54 424.73 351.66 427.25 351.32 427.64"/><polygon class="cls-3" points="345.12 422.62 341.87 420.3 342.01 420.09 345.32 422.34 345.12 422.62"/><polygon class="cls-3" points="338.53 418.1 335.11 416.03 335.13 416 338.61 417.97 338.53 418.1"/><path class="cls-2" d="m761.44,315.01c.6.27,1.52.67,2.48.99.23.08.4.05.6-.06,1.77-.99,3.42-2.14,4.97-3.46.19-.16.28-.32.28-.57,0-2.05-.13-4.09-.54-6.1-.04-.21-.13-.34-.3-.44-1.77-1.07-3.63-1.94-5.59-2.61-.17-.06-.33-.05-.5.05-1.83,1.02-3.54,2.2-5.12,3.56-.12.1-.18.22-.19.38-.03,2.1.14,4.19.54,6.25.03.15.08.27.23.36.92.55,1.86,1.05,3.14,1.65Z"/></svg>