<?xml version="1.0" encoding="UTF-8"?><svg xmlns="http://www.w3.org/2000/svg" viewBox="0 0 1024 768"><defs><style>.cls-1{fill:none;stroke:#bcbcbc;stroke-miterlimit:10;stroke-width:2px;}.cls-2{fill:#bcbcbc;stroke-width:0px;}</style></defs><g id="Lines"><path class="cls-1" d="m836.28,378.15c.01,57.11-46.03,103.1-103.07,103.24-57.55.14-103.31-46.61-103.65-102.76-.33-55.11,43.56-103.45,102.14-103.9,58.57-.45,104.57,45.46,104.58,103.42Zm-57.33-3.01c-.05-5.06-.28-12.72-1.16-20.36-.21-1.82-.92-2.94-2.36-3.97-12.57-9.03-25.87-16.76-39.97-23.16-1.71-.78-3.12-.89-4.83-.1-14.2,6.59-27.83,14.14-40.45,23.45-1.29.95-1.92,2.01-2.08,3.52-1.65,15.7-1.63,31.39,0,47.09.15,1.4.73,2.45,1.94,3.33,12.94,9.33,26.64,17.34,41.21,23.87,1.11.5,2.08.57,3.25.05,14.63-6.59,28.48-14.54,41.49-23.94.96-.69,1.6-1.42,1.74-2.76.85-8.12,1.27-16.25,1.22-27.03Z"/><path class="cls-2" d="m732.92,274.73c-.38-43.3-.7-102.48-.83-145.78,0,0-.07-48.59-.07-48.59v-.92s.93,0,.93,0l38.38-.06h.98s0,.98,0,.98l-.11,98.69-.87-.87,18.02.03-.84.84c.09-34.43.54-103.77.84-138.2.3,34.46.75,103.75.84,138.2,0,0,0,.84,0,.84h-.85s-18.02.03-18.02.03h-.87s0-.87,0-.87l-.11-98.69.98.98-38.38-.06.93-.93c-.04,60.9-.41,133.48-.95,194.38h0Z"/><path class="cls-2" d="m495.43,589.76c.21,33.85.49,102.2.61,136.06,0,0-.61-.61-.61-.61l50.72-.15-.76.75c1.92-168.97,3.41-356.22,6.94-524.38,0,0,46.03.24,46.03.24l-46.03.24c.45,42.17-.66,87.55-.81,130.81-1.15,120.75-2.92,272.38-4.61,393.11,0,0,0,.75,0,.75,0,0-.75,0-.75,0l-50.72-.15h-.61s0-.61,0-.61c.13-33.97.41-102.12.61-136.06h0Z"/><path class="cls-1" d="m387.74,384.17c-16.82.09-30.44-13.41-30.56-30.22-.12-16.95,13.58-30.5,30.12-30.68,16.23-.18,30.54,12.68,30.75,29.94.22,17.25-13.24,30.87-30.32,30.96Zm.8-16.89c1.49-.02,3.75-.1,6-.37.53-.06.86-.28,1.17-.7,2.64-3.71,4.9-7.65,6.76-11.81.23-.51.26-.92.02-1.42-1.96-4.17-4.21-8.18-6.97-11.88-.28-.38-.59-.56-1.04-.61-4.63-.46-9.25-.44-13.87.07-.41.04-.72.22-.98.58-2.73,3.83-5.07,7.87-6.97,12.17-.14.33-.17.61,0,.96,1.96,4.3,4.32,8.37,7.11,12.19.21.28.42.47.81.51,2.39.24,4.79.35,7.96.32Zm161.9,115.37c1.49-.02,3.75-.1,6-.37.53-.06.86-.28,1.17-.7,2.64-3.71,4.9-7.65,6.76-11.81.23-.51.26-.92.02-1.42-1.96-4.17-4.21-8.18-6.97-11.88-.28-.38-.59-.56-1.04-.61-4.63-.46-9.25-.44-13.87.07-.41.04-.72.22-.98.58-2.73,3.83-5.07,7.87-6.97,12.17-.14.33-.17.61,0,.96,1.96,4.3,4.32,8.37,7.11,12.19.21.28.42.47.81.51,2.39.24,4.79.35,7.96.32Zm90.21-136.84c1.49-.02,3.75-.1,6-.37.53-.06.86-.28,1.17-.7,2.64-3.71,4.9-7.65,6.76-11.81.23-.51.26-.92.02-1.42-1.96-4.17-4.21-8.18-6.97-11.88-.28-.38-.59-.56-1.04-.61-4.63-.46-9.25-.44-13.87.07-.41.04-.72.22-.98.58-2.73,3.83-5.07,7.87-6.97,12.17-.14.33-.17.61,0,.96,1.96,4.3,4.32,8.37,7.11,12.19.21.28.42.47.81.51,2.39.24,4.79.35,7.96.32Z"/><path class="cls-2" d="m730.74,521.5c110.52,8.1,189.28-88.89,140.93-193.03-10.42-22.17-26.29-41.72-45.62-56.76-6.48-5-13.31-9.54-20.42-13.61,14.44,7.75,27.8,17.62,39.23,29.45,34.56,35.25,51.43,88.28,39.07,136.62-16.73,66.68-87.31,104.93-153.19,97.34h0Z"/><path class="cls-2" d="m671.32,210.75c-33.27-71.87-118.03-111.19-194.98-101.47-58.35,8.27-107.77,52.23-130.78,105.43-7.66,17.89-12.4,37.07-13.42,56.51l-1.94-.1c.99-19.69,5.76-39.12,13.56-57.18,23.35-53.7,73.33-98.12,132.36-106.26,77.5-9.43,162.4,30.48,195.19,103.08h0Z"/><path class="cls-1" d="m611.21,207.7c.66-.01,1.67-.04,2.67-.16.24-.03.38-.12.52-.31,1.18-1.65,2.18-3.4,3.01-5.25.1-.22.12-.41,0-.63-.87-1.86-1.87-3.64-3.1-5.29-.13-.17-.26-.25-.46-.27-2.06-.21-4.12-.19-6.17.03-.18.02-.32.1-.43.26-1.21,1.7-2.26,3.5-3.1,5.42-.06.15-.07.27,0,.43.87,1.91,1.92,3.72,3.16,5.42.09.13.19.21.36.23,1.06.11,2.13.16,3.54.14Z"/><path class="cls-2" d="m640.37,210c-20.13-42.9-67.83-71.38-113.47-79.12-47.6-8.4-96.42,12.31-129.93,45.8-22.38,22.29-38.61,52.01-40.24,83.93,0,0-1.94-.1-1.94-.1.81-16.13,5.28-31.97,12.51-46.35,29.16-56.62,95.78-95.94,159.82-84.58,46.23,8.26,93.24,36.73,113.25,80.43h0Z"/><circle class="cls-1" cx="289.52" cy="497.76" r="29.36"/><path class="cls-1" d="m632.72,725.82c.66-.01,1.67-.04,2.67-.16.24-.03.38-.12.52-.31,1.17-1.65,2.18-3.4,3.01-5.25.1-.22.12-.41,0-.63-.87-1.86-1.87-3.64-3.1-5.28-.13-.17-.26-.25-.46-.27-2.06-.21-4.11-.19-6.17.03-.18.02-.32.1-.43.26-1.21,1.7-2.25,3.5-3.1,5.41-.06.15-.07.27,0,.43.87,1.91,1.92,3.72,3.16,5.42.09.13.19.21.36.23,1.06.11,2.13.16,3.54.14Z"/><path class="cls-1" d="m632.72,748.54c.66-.01,1.67-.04,2.67-.16.24-.03.38-.12.52-.31,1.17-1.65,2.18-3.4,3.01-5.25.1-.22.12-.41,0-.63-.87-1.86-1.87-3.64-3.1-5.28-.13-.17-.26-.25-.46-.27-2.06-.21-4.11-.19-6.17.03-.18.02-.32.1-.43.26-1.21,1.7-2.25,3.5-3.1,5.41-.06.15-.07.27,0,.43.87,1.91,1.92,3.72,3.16,5.42.09.13.19.21.36.23,1.06.11,2.13.16,3.54.14Z"/><path class="cls-1" d="m632.72,671.11c.66-.01,1.67-.04,2.67-.16.24-.03.38-.12.52-.31,1.17-1.65,2.18-3.4,3.01-5.25.1-.22.12-.41,0-.63-.87-1.86-1.87-3.64-3.1-5.28-.13-.17-.26-.25-.46-.27-2.06-.21-4.11-.19-6.17.03-.18.02-.32.1-.43.26-1.21,1.7-2.25,3.5-3.1,5.41-.06.15-.07.27,0,.43.87,1.91,1.92,3.72,3.16,5.42.09.13.19.21.36.23,1.06.11,2.13.16,3.54.14Z"/><path class="cls-1" d="m632.72,648.38c.66-.01,1.67-.04,2.67-.16.24-.03.38-.12.52-.31,1.17-1.65,2.18-3.4,3.01-5.25.1-.22.12-.41,0-.63-.87-1.86-1.87-3.64-3.1-5.28-.13-.17-.26-.25-.46-.27-2.06-.21-4.11-.19-6.17.03-.18.02-.32.1-.43.26-1.21,1.7-2.25,3.5-3.1,5.41-.06.15-.07.27,0,.43.87,1.91,1.92,3.72,3.16,5.42.09.13.19.21.36.23,1.06.11,2.13.16,3.54.14Z"/><path class="cls-1" d="m632.72,570.95c.66-.01,1.67-.04,2.67-.16.24-.03.38-.12.52-.31,1.17-1.65,2.18-3.4,3.01-5.25.1-.22.12-.41,0-.63-.87-1.86-1.87-3.64-3.1-5.28-.13-.17-.26-.25-.46-.27-2.06-.21-4.11-.19-6.17.03-.18.02-.32.1-.43.26-1.21,1.7-2.25,3.5-3.1,5.41-.06.15-.07.27,0,.43.87,1.91,1.92,3.72,3.16,5.42.09.13.19.21.36.23,1.06.11,2.13.16,3.54.14Z"/><path class="cls-1" d="m633.02,703.09c1.17-.02,2.95-.08,4.71-.29.42-.05.68-.22.92-.55,2.08-2.92,3.85-6.01,5.32-9.28.18-.4.2-.72.02-1.12-1.54-3.28-3.31-6.43-5.48-9.34-.22-.3-.47-.44-.82-.48-3.64-.36-7.27-.34-10.91.05-.32.04-.57.17-.77.45-2.15,3.01-3.99,6.19-5.48,9.57-.11.26-.13.48,0,.75,1.54,3.38,3.4,6.58,5.59,9.58.16.22.33.37.64.4,1.88.19,3.76.28,6.26.25Z"/><path class="cls-1" d="m632.72,80.83c.66-.01,1.67-.04,2.67-.16.24-.03.38-.12.52-.31,1.17-1.65,2.18-3.4,3.01-5.25.1-.22.12-.41,0-.63-.87-1.86-1.87-3.64-3.1-5.28-.13-.17-.26-.25-.46-.27-2.06-.21-4.11-.19-6.17.03-.18.02-.32.1-.43.26-1.21,1.7-2.25,3.5-3.1,5.41-.06.15-.07.27,0,.43.87,1.91,1.92,3.72,3.16,5.42.09.13.19.21.36.23,1.06.11,2.13.16,3.54.14Z"/><path class="cls-1" d="m632.72,103.56c.66-.01,1.67-.04,2.67-.16.24-.03.38-.12.52-.31,1.17-1.65,2.18-3.4,3.01-5.25.1-.22.12-.41,0-.63-.87-1.86-1.87-3.64-3.1-5.28-.13-.17-.26-.25-.46-.27-2.06-.21-4.11-.19-6.17.03-.18.02-.32.1-.43.26-1.21,1.7-2.25,3.5-3.1,5.41-.06.15-.07.27,0,.43.87,1.91,1.92,3.72,3.16,5.42.09.13.19.21.36.23,1.06.11,2.13.16,3.54.14Z"/><path class="cls-1" d="m632.72,26.12c.66-.01,1.67-.04,2.67-.16.24-.03.38-.12.52-.31,1.17-1.65,2.18-3.4,3.01-5.25.1-.22.12-.41,0-.63-.87-1.86-1.87-3.64-3.1-5.28-.13-.17-.26-.25-.46-.27-2.06-.21-4.11-.19-6.17.03-.18.02-.32.1-.43.26-1.21,1.7-2.25,3.5-3.1,5.41-.06.15-.07.27,0,.43.87,1.91,1.92,3.72,3.16,5.42.09.13.19.21.36.23,1.06.11,2.13.16,3.54.14Z"/><path class="cls-1" d="m633.02,58.11c1.17-.02,2.95-.08,4.71-.29.42-.05.68-.22.92-.55,2.08-2.92,3.85-6.01,5.32-9.28.18-.4.2-.72.02-1.12-1.54-3.28-3.31-6.43-5.48-9.34-.22-.3-.47-.44-.82-.48-3.64-.36-7.27-.34-10.91.05-.32.04-.57.17-.77.45-2.15,3.01-3.99,6.19-5.48,9.57-.11.26-.13.48,0,.75,1.54,3.38,3.4,6.58,5.59,9.58.16.22.33.37.64.4,1.88.19,3.76.28,6.26.25Z"/><path class="cls-2" d="m287.59,579.58c68.7,4.81,117.74-55.37,87.69-120.19-8.63-18.48-23.33-33.81-41.04-43.87,13.55,7.17,25.46,17.54,34.29,30.12,14.81,20.96,20.99,48.27,14.6,73.34-10.34,41.45-54.62,65.43-95.53,60.6h0Z"/><path class="cls-2" d="m715.93,564.02c86.66,5.49,182.97-42.75,205.71-131.32,18.68-70.32-13.76-146.18-69.39-190.59-12.74-10.34-27.01-19.4-41.67-26.74,9.93,4.82,19.55,10.28,28.74,16.41l6.81,4.73c1.43,1.16,6.97,5.26,8.23,6.3,3.52,2.98,7.62,6.31,10.96,9.51,57.51,51.97,83,140.99,46.48,211.98-35.9,70.42-119.37,105.53-195.85,99.73h0Z"/><path class="cls-2" d="m199.86,201.52c4.32-60.73-44.49-110.49-105.92-92.87-19.52,5.63-37.05,17.59-49.58,33.57-3.13,4.01-5.99,8.25-8.56,12.66,9.46-18.17,24.81-33.31,43.29-42.26,65.38-31.27,127.79,19.11,120.77,88.9h0Z"/><path class="cls-2" d="m182.69,201.52c3.32-53.99-43.78-92.49-94.83-69-14.61,6.74-26.71,18.26-34.8,32.15,5.56-10.77,13.72-20.28,23.65-27.3,16.58-11.86,38.28-16.76,58.19-11.72,32.93,8.29,51.91,43.36,47.78,75.88h0Z"/><polyline class="cls-1" points="103.52 409.85 209.47 582.08 245.86 497.55 336.26 497.55"/><path class="cls-1" d="m761.44,315.01c.6.27,1.52.67,2.48.99.23.08.4.05.6-.06,1.77-.99,3.42-2.14,4.97-3.46.19-.16.28-.32.28-.57,0-2.05-.13-4.09-.54-6.1-.04-.21-.13-.34-.3-.44-1.77-1.07-3.63-1.94-5.59-2.61-.17-.06-.33-.05-.5.05-1.83,1.02-3.54,2.2-5.12,3.56-.12.1-.18.22-.19.38-.03,2.1.14,4.19.54,6.25.03.15.08.27.23.36.92.55,1.86,1.05,3.14,1.65Z"/><path class="cls-2" d="m733.32,209.26c-46.22-100.09-164.1-154.48-271.2-140.53-62.68,7.06-116.56,38.51-151.65,91.18-22.66,33.83-36.96,72.88-44.06,112.86-1.15,6.67-2.14,13.41-2.68,20.12l-1.85-.12c.54-6.85,1.53-13.59,2.67-20.32,7.11-40.25,21.4-79.61,44.29-113.64,35.45-53.07,89.89-84.76,153.07-91.79,107.55-13.79,225.81,41.38,271.41,142.24h0Z"/><polygon class="cls-2" points="792.05 142.52 786.38 142.52 783.54 144.98 786.38 147.43 792.05 147.43 794.88 144.98 792.05 142.52"/><polygon class="cls-2" points="792.05 131.88 786.38 131.88 783.54 134.33 786.38 136.79 792.05 136.79 794.88 134.33 792.05 131.88"/><polygon class="cls-2" points="792.05 107.12 786.38 107.12 783.54 109.57 786.38 112.03 792.05 112.03 794.88 109.57 792.05 107.12"/><polygon class="cls-2" points="792.05 82.36 786.38 82.36 783.54 84.81 786.38 87.27 792.05 87.27 794.88 84.81 792.05 82.36"/><polygon class="cls-2" points="792.17 66.32 786.5 66.32 783.67 68.77 786.5 71.23 792.17 71.23 795.01 68.77 792.17 66.32"/><polygon class="cls-2" points="690.03 381.71 684.36 381.71 681.52 384.17 684.36 386.62 690.03 386.62 692.86 384.17 690.03 381.71"/><polygon class="cls-2" points="690.03 374.51 684.36 374.51 681.52 376.97 684.36 379.42 690.03 379.42 692.86 376.97 690.03 374.51"/><polygon class="cls-2" points="690.03 365.93 684.36 365.93 681.52 368.38 684.36 370.84 690.03 370.84 692.86 368.38 690.03 365.93"/><polygon class="cls-2" points="550.22 618.15 544.55 618.15 541.71 620.6 544.55 623.06 550.22 623.06 553.05 620.6 550.22 618.15"/><polygon class="cls-2" points="550.22 613.11 544.55 613.11 541.71 615.56 544.55 618.02 550.22 618.02 553.05 615.56 550.22 613.11"/><polygon class="cls-2" points="550.22 607.71 544.55 607.71 541.71 610.16 544.55 612.62 550.22 612.62 553.05 610.16 550.22 607.71"/><polygon class="cls-2" points="690.03 361.02 684.36 361.02 681.52 363.47 684.36 365.93 690.03 365.93 692.86 363.47 690.03 361.02"/><polygon class="cls-2" points="551.19 539.82 545.52 539.82 542.68 542.28 545.52 544.73 551.19 544.73 554.02 542.28 551.19 539.82"/><polygon class="cls-2" points="551.19 535.14 545.52 535.14 542.68 537.6 545.52 540.05 551.19 540.05 554.02 537.6 551.19 535.14"/><polygon class="cls-2" points="551.19 530.46 545.52 530.46 542.68 532.92 545.52 535.37 551.19 535.37 554.02 532.92 551.19 530.46"/><polygon class="cls-2" points="690.03 356.11 684.36 356.11 681.52 358.56 684.36 361.02 690.03 361.02 692.86 358.56 690.03 356.11"/></g><g id="Fills"><circle class="cls-2" cx="67.66" cy="146.39" r="3"/><circle class="cls-2" cx="75.37" cy="138.71" r="3"/><circle class="cls-2" cx="547.11" cy="661.87" r="3"/><circle class="cls-2" cx="547.83" cy="585.16" r="3"/><circle class="cls-2" cx="548.19" cy="558.89" r="3"/><circle class="cls-2" cx="548.19" cy="552.89" r="3"/><circle class="cls-2" cx="548.19" cy="546.89" r="3"/><circle class="cls-2" cx="548.41" cy="496.99" r="4.02"/><circle class="cls-2" cx="550.11" cy="413.87" r="5.91"/><circle class="cls-2" cx="550.11" cy="392.18" r="5.91"/><circle class="cls-2" cx="550.11" cy="316.05" r="5.91"/><circle class="cls-2" cx="551.67" cy="248.79" r="2"/><circle class="cls-2" cx="552.11" cy="207.71" r="2"/><circle class="cls-2" cx="552.11" cy="211.83" r="2"/><circle class="cls-2" cx="552.11" cy="217.6" r="2"/><circle class="cls-2" cx="552.14" cy="235.5" r="1.18"/><circle class="cls-2" cx="552.31" cy="204.54" r="1.18"/><circle class="cls-2" cx="552.33" cy="201.67" r="1.18"/><circle class="cls-2" cx="578.8" cy="201.67" r="1.18"/><circle class="cls-2" cx="581.48" cy="201.67" r="1.18"/><circle class="cls-2" cx="586.21" cy="201.67" r="1.18"/><circle class="cls-2" cx="588.93" cy="201.67" r="1.18"/><circle class="cls-2" cx="597.1" cy="201.67" r="1.18"/><circle class="cls-2" cx="548.46" cy="524.32" r="3"/><circle class="cls-2" cx="546.5" cy="704.85" r="3"/><circle class="cls-2" cx="546.89" cy="690.67" r="3"/><circle class="cls-2" cx="547.11" cy="656.11" r="3"/><circle class="cls-2" cx="547.11" cy="627.08" r="3"/><circle class="cls-2" cx="547.83" cy="592.3" r="3"/><circle class="cls-2" cx="547.11" cy="646.75" r="3"/><circle class="cls-2" cx="148.82" cy="482.65" r="3"/><circle class="cls-2" cx="145" cy="477.5" r="2.15"/><circle class="cls-2" cx="383.52" cy="510.64" r="2.15"/><circle class="cls-2" cx="318.88" cy="576.9" r="2.15"/><circle class="cls-2" cx="356.62" cy="558.51" r="3.58"/><circle class="cls-2" cx="171.51" cy="519.55" r="3"/><circle class="cls-2" cx="198.37" cy="564.92" r="3"/><circle class="cls-2" cx="255.06" cy="497.76" r="3"/><circle class="cls-2" cx="271.54" cy="497.76" r="3"/><circle class="cls-2" cx="292.52" cy="497.76" r="3"/><circle class="cls-2" cx="353" cy="428.51" r="3"/><circle class="cls-2" cx="298.52" cy="497.76" r="3"/><circle class="cls-2" cx="304.52" cy="497.76" r="3"/><circle class="cls-2" cx="310.52" cy="497.76" r="3"/><circle class="cls-2" cx="98.68" cy="127.6" r="3"/><circle class="cls-2" cx="105.04" cy="126.24" r="3"/><circle class="cls-2" cx="480.94" cy="65.86" r="3"/><circle class="cls-2" cx="671.32" cy="128.88" r="3"/><circle class="cls-2" cx="676.6" cy="132.88" r="3"/><circle class="cls-2" cx="684.19" cy="140.61" r="3"/><circle class="cls-2" cx="715.93" cy="177.87" r="3"/><circle class="cls-2" cx="733.28" cy="177.87" r="3"/><circle class="cls-2" cx="733.28" cy="160.79" r="3"/><circle class="cls-2" cx="733.28" cy="146.61" r="3"/><circle class="cls-2" cx="733.28" cy="140.61" r="3"/><circle class="cls-2" cx="733.28" cy="135.88" r="3"/><circle class="cls-2" cx="733.28" cy="126.88" r="3"/><circle class="cls-2" cx="733.28" cy="113.14" r="3"/><circle class="cls-2" cx="733.28" cy="99.41" r="3"/><circle class="cls-2" cx="733.28" cy="93.41" r="3"/><circle class="cls-2" cx="898.22" cy="292.84" r="3"/><circle class="cls-2" cx="919.14" cy="337.7" r="3"/><circle class="cls-2" cx="920.99" cy="343.7" r="3"/><circle class="cls-2" cx="922.55" cy="350.43" r="3"/><circle class="cls-2" cx="890.37" cy="495.97" r="3"/><circle class="cls-2" cx="718.93" cy="182.72" r="1.58"/><circle class="cls-2" cx="836.28" cy="230.06" r="1.58"/><circle class="cls-2" cx="841.52" cy="233.23" r="1.58"/><circle class="cls-2" cx="847.85" cy="237.94" r="1.58"/><circle class="cls-2" cx="872.04" cy="259.68" r="1.58"/><circle class="cls-2" cx="895.08" cy="288.26" r="1.58"/><circle class="cls-2" cx="721.59" cy="187.24" r="1.58"/><circle class="cls-2" cx="726.95" cy="196.96" r="1.58"/><circle class="cls-2" cx="732.78" cy="190.73" r="1.58"/><circle class="cls-2" cx="732.78" cy="205.88" r="1.58"/><circle class="cls-2" cx="732.78" cy="209.48" r="1.58"/><circle class="cls-2" cx="732.78" cy="217.8" r="1.58"/><circle class="cls-2" cx="732.78" cy="220" r="1.58"/><circle class="cls-2" cx="732.78" cy="222.16" r="1.58"/><circle class="cls-2" cx="138.09" cy="127.6" r="3"/><circle class="cls-2" cx="158.23" cy="138.71" r="3"/><circle class="cls-2" cx="173.55" cy="157.81" r="3"/><circle class="cls-2" cx="176.19" cy="162.61" r="3"/><circle class="cls-2" cx="266.87" cy="265.18" r="4.68"/><circle class="cls-2" cx="271.54" cy="244.58" r="4.68"/><circle class="cls-2" cx="284.71" cy="201.52" r="4.68"/><circle class="cls-2" cx="355.76" cy="108.2" r="4.68"/><circle class="cls-2" cx="368.07" cy="100.71" r="4.68"/><circle class="cls-2" cx="391.96" cy="87.26" r="4.68"/><polygon class="cls-2" points="390.45 319.27 385.83 319.27 383.52 323.27 385.83 327.27 390.45 327.27 392.76 323.27 390.45 319.27"/><polygon class="cls-2" points="497.74 124.88 493.12 124.88 490.81 128.88 493.12 132.88 497.74 132.88 500.05 128.88 497.74 124.88"/><polygon class="cls-2" points="109.51 411.52 104.89 411.52 102.58 415.52 104.89 419.52 109.51 419.52 111.82 415.52 109.51 411.52"/><polygon class="cls-2" points="114.25 419.63 109.63 419.63 107.32 423.63 109.63 427.63 114.25 427.63 116.56 423.63 114.25 419.63"/><polygon class="cls-2" points="118.87 427.79 114.25 427.79 111.94 431.79 114.25 435.79 118.87 435.79 121.18 431.79 118.87 427.79"/><polygon class="cls-2" points="123.49 435.94 118.87 435.94 116.56 439.94 118.87 443.94 123.49 443.94 125.8 439.94 123.49 435.94"/><polygon class="cls-2" points="614.54 170.77 611.38 173.5 612.16 177.6 616.1 178.97 619.26 176.25 618.48 172.15 614.54 170.77"/><polygon class="cls-2" points="923.22 425.13 920.05 427.85 920.83 431.95 924.77 433.33 927.94 430.6 927.16 426.5 923.22 425.13"/><polygon class="cls-2" points="921.36 431.24 918.2 433.96 918.98 438.06 922.92 439.44 926.08 436.71 925.3 432.61 921.36 431.24"/><polygon class="cls-2" points="918.36 440.58 915.2 443.31 915.98 447.41 919.92 448.78 923.08 446.06 922.3 441.95 918.36 440.58"/><polygon class="cls-2" points="785.9 553.71 782.74 556.44 783.52 560.54 787.46 561.91 790.62 559.19 789.84 555.09 785.9 553.71"/><polygon class="cls-2" points="223.05 545.79 219.89 548.52 220.67 552.62 224.61 553.99 227.77 551.27 226.99 547.17 223.05 545.79"/><polygon class="cls-2" points="233.11 520.22 229.95 522.95 230.73 527.05 234.67 528.42 237.83 525.7 237.05 521.6 233.11 520.22"/><polygon class="cls-2" points="494.65 686.57 491.49 689.29 492.27 693.4 496.21 694.77 499.37 692.04 498.59 687.94 494.65 686.57"/><polygon class="cls-2" points="494.65 671.11 491.49 673.84 492.27 677.94 496.21 679.31 499.37 676.58 498.59 672.48 494.65 671.11"/><polygon class="cls-2" points="494.65 632.22 491.49 634.95 492.27 639.05 496.21 640.42 499.37 637.7 498.59 633.6 494.65 632.22"/><polygon class="cls-2" points="792.05 156.31 786.38 156.31 783.54 161.22 786.38 166.13 792.05 166.13 794.88 161.22 792.05 156.31"/><polygon class="cls-2" points="494.65 603.98 491.49 606.7 492.27 610.8 496.21 612.18 499.37 609.45 498.59 605.35 494.65 603.98"/><polygon class="cls-2" points="768.98 557.03 765.82 559.75 766.6 563.85 770.54 565.23 773.71 562.5 772.93 558.4 768.98 557.03"/><rect class="cls-2" x="139.94" y="471.51" width="5.84" height="3.84" transform="translate(-230.32 148.95) rotate(-32.2)"/><rect class="cls-2" x="175.08" y="528.39" width="5.84" height="3.84" transform="translate(-255.22 176.43) rotate(-32.2)"/><rect class="cls-2" x="191.54" y="556.4" width="5.84" height="3.84" transform="translate(-267.62 189.51) rotate(-32.2)"/><rect class="cls-2" x="355.38" y="432.34" width="5.84" height="3.84" transform="translate(-196.38 337.88) rotate(-40.62)"/><rect class="cls-2" x="358.42" y="436.3" width="5.84" height="3.84" transform="translate(-198.23 340.81) rotate(-40.62)"/><rect class="cls-2" x="345.48" y="563" width="5.84" height="3.84" transform="translate(-259.11 297.62) rotate(-34.59)"/></g></svg>