<?xml version="1.0" encoding="UTF-8"?><svg xmlns="http://www.w3.org/2000/svg" viewBox="0 0 1024 768"><defs><style>.cls-1{stroke-width:1.5px;}.cls-1,.cls-2,.cls-3,.cls-4,.cls-5,.cls-6,.cls-7{fill:none;stroke:#bcbcbc;stroke-miterlimit:10;}.cls-2{stroke-width:1.03px;}.cls-3{stroke-width:2px;}.cls-5{stroke-width:1.22px;}.cls-6{stroke-width:2.17px;}.cls-7{stroke-width:1.37px;}.cls-8{fill:#bcbcbc;stroke-width:0px;}</style></defs><g id="Lines"><path class="cls-8" d="m848.49,248.2c-114.36.74-237.22.92-351.86.99-45.22,0-165.12-.21-211.82-.3,0,0,0-.7,0-.7l.27-106.62.42-106.62.42,106.62.27,106.62-.7-.7c46.89-.09,165.85-.29,211.12-.29,114.69.06,237.42.26,351.86.99h0Z"/><line class="cls-7" x1="721.91" y1="740.53" x2="683.45" y2="713.92"/><line class="cls-7" x1="803.44" y1="690.2" x2="758.07" y2="701.52"/><polygon class="cls-1" points="760.99 584.22 683.06 593.79 656.82 550.97 747.98 539.29 760.99 584.22"/><polygon class="cls-1" points="540.81 221.23 465.14 279.09 432.51 248.21 492.34 179.22 540.81 221.23"/><polygon class="cls-6" points="101.48 409.57 155.39 536.57 100.3 571.24 25.07 462.43 101.48 409.57"/><polygon class="cls-1" points="138.83 589.81 138.83 646.38 106.33 636.62 106.33 590.33 138.83 589.81"/><polygon class="cls-1" points="774.14 590.7 839.95 616.4 878.31 574.39 801.89 550.39 774.14 590.7"/><polyline class="cls-2" points="737.85 755.33 737.85 648.44 737.85 640.1 833.6 623.93"/><line class="cls-5" x1="679.96" y1="610.54" x2="737.85" y2="640.1"/><polyline class="cls-3" points="737.85 755.33 737.85 648.44 737.85 640.1 833.6 623.93"/><line class="cls-3" x1="679.96" y1="610.54" x2="737.85" y2="640.1"/><line class="cls-3" x1="679.96" y1="610.54" x2="679.96" y2="702.08"/><polyline class="cls-3" points="381.26 688.75 381.26 439.32 381.26 430.98 285.51 414.82"/><line class="cls-3" x1="442.12" y1="395.71" x2="381.26" y2="430.98"/><line class="cls-1" x1="442.12" y1="395.71" x2="442.07" y2="490.04"/><path class="cls-8" d="m359.61,374.43c19.46,2.17,58.57,6.68,78,8.94,0,0-.62.3-.62.3l26.15-42.88.54,1.12-45.57-5.91c-11.35-1.47-34.21-4.52-45.55-6.05,0,0,.49-.32.49-.32-3.87,12.89-9.48,31.7-13.44,44.81h0Zm0,0c3.87-13.49,8.82-32.11,12.68-45.43,11.58,1.4,34.43,4.21,45.99,5.67,0,0,45.59,5.77,45.59,5.77l1.14.14-.6.98-26.33,42.77-.22.35c-19.62-2.54-58.66-7.63-78.25-10.26h0Z"/><path class="cls-8" d="m739.76,480.51c-1.34-71.52-1.35-143.84,0-215.36,1.35,71.52,1.34,143.84,0,215.36h0Z"/><line class="cls-4" x1="161.2" y1="706.76" x2="161.2" y2="644.36"/><polygon class="cls-1" points="946.35 91.43 946.35 203.04 882.24 183.78 882.22 92.47 946.35 91.43"/><path class="cls-8" d="m974.51,152.17c.15,32.99.68,79.06.66,111.61,0,0,0,.89,0,.89l-.85-.25-64.13-19.19-.52-.16v-.54s.07-45.65.07-45.65l.17-45.65v-.48c18.84-.32,45.54-.34,64.61-.56h0Zm0,0c-18.87.55-45.55,1.08-64.12,1.52,0,0,.47-.48.47-.48l.18,45.65.08,45.65-.52-.7,64.09,19.33-.85.63c.09-32.17.4-78.94.66-111.61h0Z"/><polygon class="cls-1" points="808.29 91.43 808.29 203.04 872.4 183.78 872.42 92.47 808.29 91.43"/><path class="cls-8" d="m928.01,263.78c25.01,8.2,49.97,17.46,74.27,27.58-25.01-8.19-49.97-17.47-74.27-27.58h0Z"/></g><g id="Fills"><polygon class="cls-8" points="288.56 133.45 282.89 133.45 280.06 135.91 282.89 138.36 288.56 138.36 291.4 135.91 288.56 133.45"/><polygon class="cls-8" points="288.56 122.81 282.89 122.81 280.06 125.26 282.89 127.72 288.56 127.72 291.4 125.26 288.56 122.81"/><polygon class="cls-8" points="742.59 327.04 736.92 327.04 734.09 329.49 736.92 331.95 742.59 331.95 745.43 329.49 742.59 327.04"/><polygon class="cls-8" points="742.59 370.12 736.92 370.12 734.09 372.58 736.92 375.03 742.59 375.03 745.43 372.58 742.59 370.12"/><polygon class="cls-8" points="742.59 437.97 736.92 437.97 734.09 440.42 736.92 442.88 742.59 442.88 745.43 440.42 742.59 437.97"/><polygon class="cls-8" points="742.59 319.24 736.92 319.24 734.09 321.7 736.92 324.15 742.59 324.15 745.43 321.7 742.59 319.24"/><polygon class="cls-8" points="742.59 311.44 736.92 311.44 734.09 313.9 736.92 316.35 742.59 316.35 745.43 313.9 742.59 311.44"/><polygon class="cls-8" points="742.59 303.64 736.92 303.64 734.09 306.1 736.92 308.55 742.59 308.55 745.43 306.1 742.59 303.64"/><polygon class="cls-8" points="682.8 651.4 677.13 651.4 674.29 653.86 677.13 656.31 682.8 656.31 685.63 653.86 682.8 651.4"/><polygon class="cls-8" points="682.8 643.6 677.13 643.6 674.29 646.06 677.13 648.51 682.8 648.51 685.63 646.06 682.8 643.6"/><polygon class="cls-8" points="682.8 635.81 677.13 635.81 674.29 638.26 677.13 640.72 682.8 640.72 685.63 638.26 682.8 635.81"/><polygon class="cls-8" points="682.8 628.01 677.13 628.01 674.29 630.46 677.13 632.92 682.8 632.92 685.63 630.46 682.8 628.01"/><polygon class="cls-8" points="288.56 98.05 282.89 98.05 280.06 100.5 282.89 102.96 288.56 102.96 291.4 100.5 288.56 98.05"/><polygon class="cls-8" points="140.91 625.39 136.76 625.39 134.68 627.19 136.76 628.98 140.91 628.98 142.99 627.19 140.91 625.39"/><polygon class="cls-8" points="140.91 618.27 136.76 618.27 134.68 620.06 136.76 621.86 140.91 621.86 142.99 620.06 140.91 618.27"/><polygon class="cls-8" points="140.91 611.14 136.76 611.14 134.68 612.94 136.76 614.74 140.91 614.74 142.99 612.94 140.91 611.14"/><polygon class="cls-8" points="140.91 607.55 136.76 607.55 134.68 609.34 136.76 611.14 140.91 611.14 142.99 609.34 140.91 607.55"/><polygon class="cls-8" points="140.91 604.02 136.76 604.02 134.68 605.82 136.76 607.62 140.91 607.62 142.99 605.82 140.91 604.02"/><polygon class="cls-8" points="445.05 437.97 439.38 437.97 436.55 440.42 439.38 442.88 445.05 442.88 447.89 440.42 445.05 437.97"/><polygon class="cls-8" points="288.56 73.29 282.89 73.29 280.06 75.74 282.89 78.2 288.56 78.2 291.4 75.74 288.56 73.29"/><polygon class="cls-8" points="288.68 57.25 283.01 57.25 280.18 59.7 283.01 62.16 288.68 62.16 291.52 59.7 288.68 57.25"/><polygon class="cls-8" points="384.1 472.08 378.43 472.08 375.6 474.54 378.43 476.99 384.1 476.99 386.93 474.54 384.1 472.08"/><polygon class="cls-8" points="384.1 464.89 378.43 464.89 375.6 467.34 378.43 469.8 384.1 469.8 386.93 467.34 384.1 464.89"/><polygon class="cls-8" points="384.1 456.3 378.43 456.3 375.6 458.75 378.43 461.21 384.1 461.21 386.93 458.75 384.1 456.3"/><polygon class="cls-8" points="384.1 528.54 378.43 528.54 375.6 530.99 378.43 533.45 384.1 533.45 386.93 530.99 384.1 528.54"/><polygon class="cls-8" points="384.1 523.5 378.43 523.5 375.6 525.95 378.43 528.41 384.1 528.41 386.93 525.95 384.1 523.5"/><polygon class="cls-8" points="384.1 518.1 378.43 518.1 375.6 520.55 378.43 523.01 384.1 523.01 386.93 520.55 384.1 518.1"/><polygon class="cls-8" points="384.1 451.39 378.43 451.39 375.6 453.84 378.43 456.3 384.1 456.3 386.93 453.84 384.1 451.39"/><polygon class="cls-8" points="288.68 235.45 283.01 235.45 280.18 237.91 283.01 240.36 288.68 240.36 291.52 237.91 288.68 235.45"/><polygon class="cls-8" points="288.68 230.77 283.01 230.77 280.18 233.23 283.01 235.68 288.68 235.68 291.52 233.23 288.68 230.77"/><polygon class="cls-8" points="288.68 226.09 283.01 226.09 280.18 228.55 283.01 231 288.68 231 291.52 228.55 288.68 226.09"/><polygon class="cls-8" points="384.1 446.48 378.43 446.48 375.6 448.93 378.43 451.39 384.1 451.39 386.93 448.93 384.1 446.48"/><polygon class="cls-8" points="288.56 147.23 282.89 147.23 280.06 152.14 282.89 157.05 288.56 157.05 291.4 152.14 288.56 147.23"/><polygon class="cls-8" points="740.68 733.54 735.01 733.54 732.18 738.45 735.01 743.36 740.68 743.36 743.52 738.45 740.68 733.54"/><polygon class="cls-8" points="740.68 706.52 735.01 706.52 732.18 711.43 735.01 716.34 740.68 716.34 743.52 711.43 740.68 706.52"/><polygon class="cls-8" points="740.68 689.63 735.01 689.63 732.18 694.54 735.01 699.45 740.68 699.45 743.52 694.54 740.68 689.63"/><circle class="cls-8" cx="285.51" cy="207.98" r="4.94"/><circle class="cls-8" cx="72.74" cy="527.31" r="7.15"/><circle class="cls-8" cx="50.01" cy="497.33" r="7.15"/><circle class="cls-8" cx="38.41" cy="480.87" r="4.02"/><circle class="cls-8" cx="31.88" cy="457.87" r="4.02"/><circle class="cls-8" cx="37.07" cy="453.9" r="4.02"/><circle class="cls-8" cx="42.43" cy="451.08" r="4.02"/><circle class="cls-8" cx="71.81" cy="430.86" r="4.02"/><circle class="cls-8" cx="77.97" cy="426.84" r="4.02"/><circle class="cls-8" cx="83.92" cy="422.82" r="4.02"/><circle class="cls-8" cx="285.51" cy="195.8" r="4.94"/><circle class="cls-8" cx="161.29" cy="694.82" r="1.5"/><circle class="cls-8" cx="161.29" cy="691.58" r="1.5"/><circle class="cls-8" cx="161.29" cy="685.67" r="1.5"/><circle class="cls-8" cx="161.29" cy="681.81" r="1.5"/><circle class="cls-8" cx="161.29" cy="679.75" r="1.5"/><circle class="cls-8" cx="161.29" cy="677.48" r="1.5"/><circle class="cls-8" cx="161.29" cy="671.65" r="1.5"/><circle class="cls-8" cx="161.29" cy="666.41" r="1.12"/><circle class="cls-8" cx="161.29" cy="648.67" r="1"/><circle class="cls-8" cx="545.74" cy="248.2" r="4.94"/><circle class="cls-8" cx="596.49" cy="248.2" r="4.94"/><circle class="cls-8" cx="739.76" cy="419.75" r="2.82"/><circle class="cls-8" cx="739.76" cy="409.46" r="2.82"/><circle class="cls-8" cx="739.76" cy="402.84" r="2.82"/><circle class="cls-8" cx="739.76" cy="394.73" r="2.82"/><circle class="cls-8" cx="739.76" cy="279.83" r="2.82"/><circle class="cls-8" cx="697.11" cy="591.99" r="2.5"/><circle class="cls-8" cx="702.11" cy="591.29" r="2.5"/><circle class="cls-8" cx="706.4" cy="590.41" r="2.5"/><circle class="cls-8" cx="732.18" cy="587.91" r="2.5"/><circle class="cls-8" cx="737.18" cy="586.99" r="2.5"/><circle class="cls-8" cx="741.31" cy="586.29" r="2.5"/><circle class="cls-8" cx="758.49" cy="575.16" r="2.5"/><circle class="cls-8" cx="757.41" cy="571.01" r="2.5"/><circle class="cls-8" cx="756.26" cy="567.19" r="2.5"/><circle class="cls-8" cx="752.98" cy="556.99" r="1.29"/><circle class="cls-8" cx="442.1" cy="429.7" r="2"/><circle class="cls-8" cx="442.1" cy="425.7" r="2"/><circle class="cls-8" cx="442.1" cy="420.68" r="2"/><circle class="cls-8" cx="442.1" cy="414.82" r="2"/><circle class="cls-8" cx="442.1" cy="395.71" r="2"/><circle class="cls-8" cx="414.9" cy="335.15" r="2"/><circle class="cls-8" cx="430.48" cy="337.15" r="2"/><circle class="cls-8" cx="451.59" cy="339.61" r="2"/><circle class="cls-8" cx="455.59" cy="340.19" r="2"/><circle class="cls-8" cx="460.57" cy="346.26" r="2"/><circle class="cls-8" cx="458.57" cy="349.46" r="2"/><circle class="cls-8" cx="456.57" cy="353.07" r="2"/><circle class="cls-8" cx="446.79" cy="369" r="2"/><circle class="cls-8" cx="430.98" cy="383.08" r="1.5"/><circle class="cls-8" cx="426.99" cy="382.72" r="1.5"/><circle class="cls-8" cx="420.88" cy="381.94" r="1.5"/><circle class="cls-8" cx="414.9" cy="381.22" r="1.5"/><circle class="cls-8" cx="404.59" cy="379.72" r="1.5"/><circle class="cls-8" cx="392.38" cy="378.22" r="1.5"/><circle class="cls-8" cx="445.18" cy="371.6" r="1.5"/><circle class="cls-8" cx="381.26" cy="591.47" r="4.29"/><circle class="cls-8" cx="381.26" cy="598.85" r="4.29"/><circle class="cls-8" cx="381.26" cy="605.91" r="4.29"/><circle class="cls-8" cx="381.26" cy="612.86" r="4.29"/><circle class="cls-8" cx="381.05" cy="622.38" r="4.29"/><circle class="cls-8" cx="381.05" cy="675.56" r="4.29"/><circle class="cls-8" cx="673.54" cy="248.2" r="4.94"/><circle class="cls-8" cx="687.87" cy="248.2" r="4.94"/><circle class="cls-8" cx="697.74" cy="248.21" r="4.94"/><circle class="cls-8" cx="707.62" cy="248.21" r="4.94"/><circle class="cls-8" cx="785.69" cy="248.21" r="4.94"/><circle class="cls-8" cx="790.63" cy="248.2" r="4.94"/><circle class="cls-8" cx="797.06" cy="248.2" r="4.94"/><circle class="cls-8" cx="765.57" cy="699.59" r="2.9"/><circle class="cls-8" cx="770.53" cy="698.27" r="2.9"/><circle class="cls-8" cx="787.25" cy="694.54" r="2.9"/><circle class="cls-8" cx="792.31" cy="693.1" r="2.9"/><circle class="cls-8" cx="797.22" cy="691.65" r="2.9"/><circle class="cls-8" cx="756.26" cy="638.26" r="4.94"/><circle class="cls-8" cx="467.42" cy="248.45" r="3.5"/><circle class="cls-8" cx="414.9" cy="248.22" r="3"/><rect class="cls-8" x="735.44" y="664.57" width="4.82" height="4.82" transform="translate(-252.76 756.38) rotate(-47.27)"/><rect class="cls-8" x="735.44" y="659.67" width="4.82" height="4.82" transform="translate(-249.16 754.81) rotate(-47.27)"/><rect class="cls-8" x="735.44" y="648.99" width="4.82" height="4.82" transform="translate(-241.31 751.37) rotate(-47.27)"/><rect class="cls-8" x="481.73" y="247.28" width="2.83" height="2.83" transform="translate(315.49 -268.19) rotate(44.79)"/><rect class="cls-8" x="467.96" y="199.91" width="5.9" height="5.9" transform="translate(281.37 -273.57) rotate(45)"/><rect class="cls-8" x="473.17" y="194.7" width="5.9" height="5.9" transform="translate(279.22 -278.78) rotate(45)"/><rect class="cls-8" x="478.38" y="189.49" width="5.9" height="5.9" transform="translate(277.06 -283.99) rotate(45)"/><rect class="cls-8" x="484.72" y="183.15" width="5.9" height="5.9" transform="translate(274.43 -290.33) rotate(45)"/><rect class="cls-8" x="315.64" y="246.83" width="2.83" height="2.83" transform="translate(266.96 -151.3) rotate(44.79)"/><rect class="cls-8" x="325.86" y="246.73" width="2.83" height="2.83" transform="translate(269.85 -158.53) rotate(44.79)"/><rect class="cls-8" x="435.66" y="246.66" width="4" height="4" rx="2" ry="2" transform="translate(701.91 -179.77) rotate(92.06)"/><rect class="cls-8" x="431.67" y="246.52" width="4" height="4" rx="2" ry="2" transform="translate(697.62 -175.93) rotate(92.06)"/><rect class="cls-8" x="387.53" y="246.39" width="4" height="4" rx="2" ry="2" transform="translate(651.77 -131.95) rotate(92.06)"/><rect class="cls-8" x="369.88" y="246.29" width="4" height="4" rx="2" ry="2" transform="translate(633.39 -114.42) rotate(92.06)"/><rect class="cls-8" x="365.89" y="246.15" width="4" height="4" rx="2" ry="2" transform="translate(629.11 -110.57) rotate(92.06)"/><rect class="cls-8" x="361.89" y="246" width="4" height="4" rx="2" ry="2" transform="translate(624.82 -106.72) rotate(92.06)"/><polygon class="cls-8" points="873.84 143.88 871 143.88 869.58 145.11 871 146.34 873.84 146.34 875.25 145.11 873.84 143.88"/><polygon class="cls-8" points="873.84 138.6 871 138.6 869.58 139.82 871 141.05 873.84 141.05 875.25 139.82 873.84 138.6"/><polygon class="cls-8" points="809.71 188.57 806.87 188.57 805.45 189.79 806.87 191.02 809.71 191.02 811.12 189.79 809.71 188.57"/><polygon class="cls-8" points="809.71 193.75 806.87 193.75 805.45 194.98 806.87 196.2 809.71 196.2 811.12 194.98 809.71 193.75"/><polygon class="cls-8" points="809.71 172.64 806.87 172.64 805.45 173.87 806.87 175.09 809.71 175.09 811.12 173.87 809.71 172.64"/><polygon class="cls-8" points="809.71 157.53 806.87 157.53 805.45 158.76 806.87 159.99 809.71 159.99 811.12 158.76 809.71 157.53"/><polygon class="cls-8" points="809.71 153.74 806.87 153.74 805.45 154.97 806.87 156.2 809.71 156.2 811.12 154.97 809.71 153.74"/><polygon class="cls-8" points="809.71 151.53 806.87 151.53 805.45 152.76 806.87 153.99 809.71 153.99 811.12 152.76 809.71 151.53"/><polygon class="cls-8" points="809.71 145.11 806.87 145.11 805.45 147.4 806.87 149.69 809.71 149.69 811.12 147.4 809.71 145.11"/><polygon class="cls-8" points="809.71 184.26 806.87 184.26 805.45 185.48 806.87 186.71 809.71 186.71 811.12 185.48 809.71 184.26"/><polygon class="cls-8" points="873.84 129.81 871 129.81 869.58 132.17 871 134.54 873.84 134.54 875.25 132.17 873.84 129.81"/><polygon class="cls-8" points="883.64 99.18 880.8 99.18 879.39 101.55 880.8 103.92 883.64 103.92 885.06 101.55 883.64 99.18"/><polygon class="cls-8" points="883.64 105.07 880.8 105.07 879.39 107.43 880.8 109.8 883.64 109.8 885.06 107.43 883.64 105.07"/><polygon class="cls-8" points="883.64 119.78 880.8 119.78 879.39 122.15 880.8 124.52 883.64 124.52 885.06 122.15 883.64 119.78"/><polygon class="cls-8" points="883.64 171.5 880.8 171.5 879.39 173.87 880.8 176.23 883.64 176.23 885.06 173.87 883.64 171.5"/><circle class="cls-8" cx="946.35" cy="99.03" r="2.82"/><circle class="cls-8" cx="946.35" cy="103.92" r="2.82"/><circle class="cls-8" cx="946.35" cy="107.89" r="2.82"/><circle class="cls-8" cx="946.35" cy="111.62" r="2.82"/><circle class="cls-8" cx="946.35" cy="130.79" r="2.82"/><circle class="cls-8" cx="992.63" cy="287.78" r="2.82"/><circle class="cls-8" cx="988.52" cy="285.94" r="2"/><circle class="cls-8" cx="985.03" cy="284.95" r="2"/><circle class="cls-8" cx="976.51" cy="281.79" r="2"/><circle class="cls-8" cx="967.9" cy="278.59" r="2"/><circle class="cls-8" cx="957.99" cy="274.91" r="2"/><circle class="cls-8" cx="943.68" cy="269.6" r="2"/><circle class="cls-8" cx="961.99" cy="259.78" r="2"/><circle class="cls-8" cx="910.13" cy="235.99" r="1.74"/><circle class="cls-8" cx="910.13" cy="229.77" r="1.74"/><circle class="cls-8" cx="910.13" cy="223.14" r="1.74"/><circle class="cls-8" cx="910.38" cy="212.22" r="1.74"/><circle class="cls-8" cx="872.42" cy="178.56" r="1.92"/><circle class="cls-8" cx="872.42" cy="175.09" r="1.92"/><circle class="cls-8" cx="872.42" cy="171.5" r="1.92"/><circle class="cls-8" cx="872.34" cy="168.13" r="2"/><circle class="cls-8" cx="872.42" cy="122.52" r="2"/><circle class="cls-8" cx="872.34" cy="114.44" r="2"/><circle class="cls-8" cx="872.5" cy="107.43" r="2"/><circle class="cls-8" cx="946.35" cy="187.05" r="1.57"/><circle class="cls-8" cx="946.35" cy="193.41" r="1.57"/><circle class="cls-8" cx="974.51" cy="238.73" r="2.74"/><circle class="cls-8" cx="974.51" cy="234.25" r="2.74"/><circle class="cls-8" cx="974.51" cy="229.38" r="2.74"/><circle class="cls-8" cx="974.51" cy="215.83" r="2.74"/><circle class="cls-8" cx="974.51" cy="189.79" r="2.74"/><circle class="cls-8" cx="974.51" cy="158.76" r="2.74"/><circle class="cls-8" cx="974.51" cy="165.39" r="1.26"/><circle class="cls-8" cx="946.35" cy="177.8" r="1.57"/><circle class="cls-8" cx="946.35" cy="168.55" r="3.9"/></g></svg>